<?xml version="1.0" encoding="UTF-8"?>
<svg height="700" width="600" xmlns="http://www.w3.org/2000/svg"><svg height="600" style="display:block" viewBox="0 0 600 600" width="600"><defs><clipPath id="court-clip-iv4nvut"><rect height="479.0728921733289" width="442.19012428619413" x="78.90493785690292" y="60.46355391333555"></rect></clipPath><filter id="court-shadow" x="-5%" y="-5%" width="110%" height="110%"><feDropShadow dx="0" dy="2" flood-color="#000000" flood-opacity="0.15" stdDeviation="3"></feDropShadow></filter></defs><rect fill="#F5F0E8" height="600" width="600" x="0" y="0"></rect><g><rect fill="#B0663C" height="600" width="563.1172321128653" x="18.441383943567345" y="-2.1316282072803006e-14"></rect><rect fill="#C97B4E" filter="url(#court-shadow)" height="479.0728921733289" width="442.19012428619413" x="78.90493785690292" y="60.46355391333555"></rect><g><rect fill="#E0A87E" height="221.09506214309715" width="331.7433658045012" x="134.1283170977494" y="60.46355391333555"></rect></g><g fill="none" stroke="#FFFFFF" stroke-width="2"><line x1="78.90493785690292" x2="78.90493785690292" y1="539.5364460866645" y2="60.46355391333555"></line><line x1="521.095062143097" x2="521.095062143097" y1="539.5364460866645" y2="60.46355391333555"></line><line x1="134.1283170977494" x2="134.1283170977494" y1="539.5364460866645" y2="60.46355391333555"></line><line x1="465.8716829022506" x2="465.8716829022506" y1="539.5364460866645" y2="60.46355391333555"></line><line x1="134.1283170977494" x2="465.8716829022506" y1="281.5586160564327" y2="281.5586160564327"></line><line x1="300" x2="300" y1="281.5586160564327" y2="60.46355391333555"></line></g><g fill="none" stroke="#FFFFFF" stroke-width="3"><line x1="78.90493785690292" x2="521.095062143097" y1="539.5364460866645" y2="539.5364460866645"></line><line x1="287.90728921733285" x2="312.0927107826671" y1="539.5364460866645" y2="539.5364460866645"></line></g><g fill="none" stroke="#FFFFFF" stroke-dasharray="6 4" stroke-width="2.5"><line x1="66.81222707423582" x2="533.1877729257641" y1="60.46355391333555" y2="60.46355391333555"></line></g><g clip-path="url(#court-clip-iv4nvut)"><g><g><polygon fill="none" opacity="0.51" points="174.17426769296893,-421.7764237825472 170.46152942370796,-419.63287334335865 170.46152942370796,-415.34577246498185 174.17426769296893,-413.2022220257933 177.8870059622299,-415.34577246498185 177.8870059622299,-419.63287334335865" stroke="#FAF6EE" stroke-width="2.5"></polygon><polygon fill="rgb(100, 136, 196)" opacity="0.85" points="174.17426769296893,-421.7764237825472 170.46152942370796,-419.63287334335865 170.46152942370796,-415.34577246498185 174.17426769296893,-413.2022220257933 177.8870059622299,-415.34577246498185 177.8870059622299,-419.63287334335865" stroke="#1A1A1A" stroke-width="0.5"></polygon></g><g><polygon fill="none" opacity="0.51" points="464.12052040047524,-411.8040213062048 460.8381099924657,-409.90892077354977 460.8381099924657,-406.11871970823944 464.12052040047524,-404.2236191755844 467.40293080848477,-406.11871970823944 467.40293080848477,-409.90892077354977" stroke="#FAF6EE" stroke-width="2.5"></polygon><polygon fill="rgb(232, 220, 200)" opacity="0.85" points="464.12052040047524,-411.8040213062048 460.8381099924657,-409.90892077354977 460.8381099924657,-406.11871970823944 464.12052040047524,-404.2236191755844 467.40293080848477,-406.11871970823944 467.40293080848477,-409.90892077354977" stroke="#1A1A1A" stroke-width="0.5"></polygon></g><g><polygon fill="none" opacity="0.51" points="185.1156357196673,412.56471039877147 181.8332253116578,414.4598109314266 181.8332253116578,418.25001199673693 185.1156357196673,420.145112529392 188.3980461276768,418.25001199673693 188.3980461276768,414.45981093142666" stroke="#FAF6EE" stroke-width="2.5"></polygon><polygon fill="rgb(232, 220, 200)" opacity="0.85" points="185.1156357196673,412.56471039877147 181.8332253116578,414.4598109314266 181.8332253116578,418.25001199673693 185.1156357196673,420.145112529392 188.3980461276768,418.25001199673693 188.3980461276768,414.45981093142666" stroke="#1A1A1A" stroke-width="0.5"></polygon></g><g><polygon fill="none" opacity="0.51" points="393.00162822693596,279.90767311291324 389.7192178189265,281.8027736455684 389.7192178189265,285.5929747108786 393.00162822693596,287.4880752435338 396.28403863494543,285.5929747108786 396.28403863494543,281.8027736455684" stroke="#FAF6EE" stroke-width="2.5"></polygon><polygon fill="rgb(139, 26, 26)" opacity="0.85" points="393.00162822693596,279.90767311291324 389.7192178189265,281.8027736455684 389.7192178189265,285.5929747108786 393.00162822693596,287.4880752435338 396.28403863494543,285.5929747108786 396.28403863494543,281.8027736455684" stroke="#1A1A1A" stroke-width="0.5"></polygon></g><g><polygon fill="none" opacity="0.51" points="436.76710033372933,355.71169441911803 433.48468992571986,357.6067949517731 433.48468992571986,361.3969960170833 436.76710033372933,363.2920965497385 440.04951074173886,361.3969960170833 440.04951074173886,357.6067949517731" stroke="#FAF6EE" stroke-width="2.5"></polygon><polygon fill="rgb(139, 26, 26)" opacity="0.85" points="436.76710033372933,355.71169441911803 433.48468992571986,357.6067949517731 433.48468992571986,361.3969960170833 436.76710033372933,363.2920965497385 440.04951074173886,361.3969960170833 440.04951074173886,357.6067949517731" stroke="#1A1A1A" stroke-width="0.5"></polygon></g><g><polygon fill="none" opacity="0.51" points="206.998371773064,468.9208265653584 203.28563350380298,471.0643770045469 203.28563350380298,475.3514778829237 206.998371773064,477.4950283221122 210.71111004232495,475.3514778829237 210.71111004232495,471.0643770045469" stroke="#FAF6EE" stroke-width="2.5"></polygon><polygon fill="rgb(100, 136, 196)" opacity="0.85" points="206.998371773064,468.9208265653584 203.28563350380298,471.0643770045469 203.28563350380298,475.3514778829237 206.998371773064,477.4950283221122 210.71111004232495,475.3514778829237 210.71111004232495,471.0643770045469" stroke="#1A1A1A" stroke-width="0.5"></polygon></g><g><polygon fill="none" opacity="0.51" points="239.82247585315903,336.76068909256685 236.54006544514954,338.6557896252219 236.54006544514954,342.44599069053214 239.82247585315903,344.34109122318733 243.10488626116853,342.44599069053214 243.10488626116856,338.6557896252219" stroke="#FAF6EE" stroke-width="2.5"></polygon><polygon fill="rgb(139, 26, 26)" opacity="0.85" points="239.82247585315903,336.76068909256685 236.54006544514954,338.6557896252219 236.54006544514954,342.44599069053214 239.82247585315903,344.34109122318733 243.10488626116853,342.44599069053214 243.10488626116856,338.6557896252219" stroke="#1A1A1A" stroke-width="0.5"></polygon></g><g><polygon fill="none" opacity="0.51" points="201.52768775971484,365.18719708239354 198.2452773517053,367.0822976150487 198.2452773517053,370.87249868035894 201.52768775971484,372.767599213014 204.81009816772433,370.87249868035894 204.81009816772433,367.0822976150487" stroke="#FAF6EE" stroke-width="2.5"></polygon><polygon fill="rgb(43, 77, 140)" opacity="0.85" points="201.52768775971484,365.18719708239354 198.2452773517053,367.0822976150487 198.2452773517053,370.87249868035894 201.52768775971484,372.767599213014 204.81009816772433,370.87249868035894 204.81009816772433,367.0822976150487" stroke="#1A1A1A" stroke-width="0.5"></polygon></g><g><polygon fill="none" opacity="0.51" points="250.76384387985738,431.01881591225606 247.0511056105964,433.1623663514445 247.0511056105964,437.4494672298213 250.76384387985738,439.59301766900984 254.47658214911834,437.4494672298213 254.47658214911834,433.1623663514445" stroke="#FAF6EE" stroke-width="2.5"></polygon><polygon fill="rgb(232, 116, 44)" opacity="0.85" points="250.76384387985738,431.01881591225606 247.0511056105964,433.1623663514445 247.0511056105964,437.4494672298213 250.76384387985738,439.59301766900984 254.47658214911834,437.4494672298213 254.47658214911834,433.1623663514445" stroke="#1A1A1A" stroke-width="0.5"></polygon></g><g><polygon fill="none" opacity="0.51" points="393.00162822693596,-421.2795239694804 389.7192178189265,-419.3844234368254 389.7192178189265,-415.5942223715151 393.00162822693596,-413.69912183886004 396.28403863494543,-415.5942223715151 396.28403863494543,-419.3844234368254" stroke="#FAF6EE" stroke-width="2.5"></polygon><polygon fill="rgb(43, 77, 140)" opacity="0.85" points="393.00162822693596,-421.2795239694804 389.7192178189265,-419.3844234368254 389.7192178189265,-415.5942223715151 393.00162822693596,-413.69912183886004 396.28403863494543,-415.5942223715151 396.28403863494543,-419.3844234368254" stroke="#1A1A1A" stroke-width="0.5"></polygon></g><g><polygon fill="none" opacity="0.51" points="371.1188921735393,-421.2795239694804 367.83648176552975,-419.3844234368254 367.83648176552975,-415.5942223715151 371.1188921735393,-413.69912183886004 374.40130258154875,-415.5942223715151 374.40130258154875,-419.3844234368254" stroke="#FAF6EE" stroke-width="2.5"></polygon><polygon fill="rgb(232, 220, 200)" opacity="0.85" points="371.1188921735393,-421.2795239694804 367.83648176552975,-419.3844234368254 367.83648176552975,-415.5942223715151 371.1188921735393,-413.69912183886004 374.40130258154875,-415.5942223715151 374.40130258154875,-419.3844234368254" stroke="#1A1A1A" stroke-width="0.5"></polygon></g><g><polygon fill="none" opacity="0.51" points="414.8843642803327,-422.8980521573939 410.2002673448489,-420.1936875307821 410.2002673448489,-414.7849582775584 414.8843642803327,-412.0805936509466 419.5684612158164,-414.7849582775584 419.5684612158164,-420.1936875307821" stroke="#FAF6EE" stroke-width="2.5"></polygon><polygon fill="rgb(100, 136, 196)" opacity="0.85" points="414.8843642803327,-422.8980521573939 410.2002673448489,-420.1936875307821 410.2002673448489,-414.7849582775584 414.8843642803327,-412.0805936509466 419.5684612158164,-414.7849582775584 419.5684612158164,-420.1936875307821" stroke="#1A1A1A" stroke-width="0.5"></polygon><text dominant-baseline="middle" fill="#FAF6EE" font-family="Barlow Condensed, Arial Narrow, sans-serif" font-size="10" font-weight="700" text-anchor="middle" x="414.8843642803327" y="-417.48932290417025">6</text></g><g><polygon fill="none" opacity="0.51" points="223.4104238131115,327.2851864292912 220.12801340510197,329.1802869619463 220.12801340510197,332.9704880272566 223.4104238131115,334.86558855991166 226.69283422112102,332.9704880272566 226.69283422112102,329.1802869619463" stroke="#FAF6EE" stroke-width="2.5"></polygon><polygon fill="rgb(232, 220, 200)" opacity="0.85" points="223.4104238131115,327.2851864292912 220.12801340510197,329.1802869619463 220.12801340510197,332.9704880272566 223.4104238131115,334.86558855991166 226.69283422112102,332.9704880272566 226.69283422112102,329.1802869619463" stroke="#1A1A1A" stroke-width="0.5"></polygon></g><g><polygon fill="none" opacity="0.51" points="157.76221565292138,308.33418110274 154.47980524491192,310.2292816353951 154.47980524491192,314.0194827007054 157.76221565292138,315.9145832333605 161.0446260609309,314.0194827007054 161.0446260609309,310.2292816353951" stroke="#FAF6EE" stroke-width="2.5"></polygon><polygon fill="rgb(232, 220, 200)" opacity="0.85" points="157.76221565292138,308.33418110274 154.47980524491192,310.2292816353951 154.47980524491192,314.0194827007054 157.76221565292138,315.9145832333605 161.0446260609309,314.0194827007054 161.0446260609309,310.2292816353951" stroke="#1A1A1A" stroke-width="0.5"></polygon></g><g><polygon fill="none" opacity="0.51" points="201.52768775971484,327.2851864292912 198.2452773517053,329.1802869619463 198.2452773517053,332.9704880272566 201.52768775971484,334.86558855991166 204.81009816772433,332.9704880272566 204.81009816772433,329.1802869619463" stroke="#FAF6EE" stroke-width="2.5"></polygon><polygon fill="rgb(139, 26, 26)" opacity="0.85" points="201.52768775971484,327.2851864292912 198.2452773517053,329.1802869619463 198.2452773517053,332.9704880272566 201.52768775971484,334.86558855991166 204.81009816772433,332.9704880272566 204.81009816772433,329.1802869619463" stroke="#1A1A1A" stroke-width="0.5"></polygon></g><g><polygon fill="none" opacity="0.51" points="239.82247585315903,450.4667210518739 236.54006544514954,452.36182158452897 236.54006544514954,456.1520226498393 239.82247585315903,458.0471231824944 243.10488626116853,456.1520226498393 243.10488626116856,452.361821584529" stroke="#FAF6EE" stroke-width="2.5"></polygon><polygon fill="rgb(139, 26, 26)" opacity="0.85" points="239.82247585315903,450.4667210518739 236.54006544514954,452.36182158452897 236.54006544514954,456.1520226498393 239.82247585315903,458.0471231824944 243.10488626116853,456.1520226498393 243.10488626116856,452.361821584529" stroke="#1A1A1A" stroke-width="0.5"></polygon></g><g><polygon fill="none" opacity="0.51" points="403.9429962536343,393.6137050722203 400.66058584562484,395.5088056048754 400.66058584562484,399.2990066701857 403.9429962536343,401.1941072028408 407.2254066616438,399.2990066701857 407.2254066616438,395.5088056048755" stroke="#FAF6EE" stroke-width="2.5"></polygon><polygon fill="rgb(139, 26, 26)" opacity="0.85" points="403.9429962536343,393.6137050722203 400.66058584562484,395.5088056048754 400.66058584562484,399.2990066701857 403.9429962536343,401.1941072028408 407.2254066616438,399.2990066701857 407.2254066616438,395.5088056048755" stroke="#1A1A1A" stroke-width="0.5"></polygon></g><g><polygon fill="none" opacity="0.51" points="300,-205.55391333557287 294.8028501873183,-202.55333749220222 294.8028501873183,-196.55218580546102 300,-193.55160996209037 305.19714981268163,-196.55218580546102 305.1971498126817,-202.55333749220222" stroke="#FAF6EE" stroke-width="2.5"></polygon><polygon fill="rgb(64, 99, 161)" opacity="0.85" points="300,-205.55391333557287 294.8028501873183,-202.55333749220222 294.8028501873183,-196.55218580546102 300,-193.55160996209037 305.19714981268163,-196.55218580546102 305.1971498126817,-202.55333749220222" stroke="#1A1A1A" stroke-width="0.5"></polygon><text dominant-baseline="middle" fill="#FAF6EE" font-family="Barlow Condensed, Arial Narrow, sans-serif" font-size="10" font-weight="700" text-anchor="middle" x="300" y="-199.55276164883156">8</text></g><g><polygon fill="none" opacity="0.51" points="228.88110782646066,-421.2795239694804 225.5986974184512,-419.3844234368254 225.5986974184512,-415.5942223715151 228.88110782646066,-413.69912183886004 232.16351823447016,-415.5942223715151 232.1635182344702,-419.3844234368254" stroke="#FAF6EE" stroke-width="2.5"></polygon><polygon fill="rgb(232, 220, 200)" opacity="0.85" points="228.88110782646066,-421.2795239694804 225.5986974184512,-419.3844234368254 225.5986974184512,-415.5942223715151 228.88110782646066,-413.69912183886004 232.16351823447016,-415.5942223715151 232.1635182344702,-419.3844234368254" stroke="#1A1A1A" stroke-width="0.5"></polygon></g><g><polygon fill="none" opacity="0.51" points="327.35342006674585,-307.5734920101733 324.07100965873633,-305.6783914775183 324.07100965873633,-301.88819041220796 327.35342006674585,-299.99308987955294 330.6358304747554,-301.88819041220796 330.6358304747554,-305.6783914775183" stroke="#FAF6EE" stroke-width="2.5"></polygon><polygon fill="rgb(232, 220, 200)" opacity="0.85" points="327.35342006674585,-307.5734920101733 324.07100965873633,-305.6783914775183 324.07100965873633,-301.88819041220796 327.35342006674585,-299.99308987955294 330.6358304747554,-301.88819041220796 330.6358304747554,-305.6783914775183" stroke="#1A1A1A" stroke-width="0.5"></polygon></g><g><polygon fill="none" opacity="0.51" points="206.998371773064,-421.2795239694804 203.7159613650545,-419.3844234368254 203.7159613650545,-415.5942223715151 206.998371773064,-413.69912183886004 210.28078218107345,-415.5942223715151 210.28078218107345,-419.3844234368254" stroke="#FAF6EE" stroke-width="2.5"></polygon><polygon fill="rgb(232, 220, 200)" opacity="0.85" points="206.998371773064,-421.2795239694804 203.7159613650545,-419.3844234368254 203.7159613650545,-415.5942223715151 206.998371773064,-413.69912183886004 210.28078218107345,-415.5942223715151 210.28078218107345,-419.3844234368254" stroke="#1A1A1A" stroke-width="0.5"></polygon></g><g><polygon fill="none" opacity="0.51" points="135.8794795995247,-203.34296271414175 132.59706919151517,-201.44786218148673 132.59706919151517,-197.6576611161764 135.8794795995247,-195.76256058352138 139.1618900075342,-197.6576611161764 139.1618900075342,-201.44786218148673" stroke="#FAF6EE" stroke-width="2.5"></polygon><polygon fill="rgb(139, 26, 26)" opacity="0.85" points="135.8794795995247,-203.34296271414175 132.59706919151517,-201.44786218148673 132.59706919151517,-197.6576611161764 135.8794795995247,-195.76256058352138 139.1618900075342,-197.6576611161764 139.1618900075342,-201.44786218148673" stroke="#1A1A1A" stroke-width="0.5"></polygon></g><g><polygon fill="none" opacity="0.51" points="398.4723122402852,346.23619175584236 395.18990183227567,348.1312922884975 395.18990183227567,351.92149335380776 398.4723122402852,353.81659388646284 401.75472264829466,351.92149335380776 401.75472264829466,348.1312922884975" stroke="#FAF6EE" stroke-width="2.5"></polygon><polygon fill="rgb(139, 26, 26)" opacity="0.85" points="398.4723122402852,346.23619175584236 395.18990183227567,348.1312922884975 395.18990183227567,351.92149335380776 398.4723122402852,353.81659388646284 401.75472264829466,351.92149335380776 401.75472264829466,348.1312922884975" stroke="#1A1A1A" stroke-width="0.5"></polygon></g><g><polygon fill="none" opacity="0.51" points="196.05700374636564,393.6137050722203 192.77459333835614,395.5088056048754 192.77459333835614,399.2990066701857 196.05700374636564,401.1941072028408 199.33941415437513,399.2990066701857 199.33941415437513,395.5088056048755" stroke="#FAF6EE" stroke-width="2.5"></polygon><polygon fill="rgb(139, 26, 26)" opacity="0.85" points="196.05700374636564,393.6137050722203 192.77459333835614,395.5088056048754 192.77459333835614,399.2990066701857 196.05700374636564,401.1941072028408 199.33941415437513,399.2990066701857 199.33941415437513,395.5088056048755" stroke="#1A1A1A" stroke-width="0.5"></polygon></g><g><polygon fill="none" opacity="0.51" points="289.0586319733016,289.38317577618886 285.7762215652921,291.27827630884394 285.7762215652921,295.0684773741542 289.0586319733016,296.96357790680935 292.3410423813111,295.0684773741542 292.3410423813111,291.27827630884394" stroke="#FAF6EE" stroke-width="2.5"></polygon><polygon fill="rgb(139, 26, 26)" opacity="0.85" points="289.0586319733016,289.38317577618886 285.7762215652921,291.27827630884394 285.7762215652921,295.0684773741542 289.0586319733016,296.96357790680935 292.3410423813111,295.0684773741542 292.3410423813111,291.27827630884394" stroke="#1A1A1A" stroke-width="0.5"></polygon></g><g><polygon fill="none" opacity="0.51" points="163.23289966627058,336.76068909256685 159.9504892582611,338.6557896252219 159.9504892582611,342.44599069053214 163.23289966627058,344.34109122318733 166.51531007428008,342.44599069053214 166.51531007428008,338.6557896252219" stroke="#FAF6EE" stroke-width="2.5"></polygon><polygon fill="rgb(139, 26, 26)" opacity="0.85" points="163.23289966627058,336.76068909256685 159.9504892582611,338.6557896252219 159.9504892582611,342.44599069053214 163.23289966627058,344.34109122318733 166.51531007428008,342.44599069053214 166.51531007428008,338.6557896252219" stroke="#1A1A1A" stroke-width="0.5"></polygon></g><g><polygon fill="none" opacity="0.51" points="371.1188921735393,374.6626997456691 367.83648176552975,376.55780027832424 367.83648176552975,380.3480013436345 371.1188921735393,382.2431018762897 374.40130258154875,380.3480013436345 374.40130258154875,376.55780027832424" stroke="#FAF6EE" stroke-width="2.5"></polygon><polygon fill="rgb(139, 26, 26)" opacity="0.85" points="371.1188921735393,374.6626997456691 367.83648176552975,376.55780027832424 367.83648176552975,380.3480013436345 371.1188921735393,382.2431018762897 374.40130258154875,380.3480013436345 374.40130258154875,376.55780027832424" stroke="#1A1A1A" stroke-width="0.5"></polygon></g><g><polygon fill="none" opacity="0.51" points="294.5293159866508,-421.2795239694804 291.24690557864125,-419.3844234368254 291.24690557864125,-415.5942223715151 294.5293159866508,-413.69912183886004 297.8117263946603,-415.5942223715151 297.8117263946603,-419.3844234368254" stroke="#FAF6EE" stroke-width="2.5"></polygon><polygon fill="rgb(43, 77, 140)" opacity="0.85" points="294.5293159866508,-421.2795239694804 291.24690557864125,-419.3844234368254 291.24690557864125,-415.5942223715151 294.5293159866508,-413.69912183886004 297.8117263946603,-415.5942223715151 297.8117263946603,-419.3844234368254" stroke="#1A1A1A" stroke-width="0.5"></polygon></g></g></g></g></svg><g transform="translate(200, 640)"><g><defs><linearGradient id="colorbar-qt8s32" x1="0%" x2="100%" y1="0%" y2="0%"><stop offset="0%" stop-color="#2B4D8C"></stop><stop offset="20%" stop-color="#2B4D8C"></stop><stop offset="35%" stop-color="#6B8FCB"></stop><stop offset="50%" stop-color="#E8DCC8"></stop><stop offset="65%" stop-color="#E8742C"></stop><stop offset="85%" stop-color="#E8742C"></stop><stop offset="100%" stop-color="#8B1A1A"></stop></linearGradient></defs><rect fill="url(#colorbar-qt8s32)" height="16" rx="2" width="200" x="0" y="0"></rect><text fill="#555555" font-family="Inter" font-size="9" text-anchor="start" x="0" y="28">Cold</text><text fill="#555555" font-family="Inter" font-size="9" text-anchor="end" x="200" y="28">Hot</text></g></g><text fill="#1A1A1A" font-family="Barlow Condensed" font-size="18" font-weight="bold" text-anchor="middle" x="300" y="690">Ángela Boluda — Shot Frequency &amp; Efficiency</text></svg>