<?xml version="1.0" encoding="UTF-8"?>
<svg height="700" width="600" xmlns="http://www.w3.org/2000/svg"><svg height="600" style="display:block" viewBox="0 0 600 600" width="600"><defs><clipPath id="court-clip-ltjzsfb"><rect height="479.0728921733289" width="442.19012428619413" x="78.90493785690292" y="60.46355391333555"></rect></clipPath><filter id="court-shadow" x="-5%" y="-5%" width="110%" height="110%"><feDropShadow dx="0" dy="2" flood-color="#000000" flood-opacity="0.15" stdDeviation="3"></feDropShadow></filter></defs><rect fill="#F5F0E8" height="600" width="600" x="0" y="0"></rect><g><rect fill="#B0663C" height="600" width="563.1172321128653" x="18.441383943567345" y="-2.1316282072803006e-14"></rect><rect fill="#C97B4E" filter="url(#court-shadow)" height="479.0728921733289" width="442.19012428619413" x="78.90493785690292" y="60.46355391333555"></rect><g><rect fill="#E0A87E" height="221.09506214309715" width="331.7433658045012" x="134.1283170977494" y="60.46355391333555"></rect></g><g fill="none" stroke="#FFFFFF" stroke-width="2"><line x1="78.90493785690292" x2="78.90493785690292" y1="539.5364460866645" y2="60.46355391333555"></line><line x1="521.095062143097" x2="521.095062143097" y1="539.5364460866645" y2="60.46355391333555"></line><line x1="134.1283170977494" x2="134.1283170977494" y1="539.5364460866645" y2="60.46355391333555"></line><line x1="465.8716829022506" x2="465.8716829022506" y1="539.5364460866645" y2="60.46355391333555"></line><line x1="134.1283170977494" x2="465.8716829022506" y1="281.5586160564327" y2="281.5586160564327"></line><line x1="300" x2="300" y1="281.5586160564327" y2="60.46355391333555"></line></g><g fill="none" stroke="#FFFFFF" stroke-width="3"><line x1="78.90493785690292" x2="521.095062143097" y1="539.5364460866645" y2="539.5364460866645"></line><line x1="287.90728921733285" x2="312.0927107826671" y1="539.5364460866645" y2="539.5364460866645"></line></g><g fill="none" stroke="#FFFFFF" stroke-dasharray="6 4" stroke-width="2.5"><line x1="66.81222707423582" x2="533.1877729257641" y1="60.46355391333555" y2="60.46355391333555"></line></g><g clip-path="url(#court-clip-ltjzsfb)"><g><g><polygon fill="none" opacity="0.51" points="300,-205.55391333557287 294.8028501873183,-202.55333749220222 294.8028501873183,-196.55218580546102 300,-193.55160996209037 305.19714981268163,-196.55218580546102 305.1971498126817,-202.55333749220222" stroke="#FAF6EE" stroke-width="2.5"></polygon><polygon fill="rgb(86, 121, 182)" opacity="0.85" points="300,-205.55391333557287 294.8028501873183,-202.55333749220222 294.8028501873183,-196.55218580546102 300,-193.55160996209037 305.19714981268163,-196.55218580546102 305.1971498126817,-202.55333749220222" stroke="#1A1A1A" stroke-width="0.5"></polygon><text dominant-baseline="middle" fill="#FAF6EE" font-family="Barlow Condensed, Arial Narrow, sans-serif" font-size="10" font-weight="700" text-anchor="middle" x="300" y="-199.55276164883156">10</text></g><g><polygon fill="none" opacity="0.51" points="365.64820816019005,-393.0640404159983 362.1830452294868,-391.0634276651709 362.1830452294868,-387.06220216351596 365.64820816019005,-385.0615894126885 369.1133710908933,-387.06220216351596 369.1133710908933,-391.0634276651709" stroke="#FAF6EE" stroke-width="2.5"></polygon><polygon fill="rgb(232, 116, 44)" opacity="0.85" points="365.64820816019005,-393.0640404159983 362.1830452294868,-391.0634276651709 362.1830452294868,-387.06220216351596 365.64820816019005,-385.0615894126885 369.1133710908933,-387.06220216351596 369.1133710908933,-391.0634276651709" stroke="#1A1A1A" stroke-width="0.5"></polygon></g><g><polygon fill="none" opacity="0.51" points="239.82247585315903,-421.04610770181563 236.74220986260394,-419.2677153029928 236.74220986260394,-415.7109305053477 239.82247585315903,-413.932538106525 242.90274184371415,-415.7109305053477 242.90274184371415,-419.2677153029928" stroke="#FAF6EE" stroke-width="2.5"></polygon><polygon fill="rgb(232, 220, 200)" opacity="0.85" points="239.82247585315903,-421.04610770181563 236.74220986260394,-419.2677153029928 236.74220986260394,-415.7109305053477 239.82247585315903,-413.932538106525 242.90274184371415,-415.7109305053477 242.90274184371415,-419.2677153029928" stroke="#1A1A1A" stroke-width="0.5"></polygon></g><g><polygon fill="none" opacity="0.51" points="376.58957618688845,-335.7665837323352 373.5093101963333,-333.9881913335124 373.5093101963333,-330.43140653586727 376.58957618688845,-328.6530141370446 379.66984217744357,-330.43140653586727 379.66984217744357,-333.9881913335124" stroke="#FAF6EE" stroke-width="2.5"></polygon><polygon fill="rgb(232, 220, 200)" opacity="0.85" points="376.58957618688845,-335.7665837323352 373.5093101963333,-333.9881913335124 373.5093101963333,-330.43140653586727 376.58957618688845,-328.6530141370446 379.66984217744357,-330.43140653586727 379.66984217744357,-333.9881913335124" stroke="#1A1A1A" stroke-width="0.5"></polygon></g><g><polygon fill="none" opacity="0.51" points="469.5912044138244,-421.04610770181563 466.51093842326935,-419.2677153029928 466.51093842326935,-415.7109305053477 469.5912044138244,-413.932538106525 472.6714704043795,-415.7109305053477 472.6714704043795,-419.2677153029928" stroke="#FAF6EE" stroke-width="2.5"></polygon><polygon fill="rgb(139, 26, 26)" opacity="0.85" points="469.5912044138244,-421.04610770181563 466.51093842326935,-419.2677153029928 466.51093842326935,-415.7109305053477 469.5912044138244,-413.932538106525 472.6714704043795,-415.7109305053477 472.6714704043795,-419.2677153029928" stroke="#1A1A1A" stroke-width="0.5"></polygon></g><g><polygon fill="none" opacity="0.51" points="387.5309442135868,-411.57060503853995 384.4506782230317,-409.79221263971715 384.4506782230317,-406.235427842072 387.5309442135868,-404.4570354432493 390.61121020414197,-406.235427842072 390.61121020414197,-409.79221263971715" stroke="#FAF6EE" stroke-width="2.5"></polygon><polygon fill="rgb(232, 220, 200)" opacity="0.85" points="387.5309442135868,-411.57060503853995 384.4506782230317,-409.79221263971715 384.4506782230317,-406.235427842072 387.5309442135868,-404.4570354432493 390.61121020414197,-406.235427842072 390.61121020414197,-409.79221263971715" stroke="#1A1A1A" stroke-width="0.5"></polygon></g><g><polygon fill="none" opacity="0.51" points="327.35342006674585,-421.04610770181563 324.27315407619074,-419.2677153029928 324.27315407619074,-415.7109305053477 327.35342006674585,-413.932538106525 330.433686057301,-415.7109305053477 330.433686057301,-419.2677153029928" stroke="#FAF6EE" stroke-width="2.5"></polygon><polygon fill="rgb(232, 220, 200)" opacity="0.85" points="327.35342006674585,-421.04610770181563 324.27315407619074,-419.2677153029928 324.27315407619074,-415.7109305053477 327.35342006674585,-413.932538106525 330.433686057301,-415.7109305053477 330.433686057301,-419.2677153029928" stroke="#1A1A1A" stroke-width="0.5"></polygon></g><g><polygon fill="none" opacity="0.51" points="360.17752414684094,-421.04610770181563 357.0972581562858,-419.2677153029928 357.0972581562858,-415.7109305053477 360.17752414684094,-413.932538106525 363.257790137396,-415.7109305053477 363.257790137396,-419.2677153029928" stroke="#FAF6EE" stroke-width="2.5"></polygon><polygon fill="rgb(232, 220, 200)" opacity="0.85" points="360.17752414684094,-421.04610770181563 357.0972581562858,-419.2677153029928 357.0972581562858,-415.7109305053477 360.17752414684094,-413.932538106525 363.257790137396,-415.7109305053477 363.257790137396,-419.2677153029928" stroke="#1A1A1A" stroke-width="0.5"></polygon></g><g><polygon fill="none" opacity="0.51" points="409.4136802669835,-203.10954644647694 406.33341427642836,-201.33115404765425 406.33341427642836,-197.774369250009 409.4136802669835,-195.9959768511863 412.4939462575386,-197.774369250009 412.4939462575386,-201.33115404765425" stroke="#FAF6EE" stroke-width="2.5"></polygon><polygon fill="rgb(139, 26, 26)" opacity="0.85" points="409.4136802669835,-203.10954644647694 406.33341427642836,-201.33115404765425 406.33341427642836,-197.774369250009 409.4136802669835,-195.9959768511863 412.4939462575386,-197.774369250009 412.4939462575386,-201.33115404765425" stroke="#1A1A1A" stroke-width="0.5"></polygon></g><g><polygon fill="none" opacity="0.51" points="168.70358367961975,-203.10954644647694 165.62331768906463,-201.33115404765425 165.62331768906463,-197.774369250009 168.70358367961975,-195.9959768511863 171.78384967017485,-197.774369250009 171.78384967017485,-201.33115404765425" stroke="#FAF6EE" stroke-width="2.5"></polygon><polygon fill="rgb(139, 26, 26)" opacity="0.85" points="168.70358367961975,-203.10954644647694 165.62331768906463,-201.33115404765425 165.62331768906463,-197.774369250009 168.70358367961975,-195.9959768511863 171.78384967017485,-197.774369250009 171.78384967017485,-201.33115404765425" stroke="#1A1A1A" stroke-width="0.5"></polygon></g><g><polygon fill="none" opacity="0.51" points="163.23289966627058,318.04310003368056 160.15263367571546,319.8214924325032 160.15263367571546,323.3782772301485 163.23289966627058,325.15666962897114 166.31316565682567,323.3782772301485 166.31316565682567,319.8214924325032" stroke="#FAF6EE" stroke-width="2.5"></polygon><polygon fill="rgb(232, 220, 200)" opacity="0.85" points="163.23289966627058,318.04310003368056 160.15263367571546,319.8214924325032 160.15263367571546,323.3782772301485 163.23289966627058,325.15666962897114 166.31316565682567,323.3782772301485 166.31316565682567,319.8214924325032" stroke="#1A1A1A" stroke-width="0.5"></polygon></g><g><polygon fill="none" opacity="0.51" points="228.88110782646066,431.7491319929876 225.8008418359056,433.52752439181023 225.8008418359056,437.0843091894556 228.88110782646066,438.8627015882782 231.96137381701578,437.0843091894556 231.96137381701578,433.52752439181023" stroke="#FAF6EE" stroke-width="2.5"></polygon><polygon fill="rgb(43, 77, 140)" opacity="0.85" points="228.88110782646066,431.7491319929876 225.8008418359056,433.52752439181023 225.8008418359056,437.0843091894556 228.88110782646066,438.8627015882782 231.96137381701578,437.0843091894556 231.96137381701578,433.52752439181023" stroke="#1A1A1A" stroke-width="0.5"></polygon></g><g><polygon fill="none" opacity="0.51" points="239.82247585315903,317.59865932967097 236.35731292245575,319.59927208049834 236.35731292245575,323.60049758215325 239.82247585315903,325.60111033298074 243.28763878386232,323.60049758215325 243.28763878386232,319.59927208049834" stroke="#FAF6EE" stroke-width="2.5"></polygon><polygon fill="rgb(232, 116, 44)" opacity="0.85" points="239.82247585315903,317.59865932967097 236.35731292245575,319.59927208049834 236.35731292245575,323.60049758215325 239.82247585315903,325.60111033298074 243.28763878386232,323.60049758215325 243.28763878386232,319.59927208049834" stroke="#1A1A1A" stroke-width="0.5"></polygon></g><g><polygon fill="none" opacity="0.51" points="179.64495170631812,460.17563998281446 176.564685715763,461.9540323816371 176.564685715763,465.51081717928236 179.64495170631812,467.28920957810493 182.72521769687324,465.51081717928236 182.72521769687324,461.9540323816371" stroke="#FAF6EE" stroke-width="2.5"></polygon><polygon fill="rgb(232, 220, 200)" opacity="0.85" points="179.64495170631812,460.17563998281446 176.564685715763,461.9540323816371 176.564685715763,465.51081717928236 179.64495170631812,467.28920957810493 182.72521769687324,465.51081717928236 182.72521769687324,461.9540323816371" stroke="#1A1A1A" stroke-width="0.5"></polygon></g><g><polygon fill="none" opacity="0.51" points="174.17426769296893,280.1410893805782 171.09400170241383,281.9194817794008 171.09400170241383,285.47626657704615 174.17426769296893,287.2546589758688 177.25453368352402,285.47626657704615 177.25453368352402,281.9194817794008" stroke="#FAF6EE" stroke-width="2.5"></polygon><polygon fill="rgb(139, 26, 26)" opacity="0.85" points="174.17426769296893,280.1410893805782 171.09400170241383,281.9194817794008 171.09400170241383,285.47626657704615 174.17426769296893,287.2546589758688 177.25453368352402,285.47626657704615 177.25453368352402,281.9194817794008" stroke="#1A1A1A" stroke-width="0.5"></polygon></g><g><polygon fill="none" opacity="0.51" points="425.825732307031,318.04310003368056 422.7454663164759,319.8214924325032 422.7454663164759,323.3782772301485 425.825732307031,325.15666962897114 428.9059982975861,323.3782772301485 428.9059982975861,319.8214924325032" stroke="#FAF6EE" stroke-width="2.5"></polygon><polygon fill="rgb(139, 26, 26)" opacity="0.85" points="425.825732307031,318.04310003368056 422.7454663164759,319.8214924325032 422.7454663164759,323.3782772301485 425.825732307031,325.15666962897114 428.9059982975861,323.3782772301485 428.9059982975861,319.8214924325032" stroke="#1A1A1A" stroke-width="0.5"></polygon></g><g><polygon fill="none" opacity="0.51" points="300,-392.61959971198877 296.9197340094449,-390.84120731316597 296.9197340094449,-387.2844225155208 300,-385.5060301166981 303.08026599055506,-387.2844225155208 303.08026599055506,-390.84120731316597" stroke="#FAF6EE" stroke-width="2.5"></polygon><polygon fill="rgb(232, 220, 200)" opacity="0.85" points="300,-392.61959971198877 296.9197340094449,-390.84120731316597 296.9197340094449,-387.2844225155208 300,-385.5060301166981 303.08026599055506,-387.2844225155208 303.08026599055506,-390.84120731316597" stroke="#1A1A1A" stroke-width="0.5"></polygon></g><g><polygon fill="none" opacity="0.51" points="239.82247585315903,-345.2420863956109 236.74220986260394,-343.46369399678804 236.74220986260394,-339.90690919914294 239.82247585315903,-338.12851680032026 242.90274184371415,-339.90690919914294 242.90274184371415,-343.46369399678804" stroke="#FAF6EE" stroke-width="2.5"></polygon><polygon fill="rgb(139, 26, 26)" opacity="0.85" points="239.82247585315903,-345.2420863956109 236.74220986260394,-343.46369399678804 236.74220986260394,-339.90690919914294 239.82247585315903,-338.12851680032026 242.90274184371415,-339.90690919914294 242.90274184371415,-343.46369399678804" stroke="#1A1A1A" stroke-width="0.5"></polygon></g><g><polygon fill="none" opacity="0.51" points="464.12052040047524,-203.10954644647694 461.0402544099201,-201.33115404765425 461.0402544099201,-197.774369250009 464.12052040047524,-195.9959768511863 467.2007863910303,-197.774369250009 467.2007863910303,-201.33115404765425" stroke="#FAF6EE" stroke-width="2.5"></polygon><polygon fill="rgb(139, 26, 26)" opacity="0.85" points="464.12052040047524,-203.10954644647694 461.0402544099201,-201.33115404765425 461.0402544099201,-197.774369250009 464.12052040047524,-195.9959768511863 467.2007863910303,-197.774369250009 467.2007863910303,-201.33115404765425" stroke="#1A1A1A" stroke-width="0.5"></polygon></g><g><polygon fill="none" opacity="0.51" points="398.4723122402852,-203.10954644647694 395.39204624973,-201.33115404765425 395.39204624973,-197.774369250009 398.4723122402852,-195.9959768511863 401.5525782308403,-197.774369250009 401.5525782308403,-201.33115404765425" stroke="#FAF6EE" stroke-width="2.5"></polygon><polygon fill="rgb(139, 26, 26)" opacity="0.85" points="398.4723122402852,-203.10954644647694 395.39204624973,-201.33115404765425 395.39204624973,-197.774369250009 398.4723122402852,-195.9959768511863 401.5525782308403,-197.774369250009 401.5525782308403,-201.33115404765425" stroke="#1A1A1A" stroke-width="0.5"></polygon></g><g><polygon fill="none" opacity="0.51" points="196.05700374636564,355.50066998277333 192.59184081566235,357.50128273360076 192.59184081566235,361.5025082352557 196.05700374636564,363.5031209860831 199.52216667706892,361.5025082352557 199.52216667706892,357.50128273360076" stroke="#FAF6EE" stroke-width="2.5"></polygon><polygon fill="rgb(232, 116, 44)" opacity="0.85" points="196.05700374636564,355.50066998277333 192.59184081566235,357.50128273360076 192.59184081566235,361.5025082352557 196.05700374636564,363.5031209860831 199.52216667706892,361.5025082352557 199.52216667706892,357.50128273360076" stroke="#1A1A1A" stroke-width="0.5"></polygon></g><g><polygon fill="none" opacity="0.51" points="403.9429962536343,-421.04610770181563 400.86273026307924,-419.2677153029928 400.86273026307924,-415.7109305053477 403.9429962536343,-413.932538106525 407.02326224418937,-415.7109305053477 407.02326224418937,-419.2677153029928" stroke="#FAF6EE" stroke-width="2.5"></polygon><polygon fill="rgb(43, 77, 140)" opacity="0.85" points="403.9429962536343,-421.04610770181563 400.86273026307924,-419.2677153029928 400.86273026307924,-415.7109305053477 403.9429962536343,-413.932538106525 407.02326224418937,-415.7109305053477 407.02326224418937,-419.2677153029928" stroke="#1A1A1A" stroke-width="0.5"></polygon></g><g><polygon fill="none" opacity="0.51" points="206.998371773064,-250.48705976285484 203.9181057825089,-248.708667364032 203.9181057825089,-245.1518825663869 206.998371773064,-243.3734901675642 210.07863776361907,-245.1518825663869 210.07863776361907,-248.708667364032" stroke="#FAF6EE" stroke-width="2.5"></polygon><polygon fill="rgb(139, 26, 26)" opacity="0.85" points="206.998371773064,-250.48705976285484 203.9181057825089,-248.708667364032 203.9181057825089,-245.1518825663869 206.998371773064,-243.3734901675642 210.07863776361907,-245.1518825663869 210.07863776361907,-248.708667364032" stroke="#1A1A1A" stroke-width="0.5"></polygon></g><g><polygon fill="none" opacity="0.51" points="338.2947880934442,-421.04610770181563 335.2145221028891,-419.2677153029928 335.2145221028891,-415.7109305053477 338.2947880934442,-413.932538106525 341.3750540839993,-415.7109305053477 341.3750540839993,-419.2677153029928" stroke="#FAF6EE" stroke-width="2.5"></polygon><polygon fill="rgb(43, 77, 140)" opacity="0.85" points="338.2947880934442,-421.04610770181563 335.2145221028891,-419.2677153029928 335.2145221028891,-415.7109305053477 338.2947880934442,-413.932538106525 341.3750540839993,-415.7109305053477 341.3750540839993,-419.2677153029928" stroke="#1A1A1A" stroke-width="0.5"></polygon></g><g><polygon fill="none" opacity="0.51" points="398.4723122402852,-278.9135677526817 395.39204624973,-277.13517535385887 395.39204624973,-273.5783905562137 398.4723122402852,-271.79999815739103 401.5525782308403,-273.5783905562137 401.5525782308403,-277.13517535385887" stroke="#FAF6EE" stroke-width="2.5"></polygon><polygon fill="rgb(43, 77, 140)" opacity="0.85" points="398.4723122402852,-278.9135677526817 395.39204624973,-277.13517535385887 395.39204624973,-273.5783905562137 398.4723122402852,-271.79999815739103 401.5525782308403,-273.5783905562137 401.5525782308403,-277.13517535385887" stroke="#1A1A1A" stroke-width="0.5"></polygon></g><g><polygon fill="none" opacity="0.51" points="420.3550482936819,384.37161867660967 417.2747823031267,386.15001107543236 417.2747823031267,389.70679587307757 420.3550482936819,391.4851882719003 423.43531428423694,389.70679587307757 423.43531428423694,386.15001107543236" stroke="#FAF6EE" stroke-width="2.5"></polygon><polygon fill="rgb(139, 26, 26)" opacity="0.85" points="420.3550482936819,384.37161867660967 417.2747823031267,386.15001107543236 417.2747823031267,389.70679587307757 420.3550482936819,391.4851882719003 423.43531428423694,389.70679587307757 423.43531428423694,386.15001107543236" stroke="#1A1A1A" stroke-width="0.5"></polygon></g><g><polygon fill="none" opacity="0.51" points="420.3550482936819,460.17563998281446 417.2747823031267,461.9540323816371 417.2747823031267,465.51081717928236 420.3550482936819,467.28920957810493 423.43531428423694,465.51081717928236 423.43531428423694,461.9540323816371" stroke="#FAF6EE" stroke-width="2.5"></polygon><polygon fill="rgb(232, 220, 200)" opacity="0.85" points="420.3550482936819,460.17563998281446 417.2747823031267,461.9540323816371 417.2747823031267,465.51081717928236 420.3550482936819,467.28920957810493 423.43531428423694,465.51081717928236 423.43531428423694,461.9540323816371" stroke="#1A1A1A" stroke-width="0.5"></polygon></g><g><polygon fill="none" opacity="0.51" points="196.05700374636564,280.1410893805782 192.97673775581052,281.9194817794008 192.97673775581052,285.47626657704615 196.05700374636564,287.2546589758688 199.13726973692073,285.47626657704615 199.13726973692073,281.9194817794008" stroke="#FAF6EE" stroke-width="2.5"></polygon><polygon fill="rgb(139, 26, 26)" opacity="0.85" points="196.05700374636564,280.1410893805782 192.97673775581052,281.9194817794008 192.97673775581052,285.47626657704615 196.05700374636564,287.2546589758688 199.13726973692073,285.47626657704615 199.13726973692073,281.9194817794008" stroke="#1A1A1A" stroke-width="0.5"></polygon></g><g><polygon fill="none" opacity="0.51" points="403.9429962536343,-345.2420863956109 400.86273026307924,-343.46369399678804 400.86273026307924,-339.90690919914294 403.9429962536343,-338.12851680032026 407.02326224418937,-339.90690919914294 407.02326224418937,-343.46369399678804" stroke="#FAF6EE" stroke-width="2.5"></polygon><polygon fill="rgb(43, 77, 140)" opacity="0.85" points="403.9429962536343,-345.2420863956109 400.86273026307924,-343.46369399678804 400.86273026307924,-339.90690919914294 403.9429962536343,-338.12851680032026 407.02326224418937,-339.90690919914294 407.02326224418937,-343.46369399678804" stroke="#1A1A1A" stroke-width="0.5"></polygon></g><g><polygon fill="none" opacity="0.51" points="146.82084762622304,-203.10954644647694 143.74058163566795,-201.33115404765425 143.74058163566795,-197.774369250009 146.82084762622304,-195.9959768511863 149.90111361677816,-197.774369250009 149.90111361677816,-201.33115404765425" stroke="#FAF6EE" stroke-width="2.5"></polygon><polygon fill="rgb(139, 26, 26)" opacity="0.85" points="146.82084762622304,-203.10954644647694 143.74058163566795,-201.33115404765425 143.74058163566795,-197.774369250009 146.82084762622304,-195.9959768511863 149.90111361677816,-197.774369250009 149.90111361677816,-201.33115404765425" stroke="#1A1A1A" stroke-width="0.5"></polygon></g><g><polygon fill="none" opacity="0.51" points="201.52768775971484,-335.7665837323352 198.4474217691597,-333.9881913335124 198.4474217691597,-330.43140653586727 201.52768775971484,-328.6530141370446 204.60795375026993,-330.43140653586727 204.60795375026993,-333.9881913335124" stroke="#FAF6EE" stroke-width="2.5"></polygon><polygon fill="rgb(232, 220, 200)" opacity="0.85" points="201.52768775971484,-335.7665837323352 198.4474217691597,-333.9881913335124 198.4474217691597,-330.43140653586727 201.52768775971484,-328.6530141370446 204.60795375026993,-330.43140653586727 204.60795375026993,-333.9881913335124" stroke="#1A1A1A" stroke-width="0.5"></polygon></g><g><polygon fill="none" opacity="0.51" points="305.47068401334917,-231.53605443630377 302.3904180227941,-229.75766203748108 302.3904180227941,-226.20087723983585 305.47068401334917,-224.42248484101316 308.5509500039042,-226.20087723983585 308.5509500039042,-229.75766203748108" stroke="#FAF6EE" stroke-width="2.5"></polygon><polygon fill="rgb(232, 220, 200)" opacity="0.85" points="305.47068401334917,-231.53605443630377 302.3904180227941,-229.75766203748108 302.3904180227941,-226.20087723983585 305.47068401334917,-224.42248484101316 308.5509500039042,-226.20087723983585 308.5509500039042,-229.75766203748108" stroke="#1A1A1A" stroke-width="0.5"></polygon></g><g><polygon fill="none" opacity="0.51" points="382.0602602002376,-383.14409704871326 378.9799942096825,-381.36570464989046 378.9799942096825,-377.8089198522453 382.0602602002376,-376.0305274534226 385.14052619079274,-377.8089198522453 385.14052619079274,-381.36570464989046" stroke="#FAF6EE" stroke-width="2.5"></polygon><polygon fill="rgb(232, 220, 200)" opacity="0.85" points="382.0602602002376,-383.14409704871326 378.9799942096825,-381.36570464989046 378.9799942096825,-377.8089198522453 382.0602602002376,-376.0305274534226 385.14052619079274,-377.8089198522453 385.14052619079274,-381.36570464989046" stroke="#1A1A1A" stroke-width="0.5"></polygon></g><g><polygon fill="none" opacity="0.51" points="289.0586319733016,-203.10954644647694 285.97836598274654,-201.33115404765425 285.97836598274654,-197.774369250009 289.0586319733016,-195.9959768511863 292.1388979638567,-197.774369250009 292.1388979638567,-201.33115404765425" stroke="#FAF6EE" stroke-width="2.5"></polygon><polygon fill="rgb(232, 220, 200)" opacity="0.85" points="289.0586319733016,-203.10954644647694 285.97836598274654,-201.33115404765425 285.97836598274654,-197.774369250009 289.0586319733016,-195.9959768511863 292.1388979638567,-197.774369250009 292.1388979638567,-201.33115404765425" stroke="#1A1A1A" stroke-width="0.5"></polygon></g><g><polygon fill="none" opacity="0.51" points="409.4136802669835,384.37161867660967 406.33341427642836,386.15001107543236 406.33341427642836,389.70679587307757 409.4136802669835,391.4851882719003 412.4939462575386,389.70679587307757 412.4939462575386,386.15001107543236" stroke="#FAF6EE" stroke-width="2.5"></polygon><polygon fill="rgb(232, 220, 200)" opacity="0.85" points="409.4136802669835,384.37161867660967 406.33341427642836,386.15001107543236 406.33341427642836,389.70679587307757 409.4136802669835,391.4851882719003 412.4939462575386,389.70679587307757 412.4939462575386,386.15001107543236" stroke="#1A1A1A" stroke-width="0.5"></polygon></g><g><polygon fill="none" opacity="0.51" points="393.00162822693596,374.8961160133341 389.92136223638084,376.67450841215674 389.92136223638084,380.23129320980206 393.00162822693596,382.0096856086247 396.0818942174911,380.23129320980206 396.0818942174911,376.67450841215674" stroke="#FAF6EE" stroke-width="2.5"></polygon><polygon fill="rgb(232, 220, 200)" opacity="0.85" points="393.00162822693596,374.8961160133341 389.92136223638084,376.67450841215674 389.92136223638084,380.23129320980206 393.00162822693596,382.0096856086247 396.0818942174911,380.23129320980206 396.0818942174911,376.67450841215674" stroke="#1A1A1A" stroke-width="0.5"></polygon></g><g><polygon fill="none" opacity="0.51" points="228.88110782646066,-421.04610770181563 225.8008418359056,-419.2677153029928 225.8008418359056,-415.7109305053477 228.88110782646066,-413.932538106525 231.96137381701578,-415.7109305053477 231.96137381701578,-419.2677153029928" stroke="#FAF6EE" stroke-width="2.5"></polygon><polygon fill="rgb(43, 77, 140)" opacity="0.85" points="228.88110782646066,-421.04610770181563 225.8008418359056,-419.2677153029928 225.8008418359056,-415.7109305053477 228.88110782646066,-413.932538106525 231.96137381701578,-415.7109305053477 231.96137381701578,-419.2677153029928" stroke="#1A1A1A" stroke-width="0.5"></polygon></g><g><polygon fill="none" opacity="0.51" points="300,-335.7665837323352 296.9197340094449,-333.9881913335124 296.9197340094449,-330.43140653586727 300,-328.6530141370446 303.08026599055506,-330.43140653586727 303.08026599055506,-333.9881913335124" stroke="#FAF6EE" stroke-width="2.5"></polygon><polygon fill="rgb(232, 220, 200)" opacity="0.85" points="300,-335.7665837323352 296.9197340094449,-333.9881913335124 296.9197340094449,-330.43140653586727 300,-328.6530141370446 303.08026599055506,-330.43140653586727 303.08026599055506,-333.9881913335124" stroke="#1A1A1A" stroke-width="0.5"></polygon></g><g><polygon fill="none" opacity="0.51" points="393.00162822693596,393.8471213398853 389.92136223638084,395.62551373870787 389.92136223638084,399.18229853635324 393.00162822693596,400.9606909351759 396.0818942174911,399.18229853635324 396.0818942174911,395.62551373870787" stroke="#FAF6EE" stroke-width="2.5"></polygon><polygon fill="rgb(139, 26, 26)" opacity="0.85" points="393.00162822693596,393.8471213398853 389.92136223638084,395.62551373870787 389.92136223638084,399.18229853635324 393.00162822693596,400.9606909351759 396.0818942174911,399.18229853635324 396.0818942174911,395.62551373870787" stroke="#1A1A1A" stroke-width="0.5"></polygon></g></g></g></g></svg><g transform="translate(200, 640)"><g><defs><linearGradient id="colorbar-ykw1am" x1="0%" x2="100%" y1="0%" y2="0%"><stop offset="0%" stop-color="#2B4D8C"></stop><stop offset="20%" stop-color="#2B4D8C"></stop><stop offset="35%" stop-color="#6B8FCB"></stop><stop offset="50%" stop-color="#E8DCC8"></stop><stop offset="65%" stop-color="#E8742C"></stop><stop offset="85%" stop-color="#E8742C"></stop><stop offset="100%" stop-color="#8B1A1A"></stop></linearGradient></defs><rect fill="url(#colorbar-ykw1am)" height="16" rx="2" width="200" x="0" y="0"></rect><text fill="#555555" font-family="Inter" font-size="9" text-anchor="start" x="0" y="28">Cold</text><text fill="#555555" font-family="Inter" font-size="9" text-anchor="end" x="200" y="28">Hot</text></g></g><text fill="#1A1A1A" font-family="Barlow Condensed" font-size="18" font-weight="bold" text-anchor="middle" x="300" y="690">Kaitlin Quevedo — Shot Frequency &amp; Efficiency</text></svg>