<?xml version="1.0" encoding="UTF-8"?>
<svg height="700" width="600" xmlns="http://www.w3.org/2000/svg"><svg height="600" style="display:block" viewBox="0 0 600 600" width="600"><defs><clipPath id="court-clip-ncvl6jo"><rect height="479.0728921733289" width="442.19012428619413" x="78.90493785690292" y="60.46355391333555"></rect></clipPath><filter id="court-shadow" x="-5%" y="-5%" width="110%" height="110%"><feDropShadow dx="0" dy="2" flood-color="#000000" flood-opacity="0.15" stdDeviation="3"></feDropShadow></filter></defs><rect fill="#F5F0E8" height="600" width="600" x="0" y="0"></rect><g><rect fill="#B0663C" height="600" width="563.1172321128653" x="18.441383943567345" y="-2.1316282072803006e-14"></rect><rect fill="#C97B4E" filter="url(#court-shadow)" height="479.0728921733289" width="442.19012428619413" x="78.90493785690292" y="60.46355391333555"></rect><g><rect fill="#E0A87E" height="221.09506214309715" width="331.7433658045012" x="134.1283170977494" y="60.46355391333555"></rect></g><g fill="none" stroke="#FFFFFF" stroke-width="2"><line x1="78.90493785690292" x2="78.90493785690292" y1="539.5364460866645" y2="60.46355391333555"></line><line x1="521.095062143097" x2="521.095062143097" y1="539.5364460866645" y2="60.46355391333555"></line><line x1="134.1283170977494" x2="134.1283170977494" y1="539.5364460866645" y2="60.46355391333555"></line><line x1="465.8716829022506" x2="465.8716829022506" y1="539.5364460866645" y2="60.46355391333555"></line><line x1="134.1283170977494" x2="465.8716829022506" y1="281.5586160564327" y2="281.5586160564327"></line><line x1="300" x2="300" y1="281.5586160564327" y2="60.46355391333555"></line></g><g fill="none" stroke="#FFFFFF" stroke-width="3"><line x1="78.90493785690292" x2="521.095062143097" y1="539.5364460866645" y2="539.5364460866645"></line><line x1="287.90728921733285" x2="312.0927107826671" y1="539.5364460866645" y2="539.5364460866645"></line></g><g fill="none" stroke="#FFFFFF" stroke-dasharray="6 4" stroke-width="2.5"><line x1="66.81222707423582" x2="533.1877729257641" y1="60.46355391333555" y2="60.46355391333555"></line></g><g clip-path="url(#court-clip-ncvl6jo)"><g><g><polygon fill="none" opacity="0.51" points="172.35070635518585,404.45244948098514 151.1015038835473,416.72068224805054 151.10150388354728,441.2571477821813 172.35070635518585,453.5253805492466 193.5999088268244,441.2571477821813 193.5999088268244,416.72068224805054" stroke="#FAF6EE" stroke-width="2.5"></polygon><polygon fill="rgb(100, 136, 196)" opacity="0.85" points="172.35070635518585,404.45244948098514 151.1015038835473,416.72068224805054 151.10150388354728,441.2571477821813 172.35070635518585,453.5253805492466 193.5999088268244,441.2571477821813 193.5999088268244,416.72068224805054" stroke="#1A1A1A" stroke-width="0.5"></polygon><text dominant-baseline="middle" fill="#FAF6EE" font-family="Oswald, Arial Narrow, sans-serif" font-size="10" font-weight="700" text-anchor="middle" x="172.35070635518585" y="428.98891501511594">6</text></g><g><polygon fill="none" opacity="0.51" points="204.2630297663894,340.2732129766063 175.30146320327452,356.9941812279739 175.3014632032745,390.4361177307092 204.2630297663894,407.1570859820768 233.22459632950424,390.43611773070927 233.22459632950427,356.99418122797397" stroke="#FAF6EE" stroke-width="2.5"></polygon><polygon fill="rgb(232, 116, 44)" opacity="0.85" points="204.2630297663894,340.2732129766063 175.30146320327452,356.9941812279739 175.3014632032745,390.4361177307092 204.2630297663894,407.1570859820768 233.22459632950424,390.43611773070927 233.22459632950427,356.99418122797397" stroke="#1A1A1A" stroke-width="0.5"></polygon><text dominant-baseline="middle" fill="#FAF6EE" font-family="Oswald, Arial Narrow, sans-serif" font-size="10" font-weight="700" text-anchor="middle" x="204.2630297663894" y="373.7151494793416">15</text></g><g><polygon fill="none" opacity="0.51" points="172.35070635518585,286.6725203203661 144.83806340813032,302.55695213196674 144.83806340813032,334.3258157551679 172.35070635518585,350.2102475667685 199.86334930224143,334.3258157551679 199.86334930224146,302.55695213196685" stroke="#FAF6EE" stroke-width="2.5"></polygon><polygon fill="rgb(232, 140, 80)" opacity="0.85" points="172.35070635518585,286.6725203203661 144.83806340813032,302.55695213196674 144.83806340813032,334.3258157551679 172.35070635518585,350.2102475667685 199.86334930224143,334.3258157551679 199.86334930224146,302.55695213196685" stroke="#1A1A1A" stroke-width="0.5"></polygon><text dominant-baseline="middle" fill="#FAF6EE" font-family="Oswald, Arial Narrow, sans-serif" font-size="10" font-weight="700" text-anchor="middle" x="172.35070635518585" y="318.4413839435673">13</text></g><g><polygon fill="none" opacity="0.51" points="236.1753531775929,405.7876302856108 216.08245120140558,417.3882726503633 216.08245120140558,440.58955737986844 236.1753531775929,452.19019974462094 256.2682551537802,440.58955737986844 256.2682551537803,417.3882726503634" stroke="#FAF6EE" stroke-width="2.5"></polygon><polygon fill="rgb(43, 77, 140)" opacity="0.85" points="236.1753531775929,405.7876302856108 216.08245120140558,417.3882726503633 216.08245120140558,440.58955737986844 236.1753531775929,452.19019974462094 256.2682551537802,440.58955737986844 256.2682551537803,417.3882726503634" stroke="#1A1A1A" stroke-width="0.5"></polygon><text dominant-baseline="middle" fill="#FAF6EE" font-family="Oswald, Arial Narrow, sans-serif" font-size="10" font-weight="700" text-anchor="middle" x="236.1753531775929" y="428.98891501511594">5</text></g><g><polygon fill="none" opacity="0.51" points="459.56161705601755,466.20297188236935 443.9214505641325,475.23282621662975 443.9214505641325,493.29253488515053 459.56161705601755,502.3223892194109 475.2017835479027,493.29253488515053 475.2017835479027,475.23282621662975" stroke="#FAF6EE" stroke-width="2.5"></polygon><polygon fill="rgb(139, 26, 26)" opacity="0.85" points="459.56161705601755,466.20297188236935 443.9214505641325,475.23282621662975 443.9214505641325,493.29253488515053 459.56161705601755,502.3223892194109 475.2017835479027,493.29253488515053 475.2017835479027,475.23282621662975" stroke="#1A1A1A" stroke-width="0.5"></polygon></g><g><polygon fill="none" opacity="0.51" points="427.64929364481407,405.7876302856108 407.5563916686267,417.3882726503633 407.5563916686267,440.58955737986844 427.64929364481407,452.19019974462094 447.7421956210014,440.58955737986844 447.7421956210014,417.3882726503634" stroke="#FAF6EE" stroke-width="2.5"></polygon><polygon fill="rgb(139, 26, 26)" opacity="0.85" points="427.64929364481407,405.7876302856108 407.5563916686267,417.3882726503633 407.5563916686267,440.58955737986844 427.64929364481407,452.19019974462094 447.7421956210014,440.58955737986844 447.7421956210014,417.3882726503634" stroke="#1A1A1A" stroke-width="0.5"></polygon><text dominant-baseline="middle" fill="#FAF6EE" font-family="Oswald, Arial Narrow, sans-serif" font-size="10" font-weight="700" text-anchor="middle" x="427.64929364481407" y="428.98891501511594">5</text></g><g><polygon fill="none" opacity="0.51" points="204.2630297663894,456.28218611366475 180.03121077330303,470.27243333227744 180.03121077330303,498.25292776950283 204.2630297663894,512.2431749881156 228.49484875947573,498.2529277695029 228.49484875947573,470.2724333322775" stroke="#FAF6EE" stroke-width="2.5"></polygon><polygon fill="rgb(208, 93, 39)" opacity="0.85" points="204.2630297663894,456.28218611366475 180.03121077330303,470.27243333227744 180.03121077330303,498.25292776950283 204.2630297663894,512.2431749881156 228.49484875947573,498.2529277695029 228.49484875947573,470.2724333322775" stroke="#1A1A1A" stroke-width="0.5"></polygon><text dominant-baseline="middle" fill="#FAF6EE" font-family="Oswald, Arial Narrow, sans-serif" font-size="10" font-weight="700" text-anchor="middle" x="204.2630297663894" y="484.26268055089014">9</text></g><g><polygon fill="none" opacity="0.51" points="300,410.92920634659504 284.3598335081149,419.9590606808555 284.3598335081149,438.0187693493763 300,447.0486236836367 315.64016649188505,438.0187693493763 315.64016649188505,419.9590606808555" stroke="#FAF6EE" stroke-width="2.5"></polygon><polygon fill="rgb(232, 220, 200)" opacity="0.85" points="300,410.92920634659504 284.3598335081149,419.9590606808555 284.3598335081149,438.0187693493763 300,447.0486236836367 315.64016649188505,438.0187693493763 315.64016649188505,419.9590606808555" stroke="#1A1A1A" stroke-width="0.5"></polygon></g><g><polygon fill="none" opacity="0.51" points="395.7369702336105,341.09479694182096 367.48691625571354,357.40497321058126 367.4869162557134,390.0253257481019 395.7369702336105,406.33550201686216 423.9870242115076,390.0253257481019 423.9870242115077,357.40497321058126" stroke="#FAF6EE" stroke-width="2.5"></polygon><polygon fill="rgb(232, 116, 44)" opacity="0.85" points="395.7369702336105,341.09479694182096 367.48691625571354,357.40497321058126 367.4869162557134,390.0253257481019 395.7369702336105,406.33550201686216 423.9870242115076,390.0253257481019 423.9870242115077,357.40497321058126" stroke="#1A1A1A" stroke-width="0.5"></polygon><text dominant-baseline="middle" fill="#FAF6EE" font-family="Oswald, Arial Narrow, sans-serif" font-size="10" font-weight="700" text-anchor="middle" x="395.7369702336105" y="373.7151494793416">14</text></g><g><polygon fill="none" opacity="0.51" points="300,-258.8327369483062 278.7507975283614,-246.5645041812408 278.7507975283614,-222.02803864711004 300,-209.75980588004464 321.24920247163857,-222.02803864711004 321.24920247163857,-246.5645041812408" stroke="#FAF6EE" stroke-width="2.5"></polygon><polygon fill="rgb(100, 136, 196)" opacity="0.85" points="300,-258.8327369483062 278.7507975283614,-246.5645041812408 278.7507975283614,-222.02803864711004 300,-209.75980588004464 321.24920247163857,-222.02803864711004 321.24920247163857,-246.5645041812408" stroke="#1A1A1A" stroke-width="0.5"></polygon><text dominant-baseline="middle" fill="#FAF6EE" font-family="Oswald, Arial Narrow, sans-serif" font-size="10" font-weight="700" text-anchor="middle" x="300" y="-234.2962714141754">6</text></g><g><polygon fill="none" opacity="0.51" points="268.08767658879646,-429.11328232905265 242.97665139757845,-414.6154251752754 242.9766513975784,-385.619710867721 268.08767658879646,-371.1218537139437 293.1987017800145,-385.619710867721 293.1987017800145,-414.6154251752754" stroke="#FAF6EE" stroke-width="2.5"></polygon><polygon fill="rgb(232, 151, 96)" opacity="0.85" points="268.08767658879646,-429.11328232905265 242.97665139757845,-414.6154251752754 242.9766513975784,-385.619710867721 268.08767658879646,-371.1218537139437 293.1987017800145,-385.619710867721 293.1987017800145,-414.6154251752754" stroke="#1A1A1A" stroke-width="0.5"></polygon><text dominant-baseline="middle" fill="#FAF6EE" font-family="Oswald, Arial Narrow, sans-serif" font-size="10" font-weight="700" text-anchor="middle" x="268.08767658879646" y="-400.11756802149824">10</text></g><g><polygon fill="none" opacity="0.51" points="395.7369702336105,-435.1242861941552 365.42026299296714,-417.62092710782673 365.42026299296714,-382.61420893516964 395.7369702336105,-365.11084984884127 426.0536774742539,-382.61420893516964 426.05367747425396,-417.6209271078266" stroke="#FAF6EE" stroke-width="2.5"></polygon><polygon fill="rgb(109, 145, 203)" opacity="0.85" points="395.7369702336105,-435.1242861941552 365.42026299296714,-417.62092710782673 365.42026299296714,-382.61420893516964 395.7369702336105,-365.11084984884127 426.0536774742539,-382.61420893516964 426.05367747425396,-417.6209271078266" stroke="#1A1A1A" stroke-width="0.5"></polygon><text dominant-baseline="middle" fill="#FAF6EE" font-family="Oswald, Arial Narrow, sans-serif" font-size="10" font-weight="700" text-anchor="middle" x="395.7369702336105" y="-400.11756802149824">17</text></g><g><polygon fill="none" opacity="0.51" points="331.91232341120354,-433.55950452423355 302.9507568480886,-416.8385362728659 302.9507568480886,-383.3965997701306 331.91232341120354,-366.67563151876294 360.87388997431833,-383.3965997701306 360.87388997431833,-416.8385362728659" stroke="#FAF6EE" stroke-width="2.5"></polygon><polygon fill="rgb(204, 203, 201)" opacity="0.85" points="331.91232341120354,-433.55950452423355 302.9507568480886,-416.8385362728659 302.9507568480886,-383.3965997701306 331.91232341120354,-366.67563151876294 360.87388997431833,-383.3965997701306 360.87388997431833,-416.8385362728659" stroke="#1A1A1A" stroke-width="0.5"></polygon><text dominant-baseline="middle" fill="#FAF6EE" font-family="Oswald, Arial Narrow, sans-serif" font-size="10" font-weight="700" text-anchor="middle" x="331.91232341120354" y="-400.11756802149824">15</text></g><g><polygon fill="none" opacity="0.51" points="395.7369702336105,-207.00300031562645 371.5051512405242,-193.0127530970138 371.5051512405242,-165.0322586597884 395.7369702336105,-151.04201144117576 419.96878922669697,-165.0322586597884 419.96878922669697,-193.0127530970138" stroke="#FAF6EE" stroke-width="2.5"></polygon><polygon fill="rgb(232, 116, 44)" opacity="0.85" points="395.7369702336105,-207.00300031562645 371.5051512405242,-193.0127530970138 371.5051512405242,-165.0322586597884 395.7369702336105,-151.04201144117576 419.96878922669697,-165.0322586597884 419.96878922669697,-193.0127530970138" stroke="#1A1A1A" stroke-width="0.5"></polygon><text dominant-baseline="middle" fill="#FAF6EE" font-family="Oswald, Arial Narrow, sans-serif" font-size="10" font-weight="700" text-anchor="middle" x="395.7369702336105" y="-179.02250587840118">9</text></g><g><polygon fill="none" opacity="0.51" points="363.8246468224071,-370.60809348698615 341.5121163048192,-357.7259479863551 341.5121163048192,-331.96165698509293 363.8246468224071,-319.07951148446176 386.1371773399948,-331.9616569850928 386.1371773399948,-357.725947986355" stroke="#FAF6EE" stroke-width="2.5"></polygon><polygon fill="rgb(43, 77, 140)" opacity="0.85" points="363.8246468224071,-370.60809348698615 341.5121163048192,-357.7259479863551 341.5121163048192,-331.96165698509293 363.8246468224071,-319.07951148446176 386.1371773399948,-331.9616569850928 386.1371773399948,-357.725947986355" stroke="#1A1A1A" stroke-width="0.5"></polygon><text dominant-baseline="middle" fill="#FAF6EE" font-family="Oswald, Arial Narrow, sans-serif" font-size="10" font-weight="700" text-anchor="middle" x="363.8246468224071" y="-344.84380248572387">7</text></g><g><polygon fill="none" opacity="0.51" points="204.2630297663894,-421.84199573163585 185.4491234867315,-410.97978187656696 185.44912348673148,-389.25535416642936 204.2630297663894,-378.3931403113605 223.07693604604725,-389.25535416642936 223.07693604604728,-410.97978187656696" stroke="#FAF6EE" stroke-width="2.5"></polygon><polygon fill="rgb(43, 77, 140)" opacity="0.85" points="204.2630297663894,-421.84199573163585 185.4491234867315,-410.97978187656696 185.44912348673148,-389.25535416642936 204.2630297663894,-378.3931403113605 223.07693604604725,-389.25535416642936 223.07693604604728,-410.97978187656696" stroke="#1A1A1A" stroke-width="0.5"></polygon><text dominant-baseline="middle" fill="#FAF6EE" font-family="Oswald, Arial Narrow, sans-serif" font-size="10" font-weight="700" text-anchor="middle" x="204.2630297663894" y="-400.11756802149824">4</text></g><g><polygon fill="none" opacity="0.51" points="331.91232341120354,-208.01822018595558 306.8012982199854,-193.52036303217832 306.8012982199854,-164.52464872462406 331.91232341120354,-150.02679157084663 357.02334860242155,-164.52464872462406 357.0233486024216,-193.52036303217832" stroke="#FAF6EE" stroke-width="2.5"></polygon><polygon fill="rgb(149, 169, 202)" opacity="0.85" points="331.91232341120354,-208.01822018595558 306.8012982199854,-193.52036303217832 306.8012982199854,-164.52464872462406 331.91232341120354,-150.02679157084663 357.02334860242155,-164.52464872462406 357.0233486024216,-193.52036303217832" stroke="#1A1A1A" stroke-width="0.5"></polygon><text dominant-baseline="middle" fill="#FAF6EE" font-family="Oswald, Arial Narrow, sans-serif" font-size="10" font-weight="700" text-anchor="middle" x="331.91232341120354" y="-179.02250587840118">10</text></g><g><polygon fill="none" opacity="0.51" points="268.08767658879646,-208.01822018595558 242.97665139757845,-193.52036303217832 242.9766513975784,-164.52464872462406 268.08767658879646,-150.02679157084663 293.1987017800145,-164.52464872462406 293.1987017800145,-193.52036303217832" stroke="#FAF6EE" stroke-width="2.5"></polygon><polygon fill="rgb(149, 169, 202)" opacity="0.85" points="268.08767658879646,-208.01822018595558 242.97665139757845,-193.52036303217832 242.9766513975784,-164.52464872462406 268.08767658879646,-150.02679157084663 293.1987017800145,-164.52464872462406 293.1987017800145,-193.52036303217832" stroke="#1A1A1A" stroke-width="0.5"></polygon><text dominant-baseline="middle" fill="#FAF6EE" font-family="Oswald, Arial Narrow, sans-serif" font-size="10" font-weight="700" text-anchor="middle" x="268.08767658879646" y="-179.02250587840118">10</text></g><g><polygon fill="none" opacity="0.51" points="331.91232341120354,-312.7713216794547 311.8194214350162,-301.17067931470217 311.8194214350162,-277.96939458519716 331.91232341120354,-266.3687522204446 352.0052253873909,-277.96939458519716 352.0052253873909,-301.17067931470217" stroke="#FAF6EE" stroke-width="2.5"></polygon><polygon fill="rgb(232, 151, 96)" opacity="0.85" points="331.91232341120354,-312.7713216794547 311.8194214350162,-301.17067931470217 311.8194214350162,-277.96939458519716 331.91232341120354,-266.3687522204446 352.0052253873909,-277.96939458519716 352.0052253873909,-301.17067931470217" stroke="#1A1A1A" stroke-width="0.5"></polygon><text dominant-baseline="middle" fill="#FAF6EE" font-family="Oswald, Arial Narrow, sans-serif" font-size="10" font-weight="700" text-anchor="middle" x="331.91232341120354" y="-289.57003694994967">5</text></g><g><polygon fill="none" opacity="0.51" points="236.1753531775929,-372.8242969229493 211.94353418450655,-358.8340497043367 211.94353418450655,-330.85355526711123 236.1753531775929,-316.8633080484986 260.4071721706793,-330.85355526711123 260.4071721706793,-358.8340497043367" stroke="#FAF6EE" stroke-width="2.5"></polygon><polygon fill="rgb(232, 116, 44)" opacity="0.85" points="236.1753531775929,-372.8242969229493 211.94353418450655,-358.8340497043367 211.94353418450655,-330.85355526711123 236.1753531775929,-316.8633080484986 260.4071721706793,-330.85355526711123 260.4071721706793,-358.8340497043367" stroke="#1A1A1A" stroke-width="0.5"></polygon><text dominant-baseline="middle" fill="#FAF6EE" font-family="Oswald, Arial Narrow, sans-serif" font-size="10" font-weight="700" text-anchor="middle" x="236.1753531775929" y="-344.84380248572387">9</text></g><g><polygon fill="none" opacity="0.51" points="395.7369702336105,-317.55053138717506 371.5051512405242,-303.5602841685624 371.5051512405242,-275.57978973133703 395.7369702336105,-261.5895425127244 419.96878922669697,-275.57978973133703 419.96878922669697,-303.5602841685624" stroke="#FAF6EE" stroke-width="2.5"></polygon><polygon fill="rgb(100, 136, 196)" opacity="0.85" points="395.7369702336105,-317.55053138717506 371.5051512405242,-303.5602841685624 371.5051512405242,-275.57978973133703 395.7369702336105,-261.5895425127244 419.96878922669697,-275.57978973133703 419.96878922669697,-303.5602841685624" stroke="#1A1A1A" stroke-width="0.5"></polygon><text dominant-baseline="middle" fill="#FAF6EE" font-family="Oswald, Arial Narrow, sans-serif" font-size="10" font-weight="700" text-anchor="middle" x="395.7369702336105" y="-289.57003694994967">9</text></g><g><polygon fill="none" opacity="0.51" points="204.2630297663894,-197.082214546922 188.62286327450434,-188.0523602126616 188.62286327450434,-169.99265154414078 204.2630297663894,-160.9627972098804 219.90319625827442,-169.99265154414078 219.90319625827448,-188.0523602126616" stroke="#FAF6EE" stroke-width="2.5"></polygon><polygon fill="rgb(232, 220, 200)" opacity="0.85" points="204.2630297663894,-197.082214546922 188.62286327450434,-188.0523602126616 188.62286327450434,-169.99265154414078 204.2630297663894,-160.9627972098804 219.90319625827442,-169.99265154414078 219.90319625827448,-188.0523602126616" stroke="#1A1A1A" stroke-width="0.5"></polygon></g><g><polygon fill="none" opacity="0.51" points="427.64929364481407,-375.7277475954002 400.90301261075024,-360.28577504056216 400.90301261075024,-329.4018299308857 427.64929364481407,-313.9598573760477 454.395574678878,-329.4018299308857 454.395574678878,-360.28577504056216" stroke="#FAF6EE" stroke-width="2.5"></polygon><polygon fill="rgb(232, 220, 200)" opacity="0.85" points="427.64929364481407,-375.7277475954002 400.90301261075024,-360.28577504056216 400.90301261075024,-329.4018299308857 427.64929364481407,-313.9598573760477 454.395574678878,-329.4018299308857 454.395574678878,-360.28577504056216" stroke="#1A1A1A" stroke-width="0.5"></polygon><text dominant-baseline="middle" fill="#FAF6EE" font-family="Oswald, Arial Narrow, sans-serif" font-size="10" font-weight="700" text-anchor="middle" x="427.64929364481407" y="-344.84380248572387">12</text></g><g><polygon fill="none" opacity="0.51" points="459.56161705601755,-421.84199573163585 440.7477107763597,-410.97978187656696 440.74771077635967,-389.25535416642936 459.56161705601755,-378.3931403113605 478.37552333567544,-389.25535416642936 478.3755233356755,-410.97978187656696" stroke="#FAF6EE" stroke-width="2.5"></polygon><polygon fill="rgb(232, 116, 44)" opacity="0.85" points="459.56161705601755,-421.84199573163585 440.7477107763597,-410.97978187656696 440.74771077635967,-389.25535416642936 459.56161705601755,-378.3931403113605 478.37552333567544,-389.25535416642936 478.3755233356755,-410.97978187656696" stroke="#1A1A1A" stroke-width="0.5"></polygon><text dominant-baseline="middle" fill="#FAF6EE" font-family="Oswald, Arial Narrow, sans-serif" font-size="10" font-weight="700" text-anchor="middle" x="459.56161705601755" y="-400.11756802149824">4</text></g><g><polygon fill="none" opacity="0.51" points="459.56161705601755,-200.74693358853878 440.7477107763597,-189.88471973347006 440.74771077635967,-168.16029202333232 459.56161705601755,-157.29807816826343 478.37552333567544,-168.16029202333232 478.3755233356755,-189.88471973347006" stroke="#FAF6EE" stroke-width="2.5"></polygon><polygon fill="rgb(232, 116, 44)" opacity="0.85" points="459.56161705601755,-200.74693358853878 440.7477107763597,-189.88471973347006 440.74771077635967,-168.16029202333232 459.56161705601755,-157.29807816826343 478.37552333567544,-168.16029202333232 478.3755233356755,-189.88471973347006" stroke="#1A1A1A" stroke-width="0.5"></polygon><text dominant-baseline="middle" fill="#FAF6EE" font-family="Oswald, Arial Narrow, sans-serif" font-size="10" font-weight="700" text-anchor="middle" x="459.56161705601755" y="-179.02250587840118">4</text></g><g><polygon fill="none" opacity="0.51" points="236.1753531775929,-31.260917939599153 220.53518668570786,-22.23106360533862 220.53518668570786,-4.17135493681795 236.1753531775929,4.858499397442584 251.815519669478,-4.17135493681795 251.815519669478,-22.23106360533862" stroke="#FAF6EE" stroke-width="2.5"></polygon><polygon fill="rgb(232, 220, 200)" opacity="0.85" points="236.1753531775929,-31.260917939599153 220.53518668570786,-22.23106360533862 220.53518668570786,-4.17135493681795 236.1753531775929,4.858499397442584 251.815519669478,-4.17135493681795 251.815519669478,-22.23106360533862" stroke="#1A1A1A" stroke-width="0.5"></polygon></g><g><polygon fill="none" opacity="0.51" points="363.8246468224071,-256.0206991243132 345.01074054274915,-245.1584852692443 345.01074054274915,-223.43405755910655 363.8246468224071,-212.5718437040377 382.63855310206486,-223.43405755910655 382.638553102065,-245.1584852692443" stroke="#FAF6EE" stroke-width="2.5"></polygon><polygon fill="rgb(232, 220, 200)" opacity="0.85" points="363.8246468224071,-256.0206991243132 345.01074054274915,-245.1584852692443 345.01074054274915,-223.43405755910655 363.8246468224071,-212.5718437040377 382.63855310206486,-223.43405755910655 382.638553102065,-245.1584852692443" stroke="#1A1A1A" stroke-width="0.5"></polygon><text dominant-baseline="middle" fill="#FAF6EE" font-family="Oswald, Arial Narrow, sans-serif" font-size="10" font-weight="700" text-anchor="middle" x="363.8246468224071" y="-234.2962714141754">4</text></g><g><polygon fill="none" opacity="0.51" points="236.1753531775929,79.28661313194938 220.53518668570786,88.31646746620984 220.53518668570786,106.37617613473066 236.1753531775929,115.40603046899112 251.815519669478,106.37617613473066 251.815519669478,88.31646746620984" stroke="#FAF6EE" stroke-width="2.5"></polygon><polygon fill="rgb(139, 26, 26)" opacity="0.85" points="236.1753531775929,79.28661313194938 220.53518668570786,88.31646746620984 220.53518668570786,106.37617613473066 236.1753531775929,115.40603046899112 251.815519669478,106.37617613473066 251.815519669478,88.31646746620984" stroke="#1A1A1A" stroke-width="0.5"></polygon></g><g><polygon fill="none" opacity="0.51" points="204.2630297663894,-315.3343279512118 181.95049924880155,-302.45218245058084 181.95049924880155,-276.6878914493187 204.2630297663894,-263.8057459486875 226.57556028397718,-276.68789144931856 226.5755602839772,-302.4521824505807" stroke="#FAF6EE" stroke-width="2.5"></polygon><polygon fill="rgb(172, 183, 201)" opacity="0.85" points="204.2630297663894,-315.3343279512118 181.95049924880155,-302.45218245058084 181.95049924880155,-276.6878914493187 204.2630297663894,-263.8057459486875 226.57556028397718,-276.68789144931856 226.5755602839772,-302.4521824505807" stroke="#1A1A1A" stroke-width="0.5"></polygon><text dominant-baseline="middle" fill="#FAF6EE" font-family="Oswald, Arial Narrow, sans-serif" font-size="10" font-weight="700" text-anchor="middle" x="204.2630297663894" y="-289.57003694994967">7</text></g><g><polygon fill="none" opacity="0.51" points="140.43838294398236,-203.55897141253197 119.18918047234379,-191.29073864546658 119.18918047234379,-166.7542731113358 140.43838294398236,-154.4860403442704 161.6875854156209,-166.7542731113358 161.68758541562093,-191.29073864546658" stroke="#FAF6EE" stroke-width="2.5"></polygon><polygon fill="rgb(232, 116, 44)" opacity="0.85" points="140.43838294398236,-203.55897141253197 119.18918047234379,-191.29073864546658 119.18918047234379,-166.7542731113358 140.43838294398236,-154.4860403442704 161.6875854156209,-166.7542731113358 161.68758541562093,-191.29073864546658" stroke="#1A1A1A" stroke-width="0.5"></polygon><text dominant-baseline="middle" fill="#FAF6EE" font-family="Oswald, Arial Narrow, sans-serif" font-size="10" font-weight="700" text-anchor="middle" x="140.43838294398236" y="-179.02250587840118">6</text></g><g><polygon fill="none" opacity="0.51" points="427.64929364481407,-256.0206991243132 408.8353873651561,-245.1584852692443 408.8353873651561,-223.43405755910655 427.64929364481407,-212.5718437040377 446.46319992447195,-223.43405755910655 446.46319992447195,-245.1584852692443" stroke="#FAF6EE" stroke-width="2.5"></polygon><polygon fill="rgb(64, 99, 161)" opacity="0.85" points="427.64929364481407,-256.0206991243132 408.8353873651561,-245.1584852692443 408.8353873651561,-223.43405755910655 427.64929364481407,-212.5718437040377 446.46319992447195,-223.43405755910655 446.46319992447195,-245.1584852692443" stroke="#1A1A1A" stroke-width="0.5"></polygon><text dominant-baseline="middle" fill="#FAF6EE" font-family="Oswald, Arial Narrow, sans-serif" font-size="10" font-weight="700" text-anchor="middle" x="427.64929364481407" y="-234.2962714141754">4</text></g><g><polygon fill="none" opacity="0.51" points="268.08767658879646,350.5138647498365 247.99477461260915,362.11450711458906 247.99477461260912,385.3157918440941 268.08767658879646,396.9164342088467 288.18057856498376,385.3157918440942 288.18057856498376,362.11450711458906" stroke="#FAF6EE" stroke-width="2.5"></polygon><polygon fill="rgb(232, 151, 96)" opacity="0.85" points="268.08767658879646,350.5138647498365 247.99477461260915,362.11450711458906 247.99477461260912,385.3157918440941 268.08767658879646,396.9164342088467 288.18057856498376,385.3157918440942 288.18057856498376,362.11450711458906" stroke="#1A1A1A" stroke-width="0.5"></polygon><text dominant-baseline="middle" fill="#FAF6EE" font-family="Oswald, Arial Narrow, sans-serif" font-size="10" font-weight="700" text-anchor="middle" x="268.08767658879646" y="373.7151494793416">5</text></g><g><polygon fill="none" opacity="0.51" points="331.91232341120354,464.2145608680708 314.55014246777114,474.2386207094805 314.55014246777114,494.2867403922998 331.91232341120354,504.31080023370953 349.2745043546359,494.2867403922998 349.2745043546359,474.2386207094805" stroke="#FAF6EE" stroke-width="2.5"></polygon><polygon fill="rgb(139, 26, 26)" opacity="0.85" points="331.91232341120354,464.2145608680708 314.55014246777114,474.2386207094805 314.55014246777114,494.2867403922998 331.91232341120354,504.31080023370953 349.2745043546359,494.2867403922998 349.2745043546359,474.2386207094805" stroke="#1A1A1A" stroke-width="0.5"></polygon></g><g><polygon fill="none" opacity="0.51" points="427.64929364481407,295.2400992140623 407.5563916686267,306.8407415788148 407.5563916686267,330.0420263083198 427.64929364481407,341.6426686730723 447.7421956210014,330.0420263083199 447.7421956210014,306.8407415788148" stroke="#FAF6EE" stroke-width="2.5"></polygon><polygon fill="rgb(139, 26, 26)" opacity="0.85" points="427.64929364481407,295.2400992140623 407.5563916686267,306.8407415788148 407.5563916686267,330.0420263083198 427.64929364481407,341.6426686730723 447.7421956210014,330.0420263083199 447.7421956210014,306.8407415788148" stroke="#1A1A1A" stroke-width="0.5"></polygon><text dominant-baseline="middle" fill="#FAF6EE" font-family="Oswald, Arial Narrow, sans-serif" font-size="10" font-weight="700" text-anchor="middle" x="427.64929364481407" y="318.4413839435673">5</text></g><g><polygon fill="none" opacity="0.51" points="363.8246468224071,295.2400992140623 343.7317448462197,306.8407415788148 343.7317448462197,330.0420263083198 363.8246468224071,341.6426686730723 383.91754879859434,330.0420263083199 383.91754879859434,306.8407415788148" stroke="#FAF6EE" stroke-width="2.5"></polygon><polygon fill="rgb(232, 151, 96)" opacity="0.85" points="363.8246468224071,295.2400992140623 343.7317448462197,306.8407415788148 343.7317448462197,330.0420263083198 363.8246468224071,341.6426686730723 383.91754879859434,330.0420263083199 383.91754879859434,306.8407415788148" stroke="#1A1A1A" stroke-width="0.5"></polygon><text dominant-baseline="middle" fill="#FAF6EE" font-family="Oswald, Arial Narrow, sans-serif" font-size="10" font-weight="700" text-anchor="middle" x="363.8246468224071" y="318.4413839435673">5</text></g><g><polygon fill="none" opacity="0.51" points="459.56161705601755,355.6554408108207 443.9214505641325,364.68529514508117 443.9214505641325,382.745003813602 459.56161705601755,391.7748581478624 475.2017835479027,382.745003813602 475.2017835479027,364.6852951450812" stroke="#FAF6EE" stroke-width="2.5"></polygon><polygon fill="rgb(139, 26, 26)" opacity="0.85" points="459.56161705601755,355.6554408108207 443.9214505641325,364.68529514508117 443.9214505641325,382.745003813602 459.56161705601755,391.7748581478624 475.2017835479027,382.745003813602 475.2017835479027,364.6852951450812" stroke="#1A1A1A" stroke-width="0.5"></polygon></g><g><polygon fill="none" opacity="0.51" points="300,296.71695623342964 281.18609372034217,307.5791700884985 281.18609372034217,329.3035977986362 300,340.1658116537051 318.81390627965783,329.3035977986362 318.81390627965783,307.57917008849853" stroke="#FAF6EE" stroke-width="2.5"></polygon><polygon fill="rgb(232, 220, 200)" opacity="0.85" points="300,296.71695623342964 281.18609372034217,307.5791700884985 281.18609372034217,329.3035977986362 300,340.1658116537051 318.81390627965783,329.3035977986362 318.81390627965783,307.57917008849853" stroke="#1A1A1A" stroke-width="0.5"></polygon><text dominant-baseline="middle" fill="#FAF6EE" font-family="Oswald, Arial Narrow, sans-serif" font-size="10" font-weight="700" text-anchor="middle" x="300" y="318.4413839435673">4</text></g><g><polygon fill="none" opacity="0.51" points="236.1753531775929,291.53426086248805 212.87310104662367,304.98782240302774 212.87310104662367,331.8949454841069 236.1753531775929,345.3485070246466 259.4776053085622,331.8949454841069 259.4776053085622,304.98782240302774" stroke="#FAF6EE" stroke-width="2.5"></polygon><polygon fill="rgb(232, 220, 200)" opacity="0.85" points="236.1753531775929,291.53426086248805 212.87310104662367,304.98782240302774 212.87310104662367,331.8949454841069 236.1753531775929,345.3485070246466 259.4776053085622,331.8949454841069 259.4776053085622,304.98782240302774" stroke="#1A1A1A" stroke-width="0.5"></polygon><text dominant-baseline="middle" fill="#FAF6EE" font-family="Oswald, Arial Narrow, sans-serif" font-size="10" font-weight="700" text-anchor="middle" x="236.1753531775929" y="318.4413839435673">8</text></g><g><polygon fill="none" opacity="0.51" points="204.2630297663894,239.96633367828807 184.17012779020206,251.56697604304057 184.17012779020206,274.7682607725456 204.2630297663894,286.3689031372981 224.3559317425767,274.7682607725456 224.3559317425767,251.56697604304057" stroke="#FAF6EE" stroke-width="2.5"></polygon><polygon fill="rgb(232, 151, 96)" opacity="0.85" points="204.2630297663894,239.96633367828807 184.17012779020206,251.56697604304057 184.17012779020206,274.7682607725456 204.2630297663894,286.3689031372981 224.3559317425767,274.7682607725456 224.3559317425767,251.56697604304057" stroke="#1A1A1A" stroke-width="0.5"></polygon><text dominant-baseline="middle" fill="#FAF6EE" font-family="Oswald, Arial Narrow, sans-serif" font-size="10" font-weight="700" text-anchor="middle" x="204.2630297663894" y="263.1676184077931">5</text></g><g><polygon fill="none" opacity="0.51" points="331.91232341120354,355.6554408108207 316.27215691931843,364.68529514508117 316.27215691931843,382.745003813602 331.91232341120354,391.7748581478624 347.5524899030886,382.745003813602 347.5524899030886,364.6852951450812" stroke="#FAF6EE" stroke-width="2.5"></polygon><polygon fill="rgb(139, 26, 26)" opacity="0.85" points="331.91232341120354,355.6554408108207 316.27215691931843,364.68529514508117 316.27215691931843,382.745003813602 331.91232341120354,391.7748581478624 347.5524899030886,382.745003813602 347.5524899030886,364.6852951450812" stroke="#1A1A1A" stroke-width="0.5"></polygon></g><g><polygon fill="none" opacity="0.51" points="268.08767658879646,-309.618156632769 250.72549564536408,-299.59409679135933 250.72549564536408,-279.54597710853994 268.08767658879646,-269.5219172671303 285.4498575322288,-279.54597710853994 285.4498575322288,-299.59409679135933" stroke="#FAF6EE" stroke-width="2.5"></polygon><polygon fill="rgb(232, 116, 44)" opacity="0.85" points="268.08767658879646,-309.618156632769 250.72549564536408,-299.59409679135933 250.72549564536408,-279.54597710853994 268.08767658879646,-269.5219172671303 285.4498575322288,-279.54597710853994 285.4498575322288,-299.59409679135933" stroke="#1A1A1A" stroke-width="0.5"></polygon></g><g><polygon fill="none" opacity="0.51" points="395.7369702336105,464.2145608680708 378.3747892901781,474.2386207094805 378.3747892901781,494.2867403922998 395.7369702336105,504.31080023370953 413.099151177043,494.2867403922998 413.099151177043,474.2386207094805" stroke="#FAF6EE" stroke-width="2.5"></polygon><polygon fill="rgb(232, 116, 44)" opacity="0.85" points="395.7369702336105,464.2145608680708 378.3747892901781,474.2386207094805 378.3747892901781,494.2867403922998 395.7369702336105,504.31080023370953 413.099151177043,494.2867403922998 413.099151177043,474.2386207094805" stroke="#1A1A1A" stroke-width="0.5"></polygon></g><g><polygon fill="none" opacity="0.51" points="363.8246468224071,407.26448730497816 345.01074054274915,418.126701160047 345.01074054274915,439.85112887018477 363.8246468224071,450.7133427252536 382.63855310206486,439.85112887018477 382.638553102065,418.12670116004705" stroke="#FAF6EE" stroke-width="2.5"></polygon><polygon fill="rgb(232, 220, 200)" opacity="0.85" points="363.8246468224071,407.26448730497816 345.01074054274915,418.126701160047 345.01074054274915,439.85112887018477 363.8246468224071,450.7133427252536 382.63855310206486,439.85112887018477 382.638553102065,418.12670116004705" stroke="#1A1A1A" stroke-width="0.5"></polygon><text dominant-baseline="middle" fill="#FAF6EE" font-family="Oswald, Arial Narrow, sans-serif" font-size="10" font-weight="700" text-anchor="middle" x="363.8246468224071" y="428.98891501511594">4</text></g><g><polygon fill="none" opacity="0.51" points="300,-371.75092556680323 276.6977478690307,-358.2973640262636 276.69774786903065,-331.3902409451843 300,-317.9366794046447 323.3022521309692,-331.3902409451843 323.3022521309693,-358.2973640262636" stroke="#FAF6EE" stroke-width="2.5"></polygon><polygon fill="rgb(232, 133, 70)" opacity="0.85" points="300,-371.75092556680323 276.6977478690307,-358.2973640262636 276.69774786903065,-331.3902409451843 300,-317.9366794046447 323.3022521309692,-331.3902409451843 323.3022521309693,-358.2973640262636" stroke="#1A1A1A" stroke-width="0.5"></polygon><text dominant-baseline="middle" fill="#FAF6EE" font-family="Oswald, Arial Narrow, sans-serif" font-size="10" font-weight="700" text-anchor="middle" x="300" y="-344.84380248572387">8</text></g><g><polygon fill="none" opacity="0.51" points="236.1753531775929,-252.35598008269622 220.53518668570786,-243.32612574843583 220.53518668570786,-225.26641707991502 236.1753531775929,-216.23656274565462 251.815519669478,-225.26641707991502 251.815519669478,-243.32612574843583" stroke="#FAF6EE" stroke-width="2.5"></polygon><polygon fill="rgb(139, 26, 26)" opacity="0.85" points="236.1753531775929,-252.35598008269622 220.53518668570786,-243.32612574843583 220.53518668570786,-225.26641707991502 236.1753531775929,-216.23656274565462 251.815519669478,-225.26641707991502 251.815519669478,-243.32612574843583" stroke="#1A1A1A" stroke-width="0.5"></polygon></g><g><polygon fill="none" opacity="0.51" points="268.08767658879646,466.20297188236935 252.44751009691137,475.23282621662975 252.44751009691137,493.29253488515053 268.08767658879646,502.3223892194109 283.7278430806815,493.29253488515053 283.72784308068157,475.23282621662975" stroke="#FAF6EE" stroke-width="2.5"></polygon><polygon fill="rgb(139, 26, 26)" opacity="0.85" points="268.08767658879646,466.20297188236935 252.44751009691137,475.23282621662975 252.44751009691137,493.29253488515053 268.08767658879646,502.3223892194109 283.7278430806815,493.29253488515053 283.72784308068157,475.23282621662975" stroke="#1A1A1A" stroke-width="0.5"></polygon></g><g><polygon fill="none" opacity="0.51" points="331.91232341120354,243.1194987249737 314.55014246777114,253.1435585663834 314.55014246777114,273.19167824920277 331.91232341120354,283.21573809061243 349.2745043546359,273.19167824920277 349.2745043546359,253.1435585663834" stroke="#FAF6EE" stroke-width="2.5"></polygon><polygon fill="rgb(232, 116, 44)" opacity="0.85" points="331.91232341120354,243.1194987249737 314.55014246777114,253.1435585663834 314.55014246777114,273.19167824920277 331.91232341120354,283.21573809061243 349.2745043546359,273.19167824920277 349.2745043546359,253.1435585663834" stroke="#1A1A1A" stroke-width="0.5"></polygon></g></g></g></g></svg><g transform="translate(200, 640)"><g><defs><linearGradient id="colorbar-18zl3m" x1="0%" x2="100%" y1="0%" y2="0%"><stop offset="0%" stop-color="#2B4D8C"></stop><stop offset="20%" stop-color="#2B4D8C"></stop><stop offset="35%" stop-color="#6B8FCB"></stop><stop offset="50%" stop-color="#E8DCC8"></stop><stop offset="65%" stop-color="#E8742C"></stop><stop offset="85%" stop-color="#E8742C"></stop><stop offset="100%" stop-color="#8B1A1A"></stop></linearGradient></defs><rect fill="url(#colorbar-18zl3m)" height="16" rx="2" width="200" x="0" y="0"></rect><text fill="#555555" font-family="Inter" font-size="9" text-anchor="start" x="0" y="28">Cold</text><text fill="#555555" font-family="Inter" font-size="9" text-anchor="end" x="200" y="28">Hot</text></g></g><text fill="#1A1A1A" font-family="Oswald" font-size="18" font-weight="bold" text-anchor="middle" x="300" y="690">Kaitlin Quevedo — Shot Frequency &amp; Efficiency</text></svg>