<?xml version="1.0" encoding="UTF-8"?>
<svg height="700" width="600" xmlns="http://www.w3.org/2000/svg"><svg height="600" style="display:block" viewBox="0 0 600 600" width="600"><rect fill="#F5F0E8" height="600" width="600" x="0" y="0"></rect><g><rect fill="#C97B4E" height="479.0728921733289" width="442.19012428619413" x="78.90493785690292" y="60.46355391333555"></rect><g fill="none" stroke="#FFFFFF" stroke-width="2"><line x1="78.90493785690292" x2="78.90493785690292" y1="539.5364460866645" y2="60.46355391333555"></line><line x1="521.095062143097" x2="521.095062143097" y1="539.5364460866645" y2="60.46355391333555"></line><line x1="134.1283170977494" x2="134.1283170977494" y1="539.5364460866645" y2="60.46355391333555"></line><line x1="465.8716829022506" x2="465.8716829022506" y1="539.5364460866645" y2="60.46355391333555"></line><line x1="78.90493785690292" x2="521.095062143097" y1="539.5364460866645" y2="539.5364460866645"></line><line x1="66.81222707423582" x2="533.1877729257641" y1="60.46355391333555" y2="60.46355391333555"></line><line x1="134.1283170977494" x2="465.8716829022506" y1="281.5586160564327" y2="281.5586160564327"></line><line x1="287.90728921733285" x2="312.0927107826671" y1="539.5364460866645" y2="539.5364460866645"></line></g><g><polygon fill="#8591a8" opacity="0.75" points="395.7369702336105,-436.9667450453477 363.8246468224071,-418.5421565334229 363.8246468224071,-381.69297950957343 395.7369702336105,-363.2683909976487 427.64929364481407,-381.69297950957343 427.64929364481407,-418.5421565334229" stroke="#1A1A1A" stroke-width="0.5"></polygon><polygon fill="#e8742c" opacity="0.75" points="427.64929364481407,-361.7513644646293 413.0069154550222,-353.2975834751767 413.0069154550221,-336.39002149627123 427.64929364481407,-327.93624050681854 442.291671834606,-336.39002149627123 442.29167183460606,-353.29758347517657" stroke="#1A1A1A" stroke-width="0.5"></polygon><polygon fill="#e8be9b" opacity="0.75" points="395.7369702336105,-201.3891080146985 376.3669245872378,-190.20580694654984 376.3669245872378,-167.8392048102525 395.7369702336105,-156.65590374210385 415.10701587998335,-167.8392048102524 415.1070158799834,-190.20580694654973" stroke="#1A1A1A" stroke-width="0.5"></polygon><polygon fill="#6a7da0" opacity="0.75" points="204.2630297663894,-304.21241513974155 191.58235828221035,-296.89122604484567 191.58235828221032,-282.24884785505367 204.2630297663894,-274.9276587601578 216.9437012505684,-282.24884785505367 216.94370125056844,-296.89122604484567" stroke="#1A1A1A" stroke-width="0.5"></polygon><polygon fill="#6a7da0" opacity="0.75" points="204.2630297663894,-429.402324401082 178.90168679803134,-414.7599462112901 178.90168679803134,-385.47518983170636 204.2630297663894,-370.83281164191436 229.62437273474737,-385.47518983170636 229.62437273474742,-414.7599462112901" stroke="#1A1A1A" stroke-width="0.5"></polygon><polygon fill="#e8dcc8" opacity="0.75" points="268.08767658879646,-199.72995569980094 250.15449899587273,-189.37623078910093 250.1544989958727,-168.6687809677013 268.08767658879646,-158.3150560570013 286.02085418172015,-168.6687809677013 286.02085418172015,-189.37623078910093" stroke="#1A1A1A" stroke-width="0.5"></polygon><polygon fill="#9ca3b0" opacity="0.75" points="363.8246468224071,-253.19950037348698 347.45397033008953,-243.7478858938312 347.4539703300895,-224.84465693451963 363.8246468224071,-215.39304245486383 380.1953233147246,-224.84465693451963 380.1953233147246,-243.7478858938312" stroke="#1A1A1A" stroke-width="0.5"></polygon><polygon fill="#e8dcc8" opacity="0.75" points="236.1753531775929,-246.25172314279123 225.82162826689307,-240.27399727848325 225.82162826689307,-228.31854554986757 236.1753531775929,-222.34081968555958 246.5290780882928,-228.31854554986757 246.5290780882928,-240.27399727848325" stroke="#1A1A1A" stroke-width="0.5"></polygon><polygon fill="#e8dcc8" opacity="0.75" points="363.8246468224071,-365.5512523071238 345.8914692294833,-355.19752739642377 345.8914692294833,-334.49007757502415 363.8246468224071,-324.13635266432414 381.7578244153308,-334.49007757502415 381.7578244153308,-355.19752739642377" stroke="#1A1A1A" stroke-width="0.5"></polygon><polygon fill="#2b4d8c" opacity="0.75" points="331.91232341120354,-419.02079698080985 315.541646918886,-409.56918250115405 315.541646918886,-390.66595354184244 331.91232341120354,-381.2143390621867 348.28299990352104,-390.66595354184244 348.28299990352104,-409.56918250115405" stroke="#1A1A1A" stroke-width="0.5"></polygon><polygon fill="#9ca3b0" opacity="0.75" points="459.56161705601755,-419.02079698080985 443.1909405637001,-409.56918250115405 443.1909405637001,-390.66595354184244 459.56161705601755,-381.2143390621867 475.9322935483351,-390.66595354184244 475.93229354833517,-409.56918250115405" stroke="#1A1A1A" stroke-width="0.5"></polygon><polygon fill="#8b1a1a" opacity="0.75" points="427.64929364481407,412.08135303621054 413.0069154550222,420.5351340256632 413.0069154550221,437.4426960045686 427.64929364481407,445.8964769940212 442.291671834606,437.4426960045686 442.29167183460606,420.53513402566324" stroke="#1A1A1A" stroke-width="0.5"></polygon><polygon fill="#e87d3a" opacity="0.75" points="172.35070635518585,290.4033643417134 148.0690691081743,304.4223741426404 148.06906910817426,332.4603937444943 172.35070635518585,346.4794035454213 196.6323436021974,332.46039374449435 196.63234360219744,304.4223741426404" stroke="#1A1A1A" stroke-width="0.5"></polygon><polygon fill="#2b4d8c" opacity="0.75" points="172.35070635518585,410.0856860558042 155.98002986286832,419.5373005354601 155.98002986286832,438.4405294947717 172.35070635518585,447.8921439744275 188.72138284750338,438.4405294947717 188.7213828475034,419.53730053546013" stroke="#1A1A1A" stroke-width="0.5"></polygon><polygon fill="#e8b28a" opacity="0.75" points="204.2630297663894,346.98194671243925 181.1113970457315,360.3485480958904 181.1113970457315,387.0817508627928 204.2630297663894,400.4483522462439 227.41466248704725,387.0817508627928 227.41466248704725,360.34854809589046" stroke="#1A1A1A" stroke-width="0.5"></polygon><polygon fill="#e8742c" opacity="0.75" points="236.1753531775929,190.98629089311345 221.53297498780097,199.44007188256612 221.53297498780097,216.34763386147145 236.1753531775929,224.80141485092412 250.81773136738485,216.34763386147145 250.81773136738485,199.44007188256612" stroke="#1A1A1A" stroke-width="0.5"></polygon><polygon fill="#8b1a1a" opacity="0.75" points="395.7369702336105,242.4601685863933 377.8037926406868,252.81389349709315 377.8037926406868,273.52134331849294 395.7369702336105,283.87506822919283 413.6701478265342,273.52134331849294 413.6701478265343,252.8138934970932" stroke="#1A1A1A" stroke-width="0.5"></polygon><polygon fill="#8b1a1a" opacity="0.75" points="459.56161705601755,354.81192052002996 443.1909405637001,364.26353499968576 443.1909405637001,383.1667639589975 459.56161705601755,392.6183784386533 475.9322935483351,383.1667639589975 475.93229354833517,364.26353499968576" stroke="#1A1A1A" stroke-width="0.5"></polygon><polygon fill="#a83620" opacity="0.75" points="395.7369702336105,343.2346086503273 369.34004755459534,358.47487906483445 369.34004755459534,388.9554198938488 395.7369702336105,404.1956903083559 422.1338929126258,388.9554198938488 422.1338929126258,358.47487906483445" stroke="#1A1A1A" stroke-width="0.5"></polygon><polygon fill="#e8dcc8" opacity="0.75" points="363.8246468224071,408.2814651937161 345.8914692294833,418.63519010441604 345.8914692294833,439.3426399258158 363.8246468224071,449.69636483651567 381.7578244153308,439.3426399258158 381.7578244153308,418.63519010441604" stroke="#1A1A1A" stroke-width="0.5"></polygon><polygon fill="#bebcbb" opacity="0.75" points="204.2630297663894,458.9013375825321 182.29946248170148,471.5820090667111 182.29946248170148,496.94335203506915 204.2630297663894,509.6240235192482 226.22659705107728,496.94335203506915 226.22659705107728,471.5820090667111" stroke="#1A1A1A" stroke-width="0.5"></polygon><polygon fill="#2b4d8c" opacity="0.75" points="395.7369702336105,472.30722882227434 385.3832453229106,478.28495468658224 385.3832453229106,490.24040641519804 395.7369702336105,496.218132279506 406.0906951443105,490.24040641519804 406.0906951443105,478.28495468658224" stroke="#1A1A1A" stroke-width="0.5"></polygon><polygon fill="#e8a16f" opacity="0.75" points="236.1753531775929,286.8102318582126 208.7819719207066,302.6258079008899 208.7819719207066,334.2569599862447 236.1753531775929,350.07253602892206 263.5687344344792,334.2569599862447 263.56873443447927,302.62580790089" stroke="#1A1A1A" stroke-width="0.5"></polygon><polygon fill="#c95626" opacity="0.75" points="363.8246468224071,297.73393412216757 345.8914692294833,308.0876590328674 345.8914692294833,328.7951088542672 363.8246468224071,339.1488337649671 381.7578244153308,328.7951088542672 381.7578244153308,308.0876590328674" stroke="#1A1A1A" stroke-width="0.5"></polygon><polygon fill="#6a7da0" opacity="0.75" points="268.08767658879646,348.35380651098353 246.12410930410852,361.03447799516255 246.12410930410852,386.39582096352063 268.08767658879646,399.07649244769965 290.05124387348434,386.39582096352063 290.05124387348434,361.03447799516255" stroke="#1A1A1A" stroke-width="0.5"></polygon><polygon fill="#e89760" opacity="0.75" points="268.08767658879646,242.4601685863933 250.15449899587273,252.81389349709315 250.1544989958727,273.52134331849294 268.08767658879646,283.87506822919283 286.02085418172015,273.52134331849294 286.02085418172015,252.8138934970932" stroke="#1A1A1A" stroke-width="0.5"></polygon><polygon fill="#e8dcc8" opacity="0.75" points="268.08767658879646,472.30722882227434 257.73395167809656,478.28495468658224 257.73395167809656,490.24040641519804 268.08767658879646,496.218132279506 278.4414014994963,490.24040641519804 278.4414014994963,478.28495468658224" stroke="#1A1A1A" stroke-width="0.5"></polygon><polygon fill="#e8a87a" opacity="0.75" points="236.1753531775929,405.0780115578843 215.4679033561932,417.0334632865001 215.4679033561932,440.94436674373173 236.1753531775929,452.8998184723476 256.8828029989927,440.94436674373173 256.8828029989927,417.0334632865001" stroke="#1A1A1A" stroke-width="0.5"></polygon><polygon fill="#e89760" opacity="0.75" points="427.64929364481407,297.73393412216757 409.71611605189037,308.0876590328674 409.71611605189037,328.7951088542672 427.64929364481407,339.1488337649671 445.5824712377378,328.7951088542672 445.5824712377378,308.0876590328674" stroke="#1A1A1A" stroke-width="0.5"></polygon><polygon fill="#e8dcc8" opacity="0.75" points="300,297.73393412216757 282.06682240707624,308.0876590328674 282.06682240707624,328.7951088542672 300,339.1488337649671 317.93317759292376,328.7951088542672 317.93317759292376,308.0876590328674" stroke="#1A1A1A" stroke-width="0.5"></polygon><polygon fill="#6a7da0" opacity="0.75" points="427.64929364481407,-248.9386496039673 414.96862216063505,-241.61746050907144 414.96862216063505,-226.9750823192794 427.64929364481407,-219.65389322438352 440.32996512899314,-226.9750823192794 440.32996512899314,-241.61746050907144" stroke="#1A1A1A" stroke-width="0.5"></polygon><polygon fill="#e8dcc8" opacity="0.75" points="395.7369702336105,-306.477598928855 381.09459204381864,-298.0238179394024 381.09459204381864,-281.11625596049697 395.7369702336105,-272.66247497104433 410.37934842340246,-281.11625596049697 410.37934842340246,-298.0238179394023" stroke="#1A1A1A" stroke-width="0.5"></polygon><polygon fill="#e89760" opacity="0.75" points="300,-359.4861806755159 287.319328515821,-352.16499158062004 287.319328515821,-337.52261339082787 300,-330.201424295932 312.68067148417896,-337.52261339082787 312.68067148417896,-352.16499158062004" stroke="#1A1A1A" stroke-width="0.5"></polygon><polygon fill="#e8dcc8" opacity="0.75" points="172.35070635518585,-356.79925421433984 161.99698144448598,-350.8215283500317 161.99698144448598,-338.86607662141614 172.35070635518585,-332.88835075710807 182.70443126588577,-338.86607662141614 182.70443126588577,-350.8215283500317" stroke="#1A1A1A" stroke-width="0.5"></polygon><polygon fill="#2b4d8c" opacity="0.75" points="331.91232341120354,-202.93340933563283 311.20487358980375,-190.977957607017 311.20487358980375,-167.06705414978535 331.91232341120354,-155.11160242116952 352.6197732326033,-167.06705414978535 352.6197732326033,-190.977957607017" stroke="#1A1A1A" stroke-width="0.5"></polygon><polygon fill="#2b4d8c" opacity="0.75" points="331.91232341120354,-308.4732659092612 315.541646918886,-299.0216514296054 315.541646918886,-280.11842247029386 331.91232341120354,-270.66680799063806 348.28299990352104,-280.11842247029386 348.28299990352104,-299.0216514296054" stroke="#1A1A1A" stroke-width="0.5"></polygon><polygon fill="#2b4d8c" opacity="0.75" points="236.1753531775929,-361.7513644646293 221.53297498780097,-353.2975834751767 221.53297498780097,-336.39002149627123 236.1753531775929,-327.93624050681854 250.81773136738485,-336.39002149627123 250.81773136738485,-353.29758347517657" stroke="#1A1A1A" stroke-width="0.5"></polygon><polygon fill="#9ca3b0" opacity="0.75" points="300,-253.19950037348698 283.62932350768244,-243.7478858938312 283.62932350768244,-224.84465693451963 300,-215.39304245486383 316.3706764923175,-224.84465693451963 316.3706764923175,-243.7478858938312" stroke="#1A1A1A" stroke-width="0.5"></polygon><polygon fill="#e8dcc8" opacity="0.75" points="204.2630297663894,-195.9300678573065 189.62065157659745,-187.47628686785384 189.62065157659742,-170.5687248889484 204.2630297663894,-162.11494389949587 218.9054079561813,-170.5687248889484 218.90540795618134,-187.4762868678537" stroke="#1A1A1A" stroke-width="0.5"></polygon><polygon fill="#2b4d8c" opacity="0.75" points="140.43838294398236,-412.0730197501141 130.08465803328247,-406.0952938858061 130.08465803328244,-394.1398421571904 140.43838294398236,-388.16211629288244 150.79210785468223,-394.1398421571904 150.79210785468223,-406.0952938858061" stroke="#1A1A1A" stroke-width="0.5"></polygon><polygon fill="#2b4d8c" opacity="0.75" points="140.43838294398236,251.21216667917724 130.08465803328247,257.1898925434851 130.08465803328244,269.14534427210094 140.43838294398236,275.1230701364089 150.79210785468223,269.14534427210094 150.79210785468223,257.1898925434851" stroke="#1A1A1A" stroke-width="0.5"></polygon><polygon fill="#e8dcc8" opacity="0.75" points="300,-135.70419207124277 289.6462750893001,-129.7264662069348 289.6462750893001,-117.7710144783191 300,-111.79328861401099 310.3537249106998,-117.7710144783191 310.35372491069984,-129.7264662069348" stroke="#1A1A1A" stroke-width="0.5"></polygon><polygon fill="#8b1a1a" opacity="0.75" points="236.1753531775929,527.5809943580487 225.82162826689307,533.5587202223566 225.82162826689307,545.5141719509724 236.1753531775929,551.4918978152803 246.5290780882928,545.5141719509724 246.5290780882928,533.5587202223566" stroke="#1A1A1A" stroke-width="0.5"></polygon><polygon fill="#8b1a1a" opacity="0.75" points="140.43838294398236,361.7596977507257 130.08465803328247,367.7374236150337 130.08465803328244,379.6928753436495 140.43838294398236,385.67060120795736 150.79210785468223,379.6928753436495 150.79210785468223,367.7374236150337" stroke="#1A1A1A" stroke-width="0.5"></polygon><polygon fill="#e8dcc8" opacity="0.75" points="459.56161705601755,472.30722882227434 449.20789214531766,478.28495468658224 449.20789214531766,490.24040641519804 459.56161705601755,496.218132279506 469.9153419667174,490.24040641519804 469.91534196671745,478.28495468658224" stroke="#1A1A1A" stroke-width="0.5"></polygon><polygon fill="#6a7da0" opacity="0.75" points="331.91232341120354,469.6203023610982 319.2316519270245,476.94149145599414 319.2316519270245,491.58386964578614 331.91232341120354,498.9050587406821 344.5929948953825,491.58386964578614 344.5929948953825,476.9414914559942" stroke="#1A1A1A" stroke-width="0.5"></polygon><polygon fill="#e8742c" opacity="0.75" points="204.2630297663894,246.26005642888776 189.62065157659745,254.71383741834035 189.62065157659742,271.6213993972457 204.2630297663894,280.07518038669843 218.9054079561813,271.6213993972457 218.90540795618134,254.71383741834035" stroke="#1A1A1A" stroke-width="0.5"></polygon><polygon fill="#e89760" opacity="0.75" points="140.43838294398236,-193.66488406819306 127.75771145980333,-186.3436949732972 127.75771145980333,-171.70131678350518 140.43838294398236,-164.3801276886093 153.11905442816135,-171.70131678350518 153.11905442816138,-186.3436949732972" stroke="#1A1A1A" stroke-width="0.5"></polygon><polygon fill="#8b1a1a" opacity="0.75" points="331.91232341120354,246.26005642888776 317.2699452214116,254.71383741834035 317.2699452214116,271.6213993972457 331.91232341120354,280.07518038669843 346.55470160099543,271.6213993972457 346.55470160099543,254.71383741834035" stroke="#1A1A1A" stroke-width="0.5"></polygon><polygon fill="#e8dcc8" opacity="0.75" points="300,417.0334632865001 289.6462750893001,423.0111891508079 289.6462750893001,434.9666408794238 300,440.94436674373173 310.3537249106998,434.96664087942384 310.35372491069984,423.0111891508079" stroke="#1A1A1A" stroke-width="0.5"></polygon><polygon fill="#2b4d8c" opacity="0.75" points="268.08767658879646,-417.0251300004036 253.4452983990045,-408.57134901095094 253.4452983990045,-391.66378703204543 268.08767658879646,-383.2100060425929 282.73005477858834,-391.66378703204543 282.73005477858834,-408.57134901095077" stroke="#1A1A1A" stroke-width="0.5"></polygon></g></g></svg><g transform="translate(200, 640)"><g><defs><linearGradient id="colorbar-3n37m1" x1="0%" x2="100%" y1="0%" y2="0%"><stop offset="0%" stop-color="#2B4D8C"></stop><stop offset="25%" stop-color="#2B4D8C"></stop><stop offset="50%" stop-color="#E8DCC8"></stop><stop offset="75%" stop-color="#E8742C"></stop><stop offset="100%" stop-color="#8B1A1A"></stop></linearGradient></defs><rect fill="url(#colorbar-3n37m1)" height="16" rx="2" width="200" x="0" y="0"></rect><text fill="#555555" font-family="Inter" font-size="9" text-anchor="start" x="0" y="28">Cold</text><text fill="#555555" font-family="Inter" font-size="9" text-anchor="end" x="200" y="28">Hot</text></g></g><text fill="#1A1A1A" font-family="Oswald" font-size="18" font-weight="bold" text-anchor="middle" x="300" y="690">Ángela Boluda — Shot Frequency &amp; Efficiency</text></svg>