<?xml version="1.0" encoding="UTF-8"?>
<svg height="700" width="600" xmlns="http://www.w3.org/2000/svg"><svg height="600" style="display:block" viewBox="0 0 600 600" width="600"><rect fill="#F5F0E8" height="600" width="600" x="0" y="0"></rect><g><rect fill="#C97B4E" height="479.0728921733289" width="442.19012428619413" x="78.90493785690292" y="60.46355391333555"></rect><g fill="none" stroke="#FFFFFF" stroke-width="2"><line x1="78.90493785690292" x2="78.90493785690292" y1="539.5364460866645" y2="60.46355391333555"></line><line x1="521.095062143097" x2="521.095062143097" y1="539.5364460866645" y2="60.46355391333555"></line><line x1="134.1283170977494" x2="134.1283170977494" y1="539.5364460866645" y2="60.46355391333555"></line><line x1="465.8716829022506" x2="465.8716829022506" y1="539.5364460866645" y2="60.46355391333555"></line><line x1="78.90493785690292" x2="521.095062143097" y1="539.5364460866645" y2="539.5364460866645"></line><line x1="66.81222707423582" x2="533.1877729257641" y1="60.46355391333555" y2="60.46355391333555"></line><line x1="134.1283170977494" x2="465.8716829022506" y1="281.5586160564327" y2="281.5586160564327"></line><line x1="287.90728921733285" x2="312.0927107826671" y1="539.5364460866645" y2="539.5364460866645"></line></g><g><polygon fill="#6a7da0" opacity="0.75" points="172.35070635518585,407.0972417605896 153.39196118541776,418.04307838785274 153.39196118541776,439.934751642379 172.35070635518585,450.88058826964215 191.30945152495394,439.934751642379 191.30945152495394,418.04307838785274" stroke="#1A1A1A" stroke-width="0.5"></polygon><polygon fill="#d56228" opacity="0.75" points="204.2630297663894,339.1013748410946 174.286621608798,356.40826216021804 174.28662160879796,391.0220367984651 204.2630297663894,408.32892411758866 234.23943792398077,391.02203679846514 234.2394379239808,356.4082621602181" stroke="#1A1A1A" stroke-width="0.5"></polygon><polygon fill="#e8ac80" opacity="0.75" points="172.35070635518585,286.2177134189405 144.44418907767917,302.3295486812539 144.44418907767917,334.5532192058808 172.35070635518585,350.6650544681941 200.25722363269253,334.5532192058808 200.25722363269253,302.329548681254" stroke="#1A1A1A" stroke-width="0.5"></polygon><polygon fill="#2b4d8c" opacity="0.75" points="236.1753531775929,409.00464291005494 218.86846585846945,418.99677896258544 218.86846585846945,438.9810510676464 236.1753531775929,448.9731871201768 253.48224049671643,438.9810510676464 253.48224049671643,418.99677896258544" stroke="#1A1A1A" stroke-width="0.5"></polygon><polygon fill="#8b1a1a" opacity="0.75" points="459.56161705601755,471.6235171043781 448.6157804287544,477.94309882763406 448.6157804287544,490.5822622741462 459.56161705601755,496.9018439974022 470.5074536832807,490.5822622741462 470.50745368328074,477.94309882763406" stroke="#1A1A1A" stroke-width="0.5"></polygon><polygon fill="#8b1a1a" opacity="0.75" points="427.64929364481407,409.00464291005494 410.34240632569055,418.99677896258544 410.34240632569055,438.9810510676464 427.64929364481407,448.9731871201768 444.9561809639375,438.9810510676464 444.9561809639375,418.99677896258544" stroke="#1A1A1A" stroke-width="0.5"></polygon><polygon fill="#b44222" opacity="0.75" points="204.2630297663894,457.45096600622867 181.04340385169584,470.8568232785594 181.0434038516958,497.6685378232209 204.2630297663894,511.0743950955516 227.48265568108292,497.6685378232209 227.48265568108295,470.8568232785594" stroke="#1A1A1A" stroke-width="0.5"></polygon><polygon fill="#e8dcc8" opacity="0.75" points="300,416.3497515686038 289.05416337273687,422.66933329185986 289.0541633727368,435.3084967383719 300,441.6280784616279 310.9458366272631,435.3084967383719 310.94583662726313,422.66933329185986" stroke="#1A1A1A" stroke-width="0.5"></polygon><polygon fill="#e88342" opacity="0.75" points="395.7369702336105,340.27506621997264 366.7770086263303,356.99510784965713 366.7770086263303,390.43519110902605 395.7369702336105,407.1552327387106 424.69693184089084,390.43519110902605 424.69693184089084,356.99510784965713" stroke="#1A1A1A" stroke-width="0.5"></polygon><polygon fill="#6a7da0" opacity="0.75" points="300,-256.18794466870173 281.0412548302319,-245.2421080414385 281.0412548302318,-223.35043478691233 300,-212.40459815964908 318.95874516976806,-223.35043478691233 318.9587451697681,-245.2421080414385" stroke="#1A1A1A" stroke-width="0.5"></polygon><polygon fill="#e8b28a" opacity="0.75" points="268.08767658879646,-428.3795966666297 243.61204181962904,-414.248582344064 243.61204181962904,-385.9865536989325 268.08767658879646,-371.85553937636666 292.5633113579638,-385.9865536989325 292.56331135796387,-414.248582344064" stroke="#1A1A1A" stroke-width="0.5"></polygon><polygon fill="#a5aab3" opacity="0.75" points="395.7369702336105,-436.9667450453477 363.8246468224071,-418.5421565334229 363.8246468224071,-381.69297950957343 395.7369702336105,-363.2683909976487 427.64929364481407,-381.69297950957343 427.64929364481407,-418.5421565334229" stroke="#1A1A1A" stroke-width="0.5"></polygon><polygon fill="#cfc9c0" opacity="0.75" points="331.91232341120354,-434.7313426597451 301.9359152536121,-417.42445534062176 301.9359152536121,-382.8106807023747 331.91232341120354,-365.5037933832512 361.888731568795,-382.8106807023747 361.888731568795,-417.42445534062176" stroke="#1A1A1A" stroke-width="0.5"></polygon><polygon fill="#de6a2a" opacity="0.75" points="395.7369702336105,-205.83422042306267 372.51734431891697,-192.4283631507318 372.51734431891697,-165.61664860607044 395.7369702336105,-152.21079133373968 418.95659614830413,-165.61664860607044 418.95659614830413,-192.4283631507318" stroke="#1A1A1A" stroke-width="0.5"></polygon><polygon fill="#2b4d8c" opacity="0.75" points="363.8246468224071,-368.4895121218665 343.34686158699714,-356.6666573037952 343.34686158699714,-333.0209476676527 363.8246468224071,-321.1980928495814 384.30243205781693,-333.0209476676527 384.30243205781693,-356.6666573037952" stroke="#1A1A1A" stroke-width="0.5"></polygon><polygon fill="#2b4d8c" opacity="0.75" points="204.2630297663894,-417.9920443846059 188.7832791565937,-409.054806203052 188.7832791565937,-391.18032983994436 204.2630297663894,-382.24309165839065 219.74278037618507,-391.18032983994436 219.74278037618507,-409.054806203052" stroke="#1A1A1A" stroke-width="0.5"></polygon><polygon fill="#9ca3b0" opacity="0.75" points="331.91232341120354,-207.2845345235326 307.43668864203613,-193.15352020096697 307.43668864203613,-164.8914915558354 331.91232341120354,-150.76047723326963 356.3879581803709,-164.8914915558354 356.3879581803709,-193.15352020096697" stroke="#1A1A1A" stroke-width="0.5"></polygon><polygon fill="#9ca3b0" opacity="0.75" points="268.08767658879646,-207.2845345235326 243.61204181962904,-193.15352020096697 243.61204181962904,-164.8914915558354 268.08767658879646,-150.76047723326963 292.5633113579638,-164.8914915558354 292.56331135796387,-193.15352020096697" stroke="#1A1A1A" stroke-width="0.5"></polygon><polygon fill="#e8b28a" opacity="0.75" points="331.91232341120354,-309.5543090550106 314.60543609208,-299.5621730024801 314.60543609208,-279.57790089741917 331.91232341120354,-269.5857648448887 349.21921073032706,-279.57790089741917 349.21921073032706,-299.5621730024801" stroke="#1A1A1A" stroke-width="0.5"></polygon><polygon fill="#e89760" opacity="0.75" points="236.1753531775929,-371.6555170303855 212.9557272628994,-358.24965975805463 212.9557272628994,-331.4379452133933 236.1753531775929,-318.0320879410624 259.39497909228646,-331.4379452133933 259.39497909228646,-358.24965975805463" stroke="#1A1A1A" stroke-width="0.5"></polygon><polygon fill="#6a7da0" opacity="0.75" points="395.7369702336105,-316.38175149461125 372.51734431891697,-302.9758942222804 372.51734431891697,-276.164179677619 395.7369702336105,-262.75832240528814 418.95659614830413,-276.164179677619 418.95659614830413,-302.9758942222804" stroke="#1A1A1A" stroke-width="0.5"></polygon><polygon fill="#e8dcc8" opacity="0.75" points="204.2630297663894,-191.66166932491316 193.31719313912623,-185.34208760165725 193.31719313912623,-172.70292415514513 204.2630297663894,-166.3833424318892 215.20886639365253,-172.70292415514513 215.20886639365253,-185.34208760165725" stroke="#1A1A1A" stroke-width="0.5"></polygon><polygon fill="#e8dcc8" opacity="0.75" points="427.64929364481407,-375.8033037053152 400.83757910015265,-360.32355309551957 400.83757910015265,-329.36405187592834 427.64929364481407,-313.8843012661327 454.46100818947554,-329.36405187592834 454.46100818947554,-360.32355309551957" stroke="#1A1A1A" stroke-width="0.5"></polygon><polygon fill="#e8742c" opacity="0.75" points="459.56161705601755,-417.9920443846059 444.0818664462219,-409.054806203052 444.0818664462219,-391.18032983994436 459.56161705601755,-382.24309165839065 475.0413676658133,-391.18032983994436 475.0413676658133,-409.054806203052" stroke="#1A1A1A" stroke-width="0.5"></polygon><polygon fill="#e8742c" opacity="0.75" points="459.56161705601755,-196.8969822415088 444.0818664462219,-187.95974405995491 444.0818664462219,-170.0852676968473 459.56161705601755,-161.14802951529356 475.0413676658133,-170.0852676968473 475.0413676658133,-187.95974405995491" stroke="#1A1A1A" stroke-width="0.5"></polygon><polygon fill="#e8dcc8" opacity="0.75" points="236.1753531775929,-25.84037271759034 225.22951655032978,-19.52079099433428 225.22951655032978,-6.881627547822289 236.1753531775929,-0.5620458245662263 247.12118980485602,-6.881627547822289 247.12118980485602,-19.52079099433428" stroke="#1A1A1A" stroke-width="0.5"></polygon><polygon fill="#e8dcc8" opacity="0.75" points="363.8246468224071,-252.17074777728303 348.3448962126113,-243.23350959572915 348.3448962126113,-225.35903323262167 363.8246468224071,-216.4217950510678 379.3043974322027,-225.35903323262167 379.3043974322027,-243.23350959572915" stroke="#1A1A1A" stroke-width="0.5"></polygon><polygon fill="#8b1a1a" opacity="0.75" points="236.1753531775929,84.70715835395812 225.22951655032978,91.02674007721426 225.22951655032978,103.66590352372624 236.1753531775929,109.98548524698231 247.12118980485602,103.66590352372624 247.12118980485602,91.02674007721426" stroke="#1A1A1A" stroke-width="0.5"></polygon><polygon fill="#b2b3b7" opacity="0.75" points="204.2630297663894,-313.2157465860923 183.78524453097947,-301.39289176802095 183.78524453097947,-277.7471821318785 204.2630297663894,-265.92432731380717 224.7408150017993,-277.7471821318785 224.74081500179932,-301.39289176802095" stroke="#1A1A1A" stroke-width="0.5"></polygon><polygon fill="#e89760" opacity="0.75" points="140.43838294398236,-200.9141791329275 121.47963777421425,-189.96834250566428 121.47963777421423,-168.0766692511381 140.43838294398236,-157.13083262387485 159.39712811375045,-168.0766692511381 159.39712811375045,-189.96834250566428" stroke="#1A1A1A" stroke-width="0.5"></polygon><polygon fill="#2b4d8c" opacity="0.75" points="427.64929364481407,-252.17074777728303 412.1695430350183,-243.23350959572915 412.1695430350183,-225.35903323262167 427.64929364481407,-216.4217950510678 443.1290442546098,-225.35903323262167 443.1290442546098,-243.23350959572915" stroke="#1A1A1A" stroke-width="0.5"></polygon><polygon fill="#e8b28a" opacity="0.75" points="268.08767658879646,353.7308773742806 250.78078926967294,363.72301342681106 250.78078926967294,383.70728553187206 268.08767658879646,393.6994215844025 285.3945639079199,383.70728553187206 285.3945639079199,363.7230134268111" stroke="#1A1A1A" stroke-width="0.5"></polygon><polygon fill="#8b1a1a" opacity="0.75" points="331.91232341120354,468.7829299410945 318.5064661388727,476.5228052459923 318.5064661388727,492.002555855788 331.91232341120354,499.74243116068584 345.31818068353425,492.002555855788 345.31818068353425,476.5228052459923" stroke="#1A1A1A" stroke-width="0.5"></polygon><polygon fill="#8b1a1a" opacity="0.75" points="427.64929364481407,298.4571118385064 410.34240632569055,308.4492478910368 410.34240632569055,328.4335199960978 427.64929364481407,338.4256560486283 444.9561809639375,328.4335199960978 444.9561809639375,308.4492478910368" stroke="#1A1A1A" stroke-width="0.5"></polygon><polygon fill="#e8b28a" opacity="0.75" points="363.8246468224071,298.4571118385064 346.51775950328357,308.4492478910368 346.51775950328346,328.4335199960978 363.8246468224071,338.4256560486283 381.13153414153055,328.4335199960978 381.13153414153055,308.4492478910368" stroke="#1A1A1A" stroke-width="0.5"></polygon><polygon fill="#8b1a1a" opacity="0.75" points="459.56161705601755,361.0759860328296 448.6157804287544,367.39556775608554 448.6157804287544,380.0347312025976 459.56161705601755,386.35431292585366 470.5074536832807,380.0347312025976 470.50745368328074,367.39556775608554" stroke="#1A1A1A" stroke-width="0.5"></polygon><polygon fill="#e8dcc8" opacity="0.75" points="300,300.5669075804597 284.52024939020424,309.5041457620135 284.52024939020424,327.3786221251212 300,336.31586030667495 315.4797506097957,327.3786221251212 315.4797506097957,309.5041457620136" stroke="#1A1A1A" stroke-width="0.5"></polygon><polygon fill="#e8dcc8" opacity="0.75" points="236.1753531775929,293.1630570505432 214.28367992306664,305.80222049705526 214.28367992306661,331.08054739007935 236.1753531775929,343.71971083659145 258.0670264321192,331.08054739007946 258.0670264321192,305.8022204970553" stroke="#1A1A1A" stroke-width="0.5"></polygon><polygon fill="#e8b28a" opacity="0.75" points="204.2630297663894,243.1833463027321 186.95614244726588,253.1754823552626 186.95614244726588,273.1597544603235 204.2630297663894,283.15189051285404 221.56991708551288,273.15975446032354 221.56991708551288,253.1754823552626" stroke="#1A1A1A" stroke-width="0.5"></polygon><polygon fill="#8b1a1a" opacity="0.75" points="331.91232341120354,361.0759860328296 320.96648678394035,367.39556775608554 320.96648678394035,380.0347312025976 331.91232341120354,386.35431292585366 342.8581600384666,380.0347312025976 342.8581600384666,367.39556775608554" stroke="#1A1A1A" stroke-width="0.5"></polygon><polygon fill="#e89760" opacity="0.75" points="268.08767658879646,-305.0497875597453 254.68181931646572,-297.30991225484763 254.68181931646572,-281.8301616450518 268.08767658879646,-274.09028634015397 281.4935338611272,-281.8301616450518 281.4935338611272,-297.30991225484763" stroke="#1A1A1A" stroke-width="0.5"></polygon><polygon fill="#e89760" opacity="0.75" points="395.7369702336105,468.7829299410945 382.33111296127987,476.5228052459923 382.33111296127987,492.002555855788 395.7369702336105,499.74243116068584 409.1428275059412,492.002555855788 409.1428275059412,476.5228052459923" stroke="#1A1A1A" stroke-width="0.5"></polygon><polygon fill="#e8dcc8" opacity="0.75" points="363.8246468224071,411.11443865200823 348.3448962126113,420.05167683356206 348.3448962126113,437.92615319666965 363.8246468224071,446.8633913782235 379.3043974322027,437.92615319666965 379.3043974322027,420.05167683356206" stroke="#1A1A1A" stroke-width="0.5"></polygon><polygon fill="#e8a87a" opacity="0.75" points="300,-370.1221293787481 278.10832674547373,-357.482965932236 278.10832674547373,-332.2046390392119 300,-319.5654755926998 321.8916732545262,-332.2046390392119 321.8916732545262,-357.482965932236" stroke="#1A1A1A" stroke-width="0.5"></polygon><polygon fill="#8b1a1a" opacity="0.75" points="236.1753531775929,-246.9354348606874 225.22951655032978,-240.6158531374315 225.22951655032978,-227.97668969091936 236.1753531775929,-221.65710796766342 247.12118980485602,-227.97668969091936 247.12118980485602,-240.6158531374315" stroke="#1A1A1A" stroke-width="0.5"></polygon><polygon fill="#8b1a1a" opacity="0.75" points="268.08767658879646,471.6235171043781 257.1418399615333,477.94309882763406 257.1418399615333,490.5822622741462 268.08767658879646,496.9018439974022 279.0335132160596,490.5822622741462 279.0335132160596,477.94309882763406" stroke="#1A1A1A" stroke-width="0.5"></polygon><polygon fill="#e89760" opacity="0.75" points="331.91232341120354,247.68786779799734 318.5064661388727,255.42774310289516 318.5064661388727,270.90749371269084 331.91232341120354,278.64736901758874 345.31818068353425,270.9074937126909 345.31818068353425,255.42774310289516" stroke="#1A1A1A" stroke-width="0.5"></polygon></g></g></svg><g transform="translate(200, 640)"><g><defs><linearGradient id="colorbar-7bndkx" x1="0%" x2="100%" y1="0%" y2="0%"><stop offset="0%" stop-color="#2B4D8C"></stop><stop offset="25%" stop-color="#2B4D8C"></stop><stop offset="50%" stop-color="#E8DCC8"></stop><stop offset="75%" stop-color="#E8742C"></stop><stop offset="100%" stop-color="#8B1A1A"></stop></linearGradient></defs><rect fill="url(#colorbar-7bndkx)" height="16" rx="2" width="200" x="0" y="0"></rect><text fill="#555555" font-family="Inter" font-size="9" text-anchor="start" x="0" y="28">Cold</text><text fill="#555555" font-family="Inter" font-size="9" text-anchor="end" x="200" y="28">Hot</text></g></g><text fill="#1A1A1A" font-family="Oswald" font-size="18" font-weight="bold" text-anchor="middle" x="300" y="690">Kaitlin Quevedo — Shot Frequency &amp; Efficiency</text></svg>