<?xml version="1.0" encoding="UTF-8"?>
<svg height="700" width="600" xmlns="http://www.w3.org/2000/svg"><svg height="600" style="display:block" viewBox="0 0 600 600" width="600"><defs><clipPath id="court-clip-nsrr67l"><rect height="479.0728921733289" width="442.19012428619413" x="78.90493785690292" y="60.46355391333555"></rect></clipPath><filter id="court-shadow" x="-5%" y="-5%" width="110%" height="110%"><feDropShadow dx="0" dy="2" flood-color="#000000" flood-opacity="0.15" stdDeviation="3"></feDropShadow></filter></defs><rect fill="#F5F0E8" height="600" width="600" x="0" y="0"></rect><g><rect fill="#B0663C" height="600" width="563.1172321128653" x="18.441383943567345" y="-2.1316282072803006e-14"></rect><rect fill="#C97B4E" filter="url(#court-shadow)" height="479.0728921733289" width="442.19012428619413" x="78.90493785690292" y="60.46355391333555"></rect><g><rect fill="#E0A87E" height="221.09506214309715" width="331.7433658045012" x="134.1283170977494" y="60.46355391333555"></rect></g><g fill="none" stroke="#FFFFFF" stroke-width="2"><line x1="78.90493785690292" x2="78.90493785690292" y1="539.5364460866645" y2="60.46355391333555"></line><line x1="521.095062143097" x2="521.095062143097" y1="539.5364460866645" y2="60.46355391333555"></line><line x1="134.1283170977494" x2="134.1283170977494" y1="539.5364460866645" y2="60.46355391333555"></line><line x1="465.8716829022506" x2="465.8716829022506" y1="539.5364460866645" y2="60.46355391333555"></line><line x1="134.1283170977494" x2="465.8716829022506" y1="281.5586160564327" y2="281.5586160564327"></line><line x1="300" x2="300" y1="281.5586160564327" y2="60.46355391333555"></line></g><g fill="none" stroke="#FFFFFF" stroke-width="3"><line x1="78.90493785690292" x2="521.095062143097" y1="539.5364460866645" y2="539.5364460866645"></line><line x1="287.90728921733285" x2="312.0927107826671" y1="539.5364460866645" y2="539.5364460866645"></line></g><g fill="none" stroke="#FFFFFF" stroke-dasharray="6 4" stroke-width="2.5"><line x1="66.81222707423582" x2="533.1877729257641" y1="60.46355391333555" y2="60.46355391333555"></line></g><g clip-path="url(#court-clip-nsrr67l)"><g><g><polygon fill="none" opacity="0.51" points="395.7369702336105,-435.1242861941552 365.42026299296714,-417.62092710782673 365.42026299296714,-382.61420893516964 395.7369702336105,-365.11084984884127 426.0536774742539,-382.61420893516964 426.05367747425396,-417.6209271078266" stroke="#FAF6EE" stroke-width="2.5"></polygon><polygon fill="rgb(122, 152, 203)" opacity="0.85" points="395.7369702336105,-435.1242861941552 365.42026299296714,-417.62092710782673 365.42026299296714,-382.61420893516964 395.7369702336105,-365.11084984884127 426.0536774742539,-382.61420893516964 426.05367747425396,-417.6209271078266" stroke="#1A1A1A" stroke-width="0.5"></polygon><text dominant-baseline="middle" fill="#FAF6EE" font-family="Oswald, Arial Narrow, sans-serif" font-size="10" font-weight="700" text-anchor="middle" x="395.7369702336105" y="-400.11756802149824">19</text></g><g><polygon fill="none" opacity="0.51" points="427.64929364481407,-365.8913901269201 409.4215480591589,-355.3675963063221 409.4215480591589,-334.3200086651259 427.64929364481407,-323.7962148445278 445.87703923046934,-334.3200086651258 445.87703923046934,-355.367596306322" stroke="#FAF6EE" stroke-width="2.5"></polygon><polygon fill="rgb(232, 116, 44)" opacity="0.85" points="427.64929364481407,-365.8913901269201 409.4215480591589,-355.3675963063221 409.4215480591589,-334.3200086651259 427.64929364481407,-323.7962148445278 445.87703923046934,-334.3200086651258 445.87703923046934,-355.367596306322" stroke="#1A1A1A" stroke-width="0.5"></polygon><text dominant-baseline="middle" fill="#FAF6EE" font-family="Oswald, Arial Narrow, sans-serif" font-size="10" font-weight="700" text-anchor="middle" x="427.64929364481407" y="-344.84380248572387">4</text></g><g><polygon fill="none" opacity="0.51" points="395.7369702336105,-203.89142162977177 374.1998574283487,-191.45696375408633 374.1998574283487,-166.58804800271588 395.7369702336105,-154.1535901270306 417.27408303887245,-166.58804800271588 417.27408303887245,-191.45696375408633" stroke="#FAF6EE" stroke-width="2.5"></polygon><polygon fill="rgb(232, 170, 126)" opacity="0.85" points="395.7369702336105,-203.89142162977177 374.1998574283487,-191.45696375408633 374.1998574283487,-166.58804800271588 395.7369702336105,-154.1535901270306 417.27408303887245,-166.58804800271588 417.27408303887245,-191.45696375408633" stroke="#1A1A1A" stroke-width="0.5"></polygon><text dominant-baseline="middle" fill="#FAF6EE" font-family="Oswald, Arial Narrow, sans-serif" font-size="10" font-weight="700" text-anchor="middle" x="395.7369702336105" y="-179.02250587840118">7</text></g><g><polygon fill="none" opacity="0.51" points="204.2630297663894,-309.0319959387664 187.4084788746632,-299.3010164443581 187.4084788746632,-279.8390574555412 204.2630297663894,-270.108077961133 221.11758065811557,-279.8390574555412 221.1175806581156,-299.30101644435797" stroke="#FAF6EE" stroke-width="2.5"></polygon><polygon fill="rgb(100, 136, 196)" opacity="0.85" points="204.2630297663894,-309.0319959387664 187.4084788746632,-299.3010164443581 187.4084788746632,-279.8390574555412 204.2630297663894,-270.108077961133 221.11758065811557,-279.8390574555412 221.1175806581156,-299.30101644435797" stroke="#1A1A1A" stroke-width="0.5"></polygon></g><g><polygon fill="none" opacity="0.51" points="204.2630297663894,-429.82919174316936 178.53200883573788,-414.9733798823338 178.53200883573788,-385.2617561606627 204.2630297663894,-370.4059442998271 229.99405069704085,-385.2617561606627 229.99405069704088,-414.9733798823338" stroke="#FAF6EE" stroke-width="2.5"></polygon><polygon fill="rgb(100, 136, 196)" opacity="0.85" points="204.2630297663894,-429.82919174316936 178.53200883573788,-414.9733798823338 178.53200883573788,-385.2617561606627 204.2630297663894,-370.4059442998271 229.99405069704085,-385.2617561606627 229.99405069704088,-414.9733798823338" stroke="#1A1A1A" stroke-width="0.5"></polygon><text dominant-baseline="middle" fill="#FAF6EE" font-family="Oswald, Arial Narrow, sans-serif" font-size="10" font-weight="700" text-anchor="middle" x="204.2630297663894" y="-400.11756802149824">12</text></g><g><polygon fill="none" opacity="0.51" points="268.08767658879646,-202.73001500934336 247.55637142094895,-190.8762604438722 247.55637142094895,-167.16875131293017 268.08767658879646,-155.31499674745888 288.61898175664396,-167.16875131293017 288.61898175664396,-190.8762604438722" stroke="#FAF6EE" stroke-width="2.5"></polygon><polygon fill="rgb(232, 220, 200)" opacity="0.85" points="268.08767658879646,-202.73001500934336 247.55637142094895,-190.8762604438722 247.55637142094895,-167.16875131293017 268.08767658879646,-155.31499674745888 288.61898175664396,-167.16875131293017 288.61898175664396,-190.8762604438722" stroke="#1A1A1A" stroke-width="0.5"></polygon><text dominant-baseline="middle" fill="#FAF6EE" font-family="Oswald, Arial Narrow, sans-serif" font-size="10" font-weight="700" text-anchor="middle" x="268.08767658879646" y="-179.02250587840118">6</text></g><g><polygon fill="none" opacity="0.51" points="363.8246468224071,-256.7408259416558 344.38709242498385,-245.51854867791576 344.38709242498385,-223.07399415043508 363.8246468224071,-211.851716886695 383.2622012198302,-223.07399415043508 383.2622012198302,-245.51854867791576" stroke="#FAF6EE" stroke-width="2.5"></polygon><polygon fill="rgb(149, 169, 202)" opacity="0.85" points="363.8246468224071,-256.7408259416558 344.38709242498385,-245.51854867791576 344.38709242498385,-223.07399415043508 363.8246468224071,-211.851716886695 383.2622012198302,-223.07399415043508 383.2622012198302,-245.51854867791576" stroke="#1A1A1A" stroke-width="0.5"></polygon><text dominant-baseline="middle" fill="#FAF6EE" font-family="Oswald, Arial Narrow, sans-serif" font-size="10" font-weight="700" text-anchor="middle" x="363.8246468224071" y="-234.2962714141754">5</text></g><g><polygon fill="none" opacity="0.51" points="236.1753531775929,-251.8773818801689 220.9496648873021,-243.0868266471721 220.9496648873021,-225.50571618117874 236.1753531775929,-216.71516094818193 251.4010414678837,-225.50571618117874 251.40104146788372,-243.0868266471721" stroke="#FAF6EE" stroke-width="2.5"></polygon><polygon fill="rgb(232, 220, 200)" opacity="0.85" points="236.1753531775929,-251.8773818801689 220.9496648873021,-243.0868266471721 220.9496648873021,-225.50571618117874 236.1753531775929,-216.71516094818193 251.4010414678837,-225.50571618117874 251.40104146788372,-243.0868266471721" stroke="#1A1A1A" stroke-width="0.5"></polygon></g><g><polygon fill="none" opacity="0.51" points="363.8246468224071,-368.55131161666617 343.2933416545595,-356.697557051195 343.2933416545595,-332.9900479202529 363.8246468224071,-321.1362933547817 384.3559519902545,-332.9900479202529 384.35595199025454,-356.697557051195" stroke="#FAF6EE" stroke-width="2.5"></polygon><polygon fill="rgb(232, 220, 200)" opacity="0.85" points="363.8246468224071,-368.55131161666617 343.2933416545595,-356.697557051195 343.2933416545595,-332.9900479202529 363.8246468224071,-321.1362933547817 384.3559519902545,-332.9900479202529 384.35595199025454,-356.697557051195" stroke="#1A1A1A" stroke-width="0.5"></polygon><text dominant-baseline="middle" fill="#FAF6EE" font-family="Oswald, Arial Narrow, sans-serif" font-size="10" font-weight="700" text-anchor="middle" x="363.8246468224071" y="-344.84380248572387">6</text></g><g><polygon fill="none" opacity="0.51" points="331.91232341120354,-422.56212254897866 312.47476901378036,-411.3398452852385 312.47476901378036,-388.8952907577579 331.91232341120354,-377.6730134940178 351.3498778086267,-388.8952907577579 351.3498778086267,-411.3398452852385" stroke="#FAF6EE" stroke-width="2.5"></polygon><polygon fill="rgb(43, 77, 140)" opacity="0.85" points="331.91232341120354,-422.56212254897866 312.47476901378036,-411.3398452852385 312.47476901378036,-388.8952907577579 331.91232341120354,-377.6730134940178 351.3498778086267,-388.8952907577579 351.3498778086267,-411.3398452852385" stroke="#1A1A1A" stroke-width="0.5"></polygon><text dominant-baseline="middle" fill="#FAF6EE" font-family="Oswald, Arial Narrow, sans-serif" font-size="10" font-weight="700" text-anchor="middle" x="331.91232341120354" y="-400.11756802149824">5</text></g><g><polygon fill="none" opacity="0.51" points="459.56161705601755,-422.56212254897866 440.1240626585944,-411.3398452852385 440.1240626585944,-388.8952907577579 459.56161705601755,-377.6730134940178 478.99917145344074,-388.8952907577579 478.99917145344074,-411.3398452852385" stroke="#FAF6EE" stroke-width="2.5"></polygon><polygon fill="rgb(149, 169, 202)" opacity="0.85" points="459.56161705601755,-422.56212254897866 440.1240626585944,-411.3398452852385 440.1240626585944,-388.8952907577579 459.56161705601755,-377.6730134940178 478.99917145344074,-388.8952907577579 478.99917145344074,-411.3398452852385" stroke="#1A1A1A" stroke-width="0.5"></polygon><text dominant-baseline="middle" fill="#FAF6EE" font-family="Oswald, Arial Narrow, sans-serif" font-size="10" font-weight="700" text-anchor="middle" x="459.56161705601755" y="-400.11756802149824">5</text></g><g><polygon fill="none" opacity="0.51" points="427.64929364481407,407.94132737391976 409.4215480591589,418.4651211945178 409.4215480591589,439.5127088357139 427.64929364481407,450.036502656312 445.87703923046934,439.51270883571397 445.87703923046934,418.4651211945178" stroke="#FAF6EE" stroke-width="2.5"></polygon><polygon fill="rgb(139, 26, 26)" opacity="0.85" points="427.64929364481407,407.94132737391976 409.4215480591589,418.4651211945178 409.4215480591589,439.5127088357139 427.64929364481407,450.036502656312 445.87703923046934,439.51270883571397 445.87703923046934,418.4651211945178" stroke="#1A1A1A" stroke-width="0.5"></polygon><text dominant-baseline="middle" fill="#FAF6EE" font-family="Oswald, Arial Narrow, sans-serif" font-size="10" font-weight="700" text-anchor="middle" x="427.64929364481407" y="428.98891501511594">4</text></g><g><polygon fill="none" opacity="0.51" points="172.35070635518585,289.60247596630717 147.37547942947688,304.02192995493726 147.37547942947688,332.8608379321974 172.35070635518585,347.2802919208275 197.3259332808948,332.8608379321974 197.32593328089487,304.02192995493726" stroke="#FAF6EE" stroke-width="2.5"></polygon><polygon fill="rgb(232, 116, 44)" opacity="0.85" points="172.35070635518585,289.60247596630717 147.37547942947688,304.02192995493726 147.37547942947688,332.8608379321974 172.35070635518585,347.2802919208275 197.3259332808948,332.8608379321974 197.32593328089487,304.02192995493726" stroke="#1A1A1A" stroke-width="0.5"></polygon><text dominant-baseline="middle" fill="#FAF6EE" font-family="Oswald, Arial Narrow, sans-serif" font-size="10" font-weight="700" text-anchor="middle" x="172.35070635518585" y="318.4413839435673">11</text></g><g><polygon fill="none" opacity="0.51" points="172.35070635518585,406.54436048763534 152.91315195776272,417.7666377513756 152.91315195776272,440.2111922788561 172.35070635518585,451.4334695425964 191.788260752609,440.2111922788561 191.788260752609,417.76663775137564" stroke="#FAF6EE" stroke-width="2.5"></polygon><polygon fill="rgb(43, 77, 140)" opacity="0.85" points="172.35070635518585,406.54436048763534 152.91315195776272,417.7666377513756 152.91315195776272,440.2111922788561 172.35070635518585,451.4334695425964 191.788260752609,440.2111922788561 191.788260752609,417.76663775137564" stroke="#1A1A1A" stroke-width="0.5"></polygon><text dominant-baseline="middle" fill="#FAF6EE" font-family="Oswald, Arial Narrow, sans-serif" font-size="10" font-weight="700" text-anchor="middle" x="172.35070635518585" y="428.98891501511594">5</text></g><g><polygon fill="none" opacity="0.51" points="204.2630297663894,345.78961328654765 180.078806009128,359.7523813829446 180.078806009128,387.67791757573866 204.2630297663894,401.6406856721356 228.44725352365077,387.67791757573866 228.44725352365077,359.7523813829446" stroke="#FAF6EE" stroke-width="2.5"></polygon><polygon fill="rgb(232, 151, 96)" opacity="0.85" points="204.2630297663894,345.78961328654765 180.078806009128,359.7523813829446 180.078806009128,387.67791757573866 204.2630297663894,401.6406856721356 228.44725352365077,387.67791757573866 228.44725352365077,359.7523813829446" stroke="#1A1A1A" stroke-width="0.5"></polygon><text dominant-baseline="middle" fill="#FAF6EE" font-family="Oswald, Arial Narrow, sans-serif" font-size="10" font-weight="700" text-anchor="middle" x="204.2630297663894" y="373.7151494793416">10</text></g><g><polygon fill="none" opacity="0.51" points="236.1753531775929,186.8462652308226 217.94760759193764,197.37005905142072 217.94760759193764,218.41764669261684 236.1753531775929,228.94144051321487 254.40309876324812,218.41764669261684 254.40309876324815,197.37005905142072" stroke="#FAF6EE" stroke-width="2.5"></polygon><polygon fill="rgb(232, 116, 44)" opacity="0.85" points="236.1753531775929,186.8462652308226 217.94760759193764,197.37005905142072 217.94760759193764,218.41764669261684 236.1753531775929,228.94144051321487 254.40309876324812,218.41764669261684 254.40309876324815,197.37005905142072" stroke="#1A1A1A" stroke-width="0.5"></polygon><text dominant-baseline="middle" fill="#FAF6EE" font-family="Oswald, Arial Narrow, sans-serif" font-size="10" font-weight="700" text-anchor="middle" x="236.1753531775929" y="207.89385287201878">4</text></g><g><polygon fill="none" opacity="0.51" points="395.7369702336105,239.46010927685083 375.2056650657631,251.31386384232192 375.2056650657631,275.0213729732642 395.7369702336105,286.8751275387352 416.26827540145814,275.0213729732642 416.26827540145814,251.313863842322" stroke="#FAF6EE" stroke-width="2.5"></polygon><polygon fill="rgb(139, 26, 26)" opacity="0.85" points="395.7369702336105,239.46010927685083 375.2056650657631,251.31386384232192 375.2056650657631,275.0213729732642 395.7369702336105,286.8751275387352 416.26827540145814,275.0213729732642 416.26827540145814,251.313863842322" stroke="#1A1A1A" stroke-width="0.5"></polygon><text dominant-baseline="middle" fill="#FAF6EE" font-family="Oswald, Arial Narrow, sans-serif" font-size="10" font-weight="700" text-anchor="middle" x="395.7369702336105" y="263.1676184077931">6</text></g><g><polygon fill="none" opacity="0.51" points="459.56161705601755,351.27059495186114 440.1240626585944,362.4928722156013 440.1240626585944,384.9374267430819 459.56161705601755,396.1597040068221 478.99917145344074,384.9374267430819 478.99917145344074,362.4928722156013" stroke="#FAF6EE" stroke-width="2.5"></polygon><polygon fill="rgb(139, 26, 26)" opacity="0.85" points="459.56161705601755,351.27059495186114 440.1240626585944,362.4928722156013 440.1240626585944,384.9374267430819 459.56161705601755,396.1597040068221 478.99917145344074,384.9374267430819 478.99917145344074,362.4928722156013" stroke="#1A1A1A" stroke-width="0.5"></polygon><text dominant-baseline="middle" fill="#FAF6EE" font-family="Oswald, Arial Narrow, sans-serif" font-size="10" font-weight="700" text-anchor="middle" x="459.56161705601755" y="373.7151494793416">5</text></g><g><polygon fill="none" opacity="0.51" points="395.7369702336105,343.1664766430692 369.28104350549904,358.4408130612054 369.281043505499,388.98948589747783 395.7369702336105,404.263822315614 422.19289696172206,388.98948589747783 422.19289696172217,358.4408130612054" stroke="#FAF6EE" stroke-width="2.5"></polygon><polygon fill="rgb(187, 72, 35)" opacity="0.85" points="395.7369702336105,343.1664766430692 369.28104350549904,358.4408130612054 369.281043505499,388.98948589747783 395.7369702336105,404.263822315614 422.19289696172206,388.98948589747783 422.19289696172217,358.4408130612054" stroke="#1A1A1A" stroke-width="0.5"></polygon><text dominant-baseline="middle" fill="#FAF6EE" font-family="Oswald, Arial Narrow, sans-serif" font-size="10" font-weight="700" text-anchor="middle" x="395.7369702336105" y="373.7151494793416">13</text></g><g><polygon fill="none" opacity="0.51" points="363.8246468224071,405.2814058841737 343.2933416545595,417.1351604496448 343.2933416545595,440.8426695805869 363.8246468224071,452.69642414605806 384.3559519902545,440.84266958058697 384.35595199025454,417.1351604496448" stroke="#FAF6EE" stroke-width="2.5"></polygon><polygon fill="rgb(232, 220, 200)" opacity="0.85" points="363.8246468224071,405.2814058841737 343.2933416545595,417.1351604496448 343.2933416545595,440.8426695805869 363.8246468224071,452.69642414605806 384.3559519902545,440.84266958058697 384.35595199025454,417.1351604496448" stroke="#1A1A1A" stroke-width="0.5"></polygon><text dominant-baseline="middle" fill="#FAF6EE" font-family="Oswald, Arial Narrow, sans-serif" font-size="10" font-weight="700" text-anchor="middle" x="363.8246468224071" y="428.98891501511594">6</text></g><g><polygon fill="none" opacity="0.51" points="204.2630297663894,457.29744621707715 180.91045181430698,470.78006338398365 180.91045181430698,497.74529771779663 204.2630297663894,511.2279148847032 227.61560771847178,497.74529771779663 227.6156077184718,470.7800633839837" stroke="#FAF6EE" stroke-width="2.5"></polygon><polygon fill="rgb(186, 191, 201)" opacity="0.85" points="204.2630297663894,457.29744621707715 180.91045181430698,470.78006338398365 180.91045181430698,497.74529771779663 204.2630297663894,511.2279148847032 227.61560771847178,497.74529771779663 227.6156077184718,470.7800633839837" stroke="#1A1A1A" stroke-width="0.5"></polygon><text dominant-baseline="middle" fill="#FAF6EE" font-family="Oswald, Arial Narrow, sans-serif" font-size="10" font-weight="700" text-anchor="middle" x="204.2630297663894" y="484.26268055089014">9</text></g><g><polygon fill="none" opacity="0.51" points="395.7369702336105,466.68157008489663 380.51128194331983,475.4721253178934 380.51128194331983,493.05323578388686 395.7369702336105,501.84379101688364 410.9626585239013,493.05323578388686 410.9626585239013,475.4721253178935" stroke="#FAF6EE" stroke-width="2.5"></polygon><polygon fill="rgb(43, 77, 140)" opacity="0.85" points="395.7369702336105,466.68157008489663 380.51128194331983,475.4721253178934 380.51128194331983,493.05323578388686 395.7369702336105,501.84379101688364 410.9626585239013,493.05323578388686 410.9626585239013,475.4721253178935" stroke="#1A1A1A" stroke-width="0.5"></polygon></g><g><polygon fill="none" opacity="0.51" points="236.1753531775929,287.08728322785663 209.02190544497165,302.764333585712 209.02190544497165,334.11843430142267 236.1753531775929,349.795484659278 263.3288009102142,334.11843430142267 263.3288009102143,302.764333585712" stroke="#FAF6EE" stroke-width="2.5"></polygon><polygon fill="rgb(232, 121, 51)" opacity="0.85" points="236.1753531775929,287.08728322785663 209.02190544497165,302.764333585712 209.02190544497165,334.11843430142267 236.1753531775929,349.795484659278 263.3288009102142,334.11843430142267 263.3288009102143,302.764333585712" stroke="#1A1A1A" stroke-width="0.5"></polygon><text dominant-baseline="middle" fill="#FAF6EE" font-family="Oswald, Arial Narrow, sans-serif" font-size="10" font-weight="700" text-anchor="middle" x="236.1753531775929" y="318.4413839435673">14</text></g><g><polygon fill="none" opacity="0.51" points="363.8246468224071,294.7338748126251 343.2933416545595,306.5876293780962 343.2933416545595,330.2951385090384 363.8246468224071,342.1488930745095 384.3559519902545,330.29513850903845 384.35595199025454,306.58762937809627" stroke="#FAF6EE" stroke-width="2.5"></polygon><polygon fill="rgb(232, 116, 44)" opacity="0.85" points="363.8246468224071,294.7338748126251 343.2933416545595,306.5876293780962 343.2933416545595,330.2951385090384 363.8246468224071,342.1488930745095 384.3559519902545,330.29513850903845 384.35595199025454,306.58762937809627" stroke="#1A1A1A" stroke-width="0.5"></polygon><text dominant-baseline="middle" fill="#FAF6EE" font-family="Oswald, Arial Narrow, sans-serif" font-size="10" font-weight="700" text-anchor="middle" x="363.8246468224071" y="318.4413839435673">6</text></g><g><polygon fill="none" opacity="0.51" points="268.08767658879646,346.7499151455286 244.73509863671404,360.232532312435 244.73509863671404,387.1977666462481 268.08767658879646,400.68038381315455 291.44025454087887,387.1977666462481 291.44025454087887,360.2325323124351" stroke="#FAF6EE" stroke-width="2.5"></polygon><polygon fill="rgb(100, 136, 196)" opacity="0.85" points="268.08767658879646,346.7499151455286 244.73509863671404,360.232532312435 244.73509863671404,387.1977666462481 268.08767658879646,400.68038381315455 291.44025454087887,387.1977666462481 291.44025454087887,360.2325323124351" stroke="#1A1A1A" stroke-width="0.5"></polygon><text dominant-baseline="middle" fill="#FAF6EE" font-family="Oswald, Arial Narrow, sans-serif" font-size="10" font-weight="700" text-anchor="middle" x="268.08767658879646" y="373.7151494793416">9</text></g><g><polygon fill="none" opacity="0.51" points="268.08767658879646,239.46010927685083 247.55637142094895,251.31386384232192 247.55637142094895,275.0213729732642 268.08767658879646,286.8751275387352 288.61898175664396,275.0213729732642 288.61898175664396,251.313863842322" stroke="#FAF6EE" stroke-width="2.5"></polygon><polygon fill="rgb(232, 116, 44)" opacity="0.85" points="268.08767658879646,239.46010927685083 247.55637142094895,251.31386384232192 247.55637142094895,275.0213729732642 268.08767658879646,286.8751275387352 288.61898175664396,275.0213729732642 288.61898175664396,251.313863842322" stroke="#1A1A1A" stroke-width="0.5"></polygon><text dominant-baseline="middle" fill="#FAF6EE" font-family="Oswald, Arial Narrow, sans-serif" font-size="10" font-weight="700" text-anchor="middle" x="268.08767658879646" y="263.1676184077931">6</text></g><g><polygon fill="none" opacity="0.51" points="268.08767658879646,466.68157008489663 252.86198829850562,475.4721253178934 252.86198829850562,493.05323578388686 268.08767658879646,501.84379101688364 283.31336487908726,493.05323578388686 283.31336487908726,475.4721253178935" stroke="#FAF6EE" stroke-width="2.5"></polygon><polygon fill="rgb(232, 220, 200)" opacity="0.85" points="268.08767658879646,466.68157008489663 252.86198829850562,475.4721253178934 252.86198829850562,493.05323578388686 268.08767658879646,501.84379101688364 283.31336487908726,493.05323578388686 283.31336487908726,475.4721253178935" stroke="#1A1A1A" stroke-width="0.5"></polygon></g><g><polygon fill="none" opacity="0.51" points="236.1753531775929,403.0389883390913 213.70205744981223,416.01395167710365 213.70205744981223,441.9638783531281 236.1753531775929,454.93884169114045 258.64864890537365,441.9638783531282 258.64864890537365,416.01395167710365" stroke="#FAF6EE" stroke-width="2.5"></polygon><polygon fill="rgb(232, 133, 70)" opacity="0.85" points="236.1753531775929,403.0389883390913 213.70205744981223,416.01395167710365 213.70205744981223,441.9638783531281 236.1753531775929,454.93884169114045 258.64864890537365,441.9638783531282 258.64864890537365,416.01395167710365" stroke="#1A1A1A" stroke-width="0.5"></polygon><text dominant-baseline="middle" fill="#FAF6EE" font-family="Oswald, Arial Narrow, sans-serif" font-size="10" font-weight="700" text-anchor="middle" x="236.1753531775929" y="428.98891501511594">8</text></g><g><polygon fill="none" opacity="0.51" points="427.64929364481407,294.7338748126251 407.11798847696656,306.5876293780962 407.11798847696656,330.2951385090384 427.64929364481407,342.1488930745095 448.1805988126616,330.29513850903845 448.1805988126616,306.58762937809627" stroke="#FAF6EE" stroke-width="2.5"></polygon><polygon fill="rgb(232, 116, 44)" opacity="0.85" points="427.64929364481407,294.7338748126251 407.11798847696656,306.5876293780962 407.11798847696656,330.2951385090384 427.64929364481407,342.1488930745095 448.1805988126616,330.29513850903845 448.1805988126616,306.58762937809627" stroke="#1A1A1A" stroke-width="0.5"></polygon><text dominant-baseline="middle" fill="#FAF6EE" font-family="Oswald, Arial Narrow, sans-serif" font-size="10" font-weight="700" text-anchor="middle" x="427.64929364481407" y="318.4413839435673">6</text></g><g><polygon fill="none" opacity="0.51" points="300,294.7338748126251 279.46869483215244,306.5876293780962 279.46869483215244,330.2951385090384 300,342.1488930745095 320.53130516784745,330.29513850903845 320.53130516784745,306.58762937809627" stroke="#FAF6EE" stroke-width="2.5"></polygon><polygon fill="rgb(232, 220, 200)" opacity="0.85" points="300,294.7338748126251 279.46869483215244,306.5876293780962 279.46869483215244,330.2951385090384 300,342.1488930745095 320.53130516784745,330.29513850903845 320.53130516784745,306.58762937809627" stroke="#1A1A1A" stroke-width="0.5"></polygon><text dominant-baseline="middle" fill="#FAF6EE" font-family="Oswald, Arial Narrow, sans-serif" font-size="10" font-weight="700" text-anchor="middle" x="300" y="318.4413839435673">6</text></g><g><polygon fill="none" opacity="0.51" points="427.64929364481407,-253.75823040299218 410.7947427530879,-244.02725090858385 410.7947427530879,-224.56529191976696 427.64929364481407,-214.83431242535866 444.5038445365402,-224.56529191976696 444.50384453654027,-244.02725090858374" stroke="#FAF6EE" stroke-width="2.5"></polygon><polygon fill="rgb(100, 136, 196)" opacity="0.85" points="427.64929364481407,-253.75823040299218 410.7947427530879,-244.02725090858385 410.7947427530879,-224.56529191976696 427.64929364481407,-214.83431242535866 444.5038445365402,-224.56529191976696 444.50384453654027,-244.02725090858374" stroke="#1A1A1A" stroke-width="0.5"></polygon></g><g><polygon fill="none" opacity="0.51" points="395.7369702336105,-310.6176245911457 377.50922464795536,-300.09383077054775 377.50922464795536,-279.0462431293517 395.7369702336105,-268.52244930875355 413.96471581926573,-279.0462431293515 413.96471581926573,-300.09383077054764" stroke="#FAF6EE" stroke-width="2.5"></polygon><polygon fill="rgb(232, 220, 200)" opacity="0.85" points="395.7369702336105,-310.6176245911457 377.50922464795536,-300.09383077054775 377.50922464795536,-279.0462431293517 395.7369702336105,-268.52244930875355 413.96471581926573,-279.0462431293515 413.96471581926573,-300.09383077054764" stroke="#1A1A1A" stroke-width="0.5"></polygon><text dominant-baseline="middle" fill="#FAF6EE" font-family="Oswald, Arial Narrow, sans-serif" font-size="10" font-weight="700" text-anchor="middle" x="395.7369702336105" y="-289.57003694994967">4</text></g><g><polygon fill="none" opacity="0.51" points="300,-364.30576147454065 283.1454491082738,-354.57478198013234 283.1454491082738,-335.11282299131557 300,-325.38184349690727 316.85455089172615,-335.11282299131557 316.85455089172615,-354.5747819801322" stroke="#FAF6EE" stroke-width="2.5"></polygon><polygon fill="rgb(232, 116, 44)" opacity="0.85" points="300,-364.30576147454065 283.1454491082738,-354.57478198013234 283.1454491082738,-335.11282299131557 300,-325.38184349690727 316.85455089172615,-335.11282299131557 316.85455089172615,-354.5747819801322" stroke="#1A1A1A" stroke-width="0.5"></polygon></g><g><polygon fill="none" opacity="0.51" points="172.35070635518585,-362.4249129517175 157.12501806489507,-353.6343577187207 157.12501806489504,-336.0532472527272 172.35070635518585,-327.26269201973037 187.57639464547665,-336.0532472527272 187.57639464547665,-353.6343577187207" stroke="#FAF6EE" stroke-width="2.5"></polygon><polygon fill="rgb(232, 220, 200)" opacity="0.85" points="172.35070635518585,-362.4249129517175 157.12501806489507,-353.6343577187207 157.12501806489504,-336.0532472527272 172.35070635518585,-327.26269201973037 187.57639464547665,-336.0532472527272 187.57639464547665,-353.6343577187207" stroke="#1A1A1A" stroke-width="0.5"></polygon></g><g><polygon fill="none" opacity="0.51" points="331.91232341120354,-204.97243255442578 309.43902768342275,-191.99746921641335 309.43902768342275,-166.0475425403889 331.91232341120354,-153.0725792023766 354.3856191389842,-166.0475425403889 354.3856191389842,-191.99746921641335" stroke="#FAF6EE" stroke-width="2.5"></polygon><polygon fill="rgb(43, 77, 140)" opacity="0.85" points="331.91232341120354,-204.97243255442578 309.43902768342275,-191.99746921641335 309.43902768342275,-166.0475425403889 331.91232341120354,-153.0725792023766 354.3856191389842,-166.0475425403889 354.3856191389842,-191.99746921641335" stroke="#1A1A1A" stroke-width="0.5"></polygon><text dominant-baseline="middle" fill="#FAF6EE" font-family="Oswald, Arial Narrow, sans-serif" font-size="10" font-weight="700" text-anchor="middle" x="331.91232341120354" y="-179.02250587840118">8</text></g><g><polygon fill="none" opacity="0.51" points="331.91232341120354,-312.0145914774301 312.47476901378036,-300.79231421369 312.47476901378036,-278.34775968620943 331.91232341120354,-267.12548242246925 351.3498778086267,-278.34775968620943 351.3498778086267,-300.79231421369" stroke="#FAF6EE" stroke-width="2.5"></polygon><polygon fill="rgb(43, 77, 140)" opacity="0.85" points="331.91232341120354,-312.0145914774301 312.47476901378036,-300.79231421369 312.47476901378036,-278.34775968620943 331.91232341120354,-267.12548242246925 351.3498778086267,-278.34775968620943 351.3498778086267,-300.79231421369" stroke="#1A1A1A" stroke-width="0.5"></polygon><text dominant-baseline="middle" fill="#FAF6EE" font-family="Oswald, Arial Narrow, sans-serif" font-size="10" font-weight="700" text-anchor="middle" x="331.91232341120354" y="-289.57003694994967">5</text></g><g><polygon fill="none" opacity="0.51" points="236.1753531775929,-365.8913901269201 217.94760759193764,-355.3675963063221 217.94760759193764,-334.3200086651259 236.1753531775929,-323.7962148445278 254.40309876324812,-334.3200086651258 254.40309876324815,-355.367596306322" stroke="#FAF6EE" stroke-width="2.5"></polygon><polygon fill="rgb(43, 77, 140)" opacity="0.85" points="236.1753531775929,-365.8913901269201 217.94760759193764,-355.3675963063221 217.94760759193764,-334.3200086651259 236.1753531775929,-323.7962148445278 254.40309876324812,-334.3200086651258 254.40309876324815,-355.367596306322" stroke="#1A1A1A" stroke-width="0.5"></polygon><text dominant-baseline="middle" fill="#FAF6EE" font-family="Oswald, Arial Narrow, sans-serif" font-size="10" font-weight="700" text-anchor="middle" x="236.1753531775929" y="-344.84380248572387">4</text></g><g><polygon fill="none" opacity="0.51" points="300,-256.7408259416558 280.5624456025768,-245.51854867791576 280.5624456025768,-223.07399415043508 300,-211.851716886695 319.43755439742307,-223.07399415043508 319.43755439742307,-245.51854867791576" stroke="#FAF6EE" stroke-width="2.5"></polygon><polygon fill="rgb(149, 169, 202)" opacity="0.85" points="300,-256.7408259416558 280.5624456025768,-245.51854867791576 280.5624456025768,-223.07399415043508 300,-211.851716886695 319.43755439742307,-223.07399415043508 319.43755439742307,-245.51854867791576" stroke="#1A1A1A" stroke-width="0.5"></polygon><text dominant-baseline="middle" fill="#FAF6EE" font-family="Oswald, Arial Narrow, sans-serif" font-size="10" font-weight="700" text-anchor="middle" x="300" y="-234.2962714141754">5</text></g><g><polygon fill="none" opacity="0.51" points="204.2630297663894,-200.0700935195973 186.03528418073412,-189.5462996989993 186.03528418073412,-168.4987120578032 204.2630297663894,-157.9749182372051 222.49077535204464,-168.49871205780306 222.49077535204464,-189.54629969899918" stroke="#FAF6EE" stroke-width="2.5"></polygon><polygon fill="rgb(232, 220, 200)" opacity="0.85" points="204.2630297663894,-200.0700935195973 186.03528418073412,-189.5462996989993 186.03528418073412,-168.4987120578032 204.2630297663894,-157.9749182372051 222.49077535204464,-168.49871205780306 222.49077535204464,-189.54629969899918" stroke="#1A1A1A" stroke-width="0.5"></polygon><text dominant-baseline="middle" fill="#FAF6EE" font-family="Oswald, Arial Narrow, sans-serif" font-size="10" font-weight="700" text-anchor="middle" x="204.2630297663894" y="-179.02250587840118">4</text></g><g><polygon fill="none" opacity="0.51" points="140.43838294398236,-417.69867848749175 125.21269465369156,-408.9081232544949 125.21269465369156,-391.3270127885016 140.43838294398236,-382.5364575555046 155.66407123427314,-391.3270127885016 155.66407123427317,-408.9081232544949" stroke="#FAF6EE" stroke-width="2.5"></polygon><polygon fill="rgb(43, 77, 140)" opacity="0.85" points="140.43838294398236,-417.69867848749175 125.21269465369156,-408.9081232544949 125.21269465369156,-391.3270127885016 140.43838294398236,-382.5364575555046 155.66407123427314,-391.3270127885016 155.66407123427317,-408.9081232544949" stroke="#1A1A1A" stroke-width="0.5"></polygon></g><g><polygon fill="none" opacity="0.51" points="140.43838294398236,245.5865079417996 125.21269465369156,254.37706317479635 125.21269465369156,271.9581736407898 140.43838294398236,280.7487288737865 155.66407123427314,271.9581736407898 155.66407123427317,254.37706317479635" stroke="#FAF6EE" stroke-width="2.5"></polygon><polygon fill="rgb(43, 77, 140)" opacity="0.85" points="140.43838294398236,245.5865079417996 125.21269465369156,254.37706317479635 125.21269465369156,271.9581736407898 140.43838294398236,280.7487288737865 155.66407123427314,271.9581736407898 155.66407123427317,254.37706317479635" stroke="#1A1A1A" stroke-width="0.5"></polygon></g><g><polygon fill="none" opacity="0.51" points="300,-141.32985080862045 284.7743117097092,-132.53929557562364 284.7743117097092,-114.95818510963014 300,-106.16762987663333 315.2256882902908,-114.95818510963014 315.2256882902908,-132.53929557562364" stroke="#FAF6EE" stroke-width="2.5"></polygon><polygon fill="rgb(232, 220, 200)" opacity="0.85" points="300,-141.32985080862045 284.7743117097092,-132.53929557562364 284.7743117097092,-114.95818510963014 300,-106.16762987663333 315.2256882902908,-114.95818510963014 315.2256882902908,-132.53929557562364" stroke="#1A1A1A" stroke-width="0.5"></polygon></g><g><polygon fill="none" opacity="0.51" points="236.1753531775929,521.955335620671 220.9496648873021,530.7458908536677 220.9496648873021,548.3270013196611 236.1753531775929,557.1175565526579 251.4010414678837,548.3270013196612 251.40104146788372,530.7458908536677" stroke="#FAF6EE" stroke-width="2.5"></polygon><polygon fill="rgb(139, 26, 26)" opacity="0.85" points="236.1753531775929,521.955335620671 220.9496648873021,530.7458908536677 220.9496648873021,548.3270013196611 236.1753531775929,557.1175565526579 251.4010414678837,548.3270013196612 251.40104146788372,530.7458908536677" stroke="#1A1A1A" stroke-width="0.5"></polygon></g><g><polygon fill="none" opacity="0.51" points="140.43838294398236,356.1340390133482 125.21269465369156,364.9245942463449 125.21269465369156,382.50570471233834 140.43838294398236,391.296259945335 155.66407123427314,382.50570471233834 155.66407123427317,364.9245942463449" stroke="#FAF6EE" stroke-width="2.5"></polygon><polygon fill="rgb(139, 26, 26)" opacity="0.85" points="140.43838294398236,356.1340390133482 125.21269465369156,364.9245942463449 125.21269465369156,382.50570471233834 140.43838294398236,391.296259945335 155.66407123427314,382.50570471233834 155.66407123427317,364.9245942463449" stroke="#1A1A1A" stroke-width="0.5"></polygon></g><g><polygon fill="none" opacity="0.51" points="459.56161705601755,466.68157008489663 444.33592876572686,475.4721253178934 444.33592876572686,493.05323578388686 459.56161705601755,501.84379101688364 474.7873053463084,493.05323578388686 474.7873053463084,475.4721253178935" stroke="#FAF6EE" stroke-width="2.5"></polygon><polygon fill="rgb(232, 220, 200)" opacity="0.85" points="459.56161705601755,466.68157008489663 444.33592876572686,475.4721253178934 444.33592876572686,493.05323578388686 459.56161705601755,501.84379101688364 474.7873053463084,493.05323578388686 474.7873053463084,475.4721253178935" stroke="#1A1A1A" stroke-width="0.5"></polygon></g><g><polygon fill="none" opacity="0.51" points="331.91232341120354,464.8007215620734 315.0577725194773,474.5317010564818 315.0577725194773,493.9936600452985 331.91232341120354,503.7246395397069 348.7668743029297,493.9936600452985 348.7668743029297,474.53170105648184" stroke="#FAF6EE" stroke-width="2.5"></polygon><polygon fill="rgb(100, 136, 196)" opacity="0.85" points="331.91232341120354,464.8007215620734 315.0577725194773,474.5317010564818 315.0577725194773,493.9936600452985 331.91232341120354,503.7246395397069 348.7668743029297,493.9936600452985 348.7668743029297,474.53170105648184" stroke="#1A1A1A" stroke-width="0.5"></polygon></g><g><polygon fill="none" opacity="0.51" points="204.2630297663894,242.12003076659698 186.03528418073412,252.64382458719496 186.03528418073412,273.6914122283911 204.2630297663894,284.21520604898916 222.49077535204464,273.6914122283911 222.49077535204464,252.64382458719496" stroke="#FAF6EE" stroke-width="2.5"></polygon><polygon fill="rgb(232, 116, 44)" opacity="0.85" points="204.2630297663894,242.12003076659698 186.03528418073412,252.64382458719496 186.03528418073412,273.6914122283911 204.2630297663894,284.21520604898916 222.49077535204464,273.6914122283911 222.49077535204464,252.64382458719496" stroke="#1A1A1A" stroke-width="0.5"></polygon><text dominant-baseline="middle" fill="#FAF6EE" font-family="Oswald, Arial Narrow, sans-serif" font-size="10" font-weight="700" text-anchor="middle" x="204.2630297663894" y="263.1676184077931">4</text></g><g><polygon fill="none" opacity="0.51" points="140.43838294398236,-198.48446486721792 123.58383205225614,-188.75348537280962 123.58383205225614,-169.29152638399273 140.43838294398236,-159.56054688958443 157.2929338357085,-169.29152638399273 157.29293383570854,-188.7534853728095" stroke="#FAF6EE" stroke-width="2.5"></polygon><polygon fill="rgb(232, 116, 44)" opacity="0.85" points="140.43838294398236,-198.48446486721792 123.58383205225614,-188.75348537280962 123.58383205225614,-169.29152638399273 140.43838294398236,-159.56054688958443 157.2929338357085,-169.29152638399273 157.29293383570854,-188.7534853728095" stroke="#1A1A1A" stroke-width="0.5"></polygon></g><g><polygon fill="none" opacity="0.51" points="331.91232341120354,242.12003076659698 313.6845778255482,252.64382458719496 313.6845778255482,273.6914122283911 331.91232341120354,284.21520604898916 350.14006899685864,273.6914122283911 350.14006899685876,252.64382458719496" stroke="#FAF6EE" stroke-width="2.5"></polygon><polygon fill="rgb(139, 26, 26)" opacity="0.85" points="331.91232341120354,242.12003076659698 313.6845778255482,252.64382458719496 313.6845778255482,273.6914122283911 331.91232341120354,284.21520604898916 350.14006899685864,273.6914122283911 350.14006899685876,252.64382458719496" stroke="#1A1A1A" stroke-width="0.5"></polygon><text dominant-baseline="middle" fill="#FAF6EE" font-family="Oswald, Arial Narrow, sans-serif" font-size="10" font-weight="700" text-anchor="middle" x="331.91232341120354" y="263.1676184077931">4</text></g><g><polygon fill="none" opacity="0.51" points="300,411.40780454912243 284.7743117097092,420.1983597821191 284.7743117097092,437.7794702481126 300,446.5700254811093 315.2256882902908,437.7794702481126 315.2256882902908,420.19835978211916" stroke="#FAF6EE" stroke-width="2.5"></polygon><polygon fill="rgb(232, 220, 200)" opacity="0.85" points="300,411.40780454912243 284.7743117097092,420.1983597821191 284.7743117097092,437.7794702481126 300,446.5700254811093 315.2256882902908,437.7794702481126 315.2256882902908,420.19835978211916" stroke="#1A1A1A" stroke-width="0.5"></polygon></g><g><polygon fill="none" opacity="0.51" points="268.08767658879646,-421.16515566269436 249.85993100314124,-410.6413618420964 249.85993100314118,-389.59377420090027 268.08767658879646,-379.0699803803021 286.31542217445167,-389.59377420090016 286.31542217445167,-410.6413618420962" stroke="#FAF6EE" stroke-width="2.5"></polygon><polygon fill="rgb(43, 77, 140)" opacity="0.85" points="268.08767658879646,-421.16515566269436 249.85993100314124,-410.6413618420964 249.85993100314118,-389.59377420090027 268.08767658879646,-379.0699803803021 286.31542217445167,-389.59377420090016 286.31542217445167,-410.6413618420962" stroke="#1A1A1A" stroke-width="0.5"></polygon><text dominant-baseline="middle" fill="#FAF6EE" font-family="Oswald, Arial Narrow, sans-serif" font-size="10" font-weight="700" text-anchor="middle" x="268.08767658879646" y="-400.11756802149824">4</text></g></g></g></g></svg><g transform="translate(200, 640)"><g><defs><linearGradient id="colorbar-8mrp6l" x1="0%" x2="100%" y1="0%" y2="0%"><stop offset="0%" stop-color="#2B4D8C"></stop><stop offset="20%" stop-color="#2B4D8C"></stop><stop offset="35%" stop-color="#6B8FCB"></stop><stop offset="50%" stop-color="#E8DCC8"></stop><stop offset="65%" stop-color="#E8742C"></stop><stop offset="85%" stop-color="#E8742C"></stop><stop offset="100%" stop-color="#8B1A1A"></stop></linearGradient></defs><rect fill="url(#colorbar-8mrp6l)" height="16" rx="2" width="200" x="0" y="0"></rect><text fill="#555555" font-family="Inter" font-size="9" text-anchor="start" x="0" y="28">Cold</text><text fill="#555555" font-family="Inter" font-size="9" text-anchor="end" x="200" y="28">Hot</text></g></g><text fill="#1A1A1A" font-family="Oswald" font-size="18" font-weight="bold" text-anchor="middle" x="300" y="690">Ángela Boluda — Shot Frequency &amp; Efficiency</text></svg>