<?xml version="1.0" encoding="UTF-8"?>
<svg height="350" width="900" xmlns="http://www.w3.org/2000/svg"><rect fill="#F5F0E8" height="350" width="900" x="0" y="0"></rect><svg height="280" style="display:block" viewBox="0 0 900 280" width="900"><rect fill="#F5F0E8" height="280" width="900" x="0" y="0"></rect><g><rect fill="#555555" height="230" opacity="0.03" x="40" y="20" width="323.55555555555554"></rect><line stroke="#555555" stroke-dasharray="2 2" stroke-width="0.5" x1="40" x2="40" y1="20" y2="250"></line><text fill="#555555" font-family="Barlow Condensed, Arial Narrow, sans-serif" font-size="9" font-weight="600" text-anchor="middle" x="201.77777777777777" y="16">Set 1</text></g><g><rect fill="#1A1A1A" height="230" opacity="0.03" x="363.55555555555554" y="20" width="516.4444444444445"></rect><line stroke="#555555" stroke-dasharray="2 2" stroke-width="0.5" x1="363.55555555555554" x2="363.55555555555554" y1="20" y2="250"></line><text fill="#555555" font-family="Barlow Condensed, Arial Narrow, sans-serif" font-size="9" font-weight="600" text-anchor="middle" x="621.7777777777778" y="16">Set 2</text></g><line stroke="#555555" stroke-dasharray="4 4" stroke-width="1" x1="40" x2="880" y1="135" y2="135"></line><path d="M 40 135 L 40 135 L 46.22222222222222 135 L 52.44444444444444 135 L 58.66666666666667 135 L 64.88888888888889 135 L 71.11111111111111 135 L 77.33333333333334 135 L 83.55555555555556 135 L 89.77777777777777 135 L 96 135 L 102.22222222222223 135 L 108.44444444444446 135 L 114.66666666666667 135 L 120.88888888888889 135 L 127.11111111111111 135 L 133.33333333333331 135 L 139.55555555555554 135 L 145.77777777777777 135 L 152 135 L 158.22222222222223 135 L 164.44444444444446 135 L 170.66666666666666 135 L 176.8888888888889 135 L 183.11111111111111 135 L 189.33333333333334 129.52380952380952 L 195.55555555555554 124.04761904761905 L 201.77777777777777 129.52380952380952 L 208 124.04761904761905 L 214.22222222222223 118.57142857142857 L 220.44444444444446 113.0952380952381 L 226.66666666666666 107.61904761904762 L 232.88888888888889 102.14285714285714 L 239.11111111111111 107.61904761904762 L 245.33333333333331 102.14285714285714 L 251.55555555555554 96.66666666666667 L 257.77777777777777 91.19047619047619 L 264 96.66666666666667 L 270.22222222222223 102.14285714285714 L 276.44444444444446 96.66666666666667 L 282.66666666666663 102.14285714285714 L 288.8888888888889 96.66666666666667 L 295.1111111111111 91.19047619047619 L 301.3333333333333 85.71428571428572 L 307.55555555555554 80.23809523809524 L 313.7777777777778 74.76190476190476 L 320 80.23809523809524 L 326.22222222222223 85.71428571428572 L 332.44444444444446 80.23809523809524 L 338.6666666666667 74.76190476190476 L 344.8888888888889 69.28571428571429 L 351.1111111111111 63.80952380952381 L 357.3333333333333 58.33333333333334 L 363.55555555555554 52.85714285714286 L 369.77777777777777 58.33333333333334 L 376 52.85714285714286 L 382.22222222222223 47.38095238095238 L 388.44444444444446 41.9047619047619 L 394.6666666666667 47.38095238095238 L 400.8888888888889 52.85714285714286 L 407.11111111111114 58.33333333333334 L 413.3333333333333 52.85714285714286 L 419.55555555555554 47.38095238095238 L 425.77777777777777 41.9047619047619 L 432 47.38095238095238 L 438.22222222222223 52.85714285714286 L 444.4444444444444 58.33333333333334 L 450.66666666666663 63.80952380952381 L 456.88888888888886 69.28571428571429 L 463.1111111111111 74.76190476190476 L 469.3333333333333 69.28571428571429 L 475.55555555555554 63.80952380952381 L 481.77777777777777 69.28571428571429 L 488 63.80952380952381 L 494.22222222222223 58.33333333333334 L 500.44444444444446 52.85714285714286 L 506.6666666666667 47.38095238095238 L 512.8888888888889 52.85714285714286 L 519.1111111111111 58.33333333333334 L 525.3333333333333 52.85714285714286 L 531.5555555555555 47.38095238095238 L 537.7777777777778 41.9047619047619 L 544 36.42857142857143 L 550.2222222222222 41.9047619047619 L 556.4444444444445 47.38095238095238 L 562.6666666666666 52.85714285714286 L 568.8888888888889 47.38095238095238 L 575.1111111111111 41.9047619047619 L 581.3333333333334 36.42857142857143 L 587.5555555555557 30.95238095238095 L 593.7777777777777 25.47619047619048 L 600 20 L 606.2222222222222 25.47619047619048 L 612.4444444444445 30.95238095238095 L 618.6666666666666 25.47619047619048 L 624.8888888888889 20 L 631.1111111111111 25.47619047619048 L 637.3333333333334 20 L 643.5555555555555 25.47619047619048 L 649.7777777777778 30.95238095238095 L 656 36.42857142857143 L 662.2222222222222 41.9047619047619 L 668.4444444444445 47.38095238095238 L 674.6666666666666 52.85714285714286 L 680.8888888888889 58.33333333333334 L 687.1111111111111 52.85714285714286 L 693.3333333333334 58.33333333333334 L 699.5555555555555 63.80952380952381 L 705.7777777777778 69.28571428571429 L 712 74.76190476190476 L 718.2222222222223 69.28571428571429 L 724.4444444444445 74.76190476190476 L 730.6666666666666 80.23809523809524 L 736.8888888888889 74.76190476190476 L 743.1111111111111 69.28571428571429 L 749.3333333333334 74.76190476190476 L 755.5555555555555 69.28571428571429 L 761.7777777777778 74.76190476190476 L 768 80.23809523809524 L 774.2222222222223 74.76190476190476 L 780.4444444444445 80.23809523809524 L 786.6666666666666 74.76190476190476 L 792.8888888888888 80.23809523809524 L 799.1111111111111 85.71428571428572 L 805.3333333333334 80.23809523809524 L 811.5555555555555 74.76190476190476 L 817.7777777777778 69.28571428571429 L 824 63.80952380952381 L 830.2222222222223 58.33333333333334 L 836.4444444444445 52.85714285714286 L 842.6666666666667 47.38095238095238 L 848.8888888888888 41.9047619047619 L 855.1111111111111 36.42857142857143 L 861.3333333333333 30.95238095238095 L 867.5555555555555 36.42857142857143 L 873.7777777777777 41.9047619047619 L 880 36.42857142857143 L 880 135 Z" fill="#E8742C" opacity="0.2"></path><path d="M 40 135 L 40 140.47619047619048 L 46.22222222222222 135 L 52.44444444444444 140.47619047619048 L 58.66666666666667 145.95238095238096 L 64.88888888888889 140.47619047619048 L 71.11111111111111 135 L 77.33333333333334 140.47619047619048 L 83.55555555555556 145.95238095238096 L 89.77777777777777 151.42857142857142 L 96 145.95238095238096 L 102.22222222222223 140.47619047619048 L 108.44444444444446 145.95238095238096 L 114.66666666666667 151.42857142857142 L 120.88888888888889 145.95238095238096 L 127.11111111111111 151.42857142857142 L 133.33333333333331 145.95238095238096 L 139.55555555555554 151.42857142857142 L 145.77777777777777 145.95238095238096 L 152 151.42857142857142 L 158.22222222222223 145.95238095238096 L 164.44444444444446 151.42857142857142 L 170.66666666666666 145.95238095238096 L 176.8888888888889 140.47619047619048 L 183.11111111111111 135 L 189.33333333333334 135 L 195.55555555555554 135 L 201.77777777777777 135 L 208 135 L 214.22222222222223 135 L 220.44444444444446 135 L 226.66666666666666 135 L 232.88888888888889 135 L 239.11111111111111 135 L 245.33333333333331 135 L 251.55555555555554 135 L 257.77777777777777 135 L 264 135 L 270.22222222222223 135 L 276.44444444444446 135 L 282.66666666666663 135 L 288.8888888888889 135 L 295.1111111111111 135 L 301.3333333333333 135 L 307.55555555555554 135 L 313.7777777777778 135 L 320 135 L 326.22222222222223 135 L 332.44444444444446 135 L 338.6666666666667 135 L 344.8888888888889 135 L 351.1111111111111 135 L 357.3333333333333 135 L 363.55555555555554 135 L 369.77777777777777 135 L 376 135 L 382.22222222222223 135 L 388.44444444444446 135 L 394.6666666666667 135 L 400.8888888888889 135 L 407.11111111111114 135 L 413.3333333333333 135 L 419.55555555555554 135 L 425.77777777777777 135 L 432 135 L 438.22222222222223 135 L 444.4444444444444 135 L 450.66666666666663 135 L 456.88888888888886 135 L 463.1111111111111 135 L 469.3333333333333 135 L 475.55555555555554 135 L 481.77777777777777 135 L 488 135 L 494.22222222222223 135 L 500.44444444444446 135 L 506.6666666666667 135 L 512.8888888888889 135 L 519.1111111111111 135 L 525.3333333333333 135 L 531.5555555555555 135 L 537.7777777777778 135 L 544 135 L 550.2222222222222 135 L 556.4444444444445 135 L 562.6666666666666 135 L 568.8888888888889 135 L 575.1111111111111 135 L 581.3333333333334 135 L 587.5555555555557 135 L 593.7777777777777 135 L 600 135 L 606.2222222222222 135 L 612.4444444444445 135 L 618.6666666666666 135 L 624.8888888888889 135 L 631.1111111111111 135 L 637.3333333333334 135 L 643.5555555555555 135 L 649.7777777777778 135 L 656 135 L 662.2222222222222 135 L 668.4444444444445 135 L 674.6666666666666 135 L 680.8888888888889 135 L 687.1111111111111 135 L 693.3333333333334 135 L 699.5555555555555 135 L 705.7777777777778 135 L 712 135 L 718.2222222222223 135 L 724.4444444444445 135 L 730.6666666666666 135 L 736.8888888888889 135 L 743.1111111111111 135 L 749.3333333333334 135 L 755.5555555555555 135 L 761.7777777777778 135 L 768 135 L 774.2222222222223 135 L 780.4444444444445 135 L 786.6666666666666 135 L 792.8888888888888 135 L 799.1111111111111 135 L 805.3333333333334 135 L 811.5555555555555 135 L 817.7777777777778 135 L 824 135 L 830.2222222222223 135 L 836.4444444444445 135 L 842.6666666666667 135 L 848.8888888888888 135 L 855.1111111111111 135 L 861.3333333333333 135 L 867.5555555555555 135 L 873.7777777777777 135 L 880 135 L 880 135 Z" fill="#2B6CB0" opacity="0.2"></path><path d="M 40 140.47619047619048 L 40 140.47619047619048 L 46.22222222222222 135 L 52.44444444444444 140.47619047619048 L 58.66666666666667 145.95238095238096 L 64.88888888888889 140.47619047619048 L 71.11111111111111 135 L 77.33333333333334 140.47619047619048 L 83.55555555555556 145.95238095238096 L 89.77777777777777 151.42857142857142 L 96 145.95238095238096 L 102.22222222222223 140.47619047619048 L 108.44444444444446 145.95238095238096 L 114.66666666666667 151.42857142857142 L 120.88888888888889 145.95238095238096 L 127.11111111111111 151.42857142857142 L 133.33333333333331 145.95238095238096 L 139.55555555555554 151.42857142857142 L 145.77777777777777 145.95238095238096 L 152 151.42857142857142 L 158.22222222222223 145.95238095238096 L 164.44444444444446 151.42857142857142 L 170.66666666666666 145.95238095238096 L 176.8888888888889 140.47619047619048 L 183.11111111111111 135 L 189.33333333333334 129.52380952380952 L 195.55555555555554 124.04761904761905 L 201.77777777777777 129.52380952380952 L 208 124.04761904761905 L 214.22222222222223 118.57142857142857 L 220.44444444444446 113.0952380952381 L 226.66666666666666 107.61904761904762 L 232.88888888888889 102.14285714285714 L 239.11111111111111 107.61904761904762 L 245.33333333333331 102.14285714285714 L 251.55555555555554 96.66666666666667 L 257.77777777777777 91.19047619047619 L 264 96.66666666666667 L 270.22222222222223 102.14285714285714 L 276.44444444444446 96.66666666666667 L 282.66666666666663 102.14285714285714 L 288.8888888888889 96.66666666666667 L 295.1111111111111 91.19047619047619 L 301.3333333333333 85.71428571428572 L 307.55555555555554 80.23809523809524 L 313.7777777777778 74.76190476190476 L 320 80.23809523809524 L 326.22222222222223 85.71428571428572 L 332.44444444444446 80.23809523809524 L 338.6666666666667 74.76190476190476 L 344.8888888888889 69.28571428571429 L 351.1111111111111 63.80952380952381 L 357.3333333333333 58.33333333333334 L 363.55555555555554 52.85714285714286 L 369.77777777777777 58.33333333333334 L 376 52.85714285714286 L 382.22222222222223 47.38095238095238 L 388.44444444444446 41.9047619047619 L 394.6666666666667 47.38095238095238 L 400.8888888888889 52.85714285714286 L 407.11111111111114 58.33333333333334 L 413.3333333333333 52.85714285714286 L 419.55555555555554 47.38095238095238 L 425.77777777777777 41.9047619047619 L 432 47.38095238095238 L 438.22222222222223 52.85714285714286 L 444.4444444444444 58.33333333333334 L 450.66666666666663 63.80952380952381 L 456.88888888888886 69.28571428571429 L 463.1111111111111 74.76190476190476 L 469.3333333333333 69.28571428571429 L 475.55555555555554 63.80952380952381 L 481.77777777777777 69.28571428571429 L 488 63.80952380952381 L 494.22222222222223 58.33333333333334 L 500.44444444444446 52.85714285714286 L 506.6666666666667 47.38095238095238 L 512.8888888888889 52.85714285714286 L 519.1111111111111 58.33333333333334 L 525.3333333333333 52.85714285714286 L 531.5555555555555 47.38095238095238 L 537.7777777777778 41.9047619047619 L 544 36.42857142857143 L 550.2222222222222 41.9047619047619 L 556.4444444444445 47.38095238095238 L 562.6666666666666 52.85714285714286 L 568.8888888888889 47.38095238095238 L 575.1111111111111 41.9047619047619 L 581.3333333333334 36.42857142857143 L 587.5555555555557 30.95238095238095 L 593.7777777777777 25.47619047619048 L 600 20 L 606.2222222222222 25.47619047619048 L 612.4444444444445 30.95238095238095 L 618.6666666666666 25.47619047619048 L 624.8888888888889 20 L 631.1111111111111 25.47619047619048 L 637.3333333333334 20 L 643.5555555555555 25.47619047619048 L 649.7777777777778 30.95238095238095 L 656 36.42857142857143 L 662.2222222222222 41.9047619047619 L 668.4444444444445 47.38095238095238 L 674.6666666666666 52.85714285714286 L 680.8888888888889 58.33333333333334 L 687.1111111111111 52.85714285714286 L 693.3333333333334 58.33333333333334 L 699.5555555555555 63.80952380952381 L 705.7777777777778 69.28571428571429 L 712 74.76190476190476 L 718.2222222222223 69.28571428571429 L 724.4444444444445 74.76190476190476 L 730.6666666666666 80.23809523809524 L 736.8888888888889 74.76190476190476 L 743.1111111111111 69.28571428571429 L 749.3333333333334 74.76190476190476 L 755.5555555555555 69.28571428571429 L 761.7777777777778 74.76190476190476 L 768 80.23809523809524 L 774.2222222222223 74.76190476190476 L 780.4444444444445 80.23809523809524 L 786.6666666666666 74.76190476190476 L 792.8888888888888 80.23809523809524 L 799.1111111111111 85.71428571428572 L 805.3333333333334 80.23809523809524 L 811.5555555555555 74.76190476190476 L 817.7777777777778 69.28571428571429 L 824 63.80952380952381 L 830.2222222222223 58.33333333333334 L 836.4444444444445 52.85714285714286 L 842.6666666666667 47.38095238095238 L 848.8888888888888 41.9047619047619 L 855.1111111111111 36.42857142857143 L 861.3333333333333 30.95238095238095 L 867.5555555555555 36.42857142857143 L 873.7777777777777 41.9047619047619 L 880 36.42857142857143" fill="none" stroke="#1A1A1A" stroke-width="1.5"></path><g><circle cx="64.88888888888889" cy="140.47619047619048" fill="none" opacity="0.5" r="5" stroke="#FAF6EE" stroke-width="1"></circle><circle cx="64.88888888888889" cy="140.47619047619048" fill="#E8742C" r="3" stroke="#F5F0E8" stroke-width="1"></circle></g><g><circle cx="71.11111111111111" cy="135" fill="none" opacity="0.5" r="5" stroke="#FAF6EE" stroke-width="1"></circle><circle cx="71.11111111111111" cy="135" fill="#E8742C" r="3" stroke="#F5F0E8" stroke-width="1"></circle></g><g><circle cx="83.55555555555556" cy="145.95238095238096" fill="none" opacity="0.5" r="5" stroke="#FAF6EE" stroke-width="1"></circle><circle cx="83.55555555555556" cy="145.95238095238096" fill="#2B6CB0" r="3" stroke="#F5F0E8" stroke-width="1"></circle></g><g><circle cx="183.11111111111111" cy="135" fill="none" opacity="0.5" r="5" stroke="#FAF6EE" stroke-width="1"></circle><circle cx="183.11111111111111" cy="135" fill="#E8742C" r="3" stroke="#F5F0E8" stroke-width="1"></circle></g><g><circle cx="239.11111111111111" cy="107.61904761904762" fill="none" opacity="0.5" r="5" stroke="#FAF6EE" stroke-width="1"></circle><circle cx="239.11111111111111" cy="107.61904761904762" fill="#2B6CB0" r="3" stroke="#F5F0E8" stroke-width="1"></circle></g><g><circle cx="245.33333333333331" cy="102.14285714285714" fill="none" opacity="0.5" r="5" stroke="#FAF6EE" stroke-width="1"></circle><circle cx="245.33333333333331" cy="102.14285714285714" fill="#E8742C" r="3" stroke="#F5F0E8" stroke-width="1"></circle></g><g><circle cx="320" cy="80.23809523809524" fill="none" opacity="0.5" r="5" stroke="#FAF6EE" stroke-width="1"></circle><circle cx="320" cy="80.23809523809524" fill="#2B6CB0" r="3" stroke="#F5F0E8" stroke-width="1"></circle></g><g><circle cx="326.22222222222223" cy="85.71428571428572" fill="none" opacity="0.5" r="5" stroke="#FAF6EE" stroke-width="1"></circle><circle cx="326.22222222222223" cy="85.71428571428572" fill="#2B6CB0" r="3" stroke="#F5F0E8" stroke-width="1"></circle></g><g><circle cx="332.44444444444446" cy="80.23809523809524" fill="none" opacity="0.5" r="5" stroke="#FAF6EE" stroke-width="1"></circle><circle cx="332.44444444444446" cy="80.23809523809524" fill="#E8742C" r="3" stroke="#F5F0E8" stroke-width="1"></circle></g><g><circle cx="388.44444444444446" cy="41.9047619047619" fill="none" opacity="0.5" r="5" stroke="#FAF6EE" stroke-width="1"></circle><circle cx="388.44444444444446" cy="41.9047619047619" fill="#E8742C" r="3" stroke="#F5F0E8" stroke-width="1"></circle></g><g><circle cx="413.3333333333333" cy="52.85714285714286" fill="none" opacity="0.5" r="5" stroke="#FAF6EE" stroke-width="1"></circle><circle cx="413.3333333333333" cy="52.85714285714286" fill="#E8742C" r="3" stroke="#F5F0E8" stroke-width="1"></circle></g><g><circle cx="419.55555555555554" cy="47.38095238095238" fill="none" opacity="0.5" r="5" stroke="#FAF6EE" stroke-width="1"></circle><circle cx="419.55555555555554" cy="47.38095238095238" fill="#E8742C" r="3" stroke="#F5F0E8" stroke-width="1"></circle></g><g><circle cx="425.77777777777777" cy="41.9047619047619" fill="none" opacity="0.5" r="5" stroke="#FAF6EE" stroke-width="1"></circle><circle cx="425.77777777777777" cy="41.9047619047619" fill="#E8742C" r="3" stroke="#F5F0E8" stroke-width="1"></circle></g><g><circle cx="438.22222222222223" cy="52.85714285714286" fill="none" opacity="0.5" r="5" stroke="#FAF6EE" stroke-width="1"></circle><circle cx="438.22222222222223" cy="52.85714285714286" fill="#2B6CB0" r="3" stroke="#F5F0E8" stroke-width="1"></circle></g><g><circle cx="531.5555555555555" cy="47.38095238095238" fill="none" opacity="0.5" r="5" stroke="#FAF6EE" stroke-width="1"></circle><circle cx="531.5555555555555" cy="47.38095238095238" fill="#E8742C" r="3" stroke="#F5F0E8" stroke-width="1"></circle></g><g><circle cx="568.8888888888889" cy="47.38095238095238" fill="none" opacity="0.5" r="5" stroke="#FAF6EE" stroke-width="1"></circle><circle cx="568.8888888888889" cy="47.38095238095238" fill="#E8742C" r="3" stroke="#F5F0E8" stroke-width="1"></circle></g><g><circle cx="606.2222222222222" cy="25.47619047619048" fill="none" opacity="0.5" r="5" stroke="#FAF6EE" stroke-width="1"></circle><circle cx="606.2222222222222" cy="25.47619047619048" fill="#2B6CB0" r="3" stroke="#F5F0E8" stroke-width="1"></circle></g><g><circle cx="612.4444444444445" cy="30.95238095238095" fill="none" opacity="0.5" r="5" stroke="#FAF6EE" stroke-width="1"></circle><circle cx="612.4444444444445" cy="30.95238095238095" fill="#2B6CB0" r="3" stroke="#F5F0E8" stroke-width="1"></circle></g><g><circle cx="618.6666666666666" cy="25.47619047619048" fill="none" opacity="0.5" r="5" stroke="#FAF6EE" stroke-width="1"></circle><circle cx="618.6666666666666" cy="25.47619047619048" fill="#E8742C" r="3" stroke="#F5F0E8" stroke-width="1"></circle></g><g><circle cx="656" cy="36.42857142857143" fill="none" opacity="0.5" r="5" stroke="#FAF6EE" stroke-width="1"></circle><circle cx="656" cy="36.42857142857143" fill="#2B6CB0" r="3" stroke="#F5F0E8" stroke-width="1"></circle></g><g><circle cx="712" cy="74.76190476190476" fill="none" opacity="0.5" r="5" stroke="#FAF6EE" stroke-width="1"></circle><circle cx="712" cy="74.76190476190476" fill="#2B6CB0" r="3" stroke="#F5F0E8" stroke-width="1"></circle></g><g><circle cx="749.3333333333334" cy="74.76190476190476" fill="none" opacity="0.5" r="5" stroke="#FAF6EE" stroke-width="1"></circle><circle cx="749.3333333333334" cy="74.76190476190476" fill="#2B6CB0" r="3" stroke="#F5F0E8" stroke-width="1"></circle></g><g><circle cx="761.7777777777778" cy="74.76190476190476" fill="none" opacity="0.5" r="5" stroke="#FAF6EE" stroke-width="1"></circle><circle cx="761.7777777777778" cy="74.76190476190476" fill="#2B6CB0" r="3" stroke="#F5F0E8" stroke-width="1"></circle></g><text fill="#E8742C" font-family="Inter, Helvetica Neue, Arial, sans-serif" font-size="9" text-anchor="end" x="34" y="23">+21</text><text fill="#2B6CB0" font-family="Inter, Helvetica Neue, Arial, sans-serif" font-size="9" text-anchor="end" x="34" y="253">-21</text><text fill="#555555" font-family="Inter, Helvetica Neue, Arial, sans-serif" font-size="9" text-anchor="end" x="34" y="138">0</text></svg><text fill="#1A1A1A" font-family="Barlow Condensed" font-size="18" font-weight="bold" text-anchor="middle" x="450" y="330">Momentum — Kaitlin Quevedo vs Ángela Boluda</text></svg>